<mxfile host="app.diagrams.net" agent="Mozilla/5.0 (Windows NT 10.0; Win64; x64) AppleWebKit/537.36 (KHTML, like Gecko) Chrome/128.0.0.0 Safari/537.36 Edg/128.0.0.0" version="24.7.7">
  <diagram name="Page-1" id="NEq6vNvUnrwflYnnt6bs">
    <mxGraphModel dx="1224" dy="1135" grid="1" gridSize="10" guides="1" tooltips="1" connect="1" arrows="1" fold="1" page="1" pageScale="1" pageWidth="850" pageHeight="1100" math="0" shadow="0">
      <root>
        <mxCell id="0" />
        <mxCell id="1" parent="0" />
        <mxCell id="ASAxYl7nAv3bSKNFPmja-9" style="edgeStyle=orthogonalEdgeStyle;rounded=0;orthogonalLoop=1;jettySize=auto;html=1;" edge="1" parent="1" source="ASAxYl7nAv3bSKNFPmja-1" target="ASAxYl7nAv3bSKNFPmja-5">
          <mxGeometry relative="1" as="geometry" />
        </mxCell>
        <mxCell id="ASAxYl7nAv3bSKNFPmja-1" value="Unstructured data - PDF&lt;div&gt;- KB Articles&lt;/div&gt;&lt;div&gt;- Product Documentation&lt;/div&gt;&lt;div&gt;- User Guides&lt;/div&gt;" style="image;aspect=fixed;html=1;points=[];align=center;fontSize=12;image=img/lib/azure2/general/Files.svg;" vertex="1" parent="1">
          <mxGeometry x="60" y="200" width="45.71" height="50" as="geometry" />
        </mxCell>
        <mxCell id="ASAxYl7nAv3bSKNFPmja-8" style="edgeStyle=orthogonalEdgeStyle;rounded=0;orthogonalLoop=1;jettySize=auto;html=1;" edge="1" parent="1" source="ASAxYl7nAv3bSKNFPmja-2" target="ASAxYl7nAv3bSKNFPmja-5">
          <mxGeometry relative="1" as="geometry" />
        </mxCell>
        <mxCell id="ASAxYl7nAv3bSKNFPmja-2" value="- Wiki pages&lt;div&gt;- Community Forums&lt;/div&gt;" style="sketch=0;pointerEvents=1;shadow=0;dashed=0;html=1;strokeColor=none;fillColor=#505050;labelPosition=center;verticalLabelPosition=bottom;verticalAlign=top;outlineConnect=0;align=center;shape=mxgraph.office.concepts.web_page;" vertex="1" parent="1">
          <mxGeometry x="74" y="360" width="36" height="40" as="geometry" />
        </mxCell>
        <mxCell id="ASAxYl7nAv3bSKNFPmja-10" style="edgeStyle=orthogonalEdgeStyle;rounded=0;orthogonalLoop=1;jettySize=auto;html=1;" edge="1" parent="1" source="ASAxYl7nAv3bSKNFPmja-4" target="ASAxYl7nAv3bSKNFPmja-5">
          <mxGeometry relative="1" as="geometry" />
        </mxCell>
        <mxCell id="ASAxYl7nAv3bSKNFPmja-4" value="Proprietary Databases" style="image;aspect=fixed;perimeter=ellipsePerimeter;html=1;align=center;shadow=0;dashed=0;spacingTop=3;image=img/lib/active_directory/database_server.svg;" vertex="1" parent="1">
          <mxGeometry x="74" y="470" width="41" height="50" as="geometry" />
        </mxCell>
        <mxCell id="ASAxYl7nAv3bSKNFPmja-11" style="edgeStyle=orthogonalEdgeStyle;rounded=0;orthogonalLoop=1;jettySize=auto;html=1;" edge="1" parent="1" source="ASAxYl7nAv3bSKNFPmja-5" target="ASAxYl7nAv3bSKNFPmja-6">
          <mxGeometry relative="1" as="geometry" />
        </mxCell>
        <mxCell id="ASAxYl7nAv3bSKNFPmja-5" value="Curated Data with enrichments" style="sketch=0;outlineConnect=0;fontColor=#232F3E;gradientColor=none;fillColor=#8C4FFF;strokeColor=none;dashed=0;verticalLabelPosition=bottom;verticalAlign=top;align=center;html=1;fontSize=12;fontStyle=0;aspect=fixed;pointerEvents=1;shape=mxgraph.aws4.data_lake_resource_icon;" vertex="1" parent="1">
          <mxGeometry x="220" y="350" width="60" height="60" as="geometry" />
        </mxCell>
        <mxCell id="ASAxYl7nAv3bSKNFPmja-6" value="VectorizeÂ &#xa;using Embedding model" style="shape=image;verticalLabelPosition=bottom;labelBackgroundColor=default;verticalAlign=top;aspect=fixed;imageAspect=0;image=data:image/png,iVBORw0KGgoAAAANSUhEUgAAAkEAAAIqCAYAAAAjN540AAAAAXNSR0IArs4c6QAAAARnQU1BAACxjwv8YQUAAAAJcEhZcwAAFxEAABcRAcom8z8AAP+lSURBVHhe7P171G3ZfdZ3MvqPJuke4IzuHglJh8REtlEYDQmWoW2TECcN6YQATa6YSwghIbYTSLgEzLWDOwl250YzAhiCiQl2bBODhS9lSyUky7J1q/tFR+VSSVUlqUollVQl1b1OlersPp9T9ZSmZs01L2u/Kt3WM8Y673v2XnvOZ/3mb83fd681371/waFDhw4dOnTo0KFDhw4dOnTo0KFDhw4dOjTWL3rDY7/5/3z9U//YS/89dOjQoUOHDh368tAv+qknr/+l1z9x6Re/8alvOWDo0KFDhw4dOvRlo196/WOX/sIdD5/+6N2XH/qnf+bpazD00lOHDh06dOjQoUNfenrte6/8o//M3ac/95o3PXbpJ+9+8PShy6fTzU+drsHQL37j09d9xRufet1Lux46dOjQoUOHDn1p6JffeuVb/qX3XXnTP3njlY8GgujZF07XYOjHHn3h8m+44dl7roLQdxy3yA4dOnTo0KFDX/QCP7/i9ivXfefDVx56w7NXLr/u9iuPlhAUgaH3PHM6fdd9zz+SW2QHDB06dOjQoUOHvuj0mptPrwv8/OxzVy4/fBV0nrq6/boNCIoefv4zt8h+1duefdOxXujQoUOHDh069EUh635++a1XrvtXb336nsDPcy/yzbWfIwiK3CJ7/YeevPy73vbgsV7o0KFDhw4dOvSFLbe+fuP7rrzp9R99/vJP3f3hl+EnWoEg+uijj52uu/HO09996JljvdChQ4cOHTp06AtP5bqfdz935fJTly+f7rnnnpdQ5jN64rnnT19/6zwEPfbYY6dbbrnl9PjTz758i+xYL3To0KFDhw4d+rzrV97xynU/rvZcbkDQxz/+8dMN93zw9LU3PLsMQc8+++y1/5d/Un+sFzp06NChQ4cOveqy7gf8/M57r7xi3Q+VEAR+/P7+97//9J4Pf+z0dTc/txuCIjB0/SdfuJzPFzquCh06dOjQoUOHPuf66pfW/YCf+68CSb3uhwJBgZ8PfvCDp8cff/z01Kc//fKaoOt+/oGX9t7WFgRR+flCxy2yQ4cOHTp06NDnTNb9fNXNV677jgc+fW3dTwt+6LnnnrsGP+9973tfhp9PX4Wfa89d3UDQP3X9py79rZ+77fThD3+4CThRD4IiMJRbZNo9bpEdOnTo0KFDhy5EWffzpz7wzEPf896HL9/7xNPNqz/k1tcHPvCBa1d/fv7nf/5l+Ik+A0GPXfrBd1863Xzzzadbb731Ggy1NANB0XsfefL0ve+4dPp97/rEtVtkBwwdOnTo0KFDh3apXvdz96OPnd57z72nJ5988iXs+IzKdT8PPvjg6amnnrr2/1qBoKwJ+tjHPnbtihEYstWwswJB9r3xxhtPNz/w8Wu3yK6tF3rDE3/9uEV26NChQ4cOHZpWPu+nXPfzyU9+8hrklBAU2CnX/bj60/rrMKohiOwLhm677bbTu971rs+6RbYHgrSV9ULf+5EXnjjWCx06dOjQoUOHhqo/76e87VVCUNb93H333a9Y90MrEBR5jfZcEQoM7YWg6LGrlurPF3rpUA8dOnTo0KFDh7Y/76dUIAicWPcDfh5++OFXrPuhPRAUgZjA0Lvf/e5r214IisrPFzrWCx06dOjQoUOHfsE/8d4r/+hrbtr+vJ9S1vpYvwNu/N6Cn+gcCIrAjKtA73znO0/vec97hiDUg6Aof1L/+2/81LFe6NChQ4cOHfpylVtf/+KdL7zpu29/cPPzfijrflyd8RdfFkH3AIguAoLo0UcfvQY2YKheL1RrBoLIeqFbHvz46dvf+r5jvdChQ4cOHTr05aRy3c8bPvH85TvvfiWsUL3ux9WfemH0lrYg6OkXrpy+cQGCsibokUceecV6oVqzEERA7q033XqsFzp06NChQ4e+HNRa9/PUVdABF7XyeT/lup/WX4dtqQVBzz///OnDTz53+rqb1yEoV38ATmDIVsLQKgR5PR3rhQ4dOnTo0KEvUfW+58vVnhKC6s/7KW977YUg8OP/Dz300Oldd99/et1N+79ANQI6/qQeyGS90F4IirJe6Ph8oUOHDh06dOhLQK3P+ykVCNr6vJ9SeyAo8KMPV5RceXp5TdCZ3x2m7cCQW2R33nnnWRBEx+cLHTp06NChQ1/k8iWnX3Nr+/N+SoEfgGLbgp9oFoKuXLlyDXje9773vQw/YIteXhh9/WOX/u6t95yeeOKJa49vqQdBET/6ATXveMc7Tvfee+9Lz2xrC4Ki4/OFDh06dOjQoS8yWffz2tuuXPcHb/vUQz/y0JPdP3kHAqDGn71vfd5PqRkIyq2vtBv4iQJBvuj0+95+++muu+665mMLhmYgKPrIRz5y7YqQzxUCOK3F09EIgiJXha57/8dOv+utDxzrhQ4dOnTo0KEvRJXrft78xHOX33rX/aePfOLRl0r5ZwsA5NbX/ffffw1EZtSDoHLdj6sy9s2aoFIvXwl6aU3Qhz70oWvQwoM/h69BbAWCsiYIfNXrhWrNQhCBqetufM/phz785LFe6NChQ4cOHfpCUr3uJ3/x5c/KS7XW/eR22IxaEPTCCy+8Yt2Pqz8em4EgAilgyLfJP/DAA9euCgWG9kCQNUH1eqH684VWIYi3R5548lgvdOjQoUOHDn0haOt7vrLYORDk/4DEY/W6n+w7oxqCvNZjJfxEKxAUgRhg4qpQYGgvBEXleqHy84X2QFCO+1gvdOjQoUOHDn2eNPqerxKCFPve93ztgSAQBXLuu+++a7fTSviJ9kBQ5KpQYEgfN910024IijwWGLLl9xnVEBQdny906NChQ4cOvUr6J2688o9a9Dz6ni9Q4ustbKCl9z1fKxBkzY59gY+fbqVt6RwIirJeyAbmto4h6kFQlFtkN9xwwzUImoGrLQiKjs8XOnTo0KFDhz6HcuvrG26+/CaLnme+58tVlFy16cHDDARl3Q8YsOjYX2G1rv6UuggIIlezAEtrvVCtGQiiePPn9K31QrVGEEQ+X+j+pz99+u/ufOQJf/l2rBc6dOjQoUOHzlTW/XzHgy889H0///DlR596+qWy+9kCJQp7eaXmE5/4xEvPbmsEQZ7Puh/t1gujt3RREJQ1QW7l5RZZYKjWLASRK0sAyHFpt1wvVGsGggic3Xnvh04/8t4PHeuFDh06dOjQob2q1/18+NlPn97/wQeat6DqdT9PP/30teJe/3VYS1sQlD95L9f9tP46bEs9CPqG29YhKFdqyvVCjruEoVUIypog+weGbDUMrUCQeDnuY73QoUOHDh06tKit7/lSYAFACUEKuYJbr/sJ2OyBoPrzfsr+zoUgft999/2nX33D+d8dlvVCYCifL7QXgiKva32+0B4Iio71QocOHTp06NCEet/zVUJQ1v0AktZXXeyBoK3P+ym1F4K8Ln5vue/B09fd9NzZEEQeE5OsFwKC50AQ8R0Yyi0yvvdCEB3fR3bo0KFDhw5tyPd8tT7vp1QgyMJkkNKCn2gPBGXdTwt+oj0QlC1+n7rqN2uCrjvzC1Qj+wAaoOLqECAaaQuCIscoHvYBQ+BqLwRFx+cLHTp06NChQy/Jup/X3HTluj/+vmean/dT6qMf/ei1omx9TuvzfkrNQpBbXxZPp90t+IlWIMgVJcAGfsqvw9ADCPIXVH/r5257xfqbWjMQFIFEf/Hl2+RBTmvxdDSCoMhVoTvuuONau/bv+R1BUJT1Qr/n5x461gsdOnTo0KEvL5Xrfr77jo9cvv0jn9iEH8U6V1N87k9rYXStEQTV637AyoxmICh+fYM8vzWsfQaCHrv0g+++dA0senCxAkH2dcUGtPS+j4xmIYh4y5/pe83W95HNQlD0pjvuPv2lWx441gsdOnTo0KEvD9Xrfu74+RdvQdWq1/0o5q7WnANBrXU/2vP7jHoQ5LnSb2CoViAoa4K2FiNHeyBIm/Yv1wvVny+0CkHaMQb1eqHS1yoEOd7b77r7WC906NChQ4e+tLX1PV+ulpQQBGAUUWBSrvuxZWH0SC0I8hhQCfz4fx4/B4ICa7bSb7kwulQNQdRajBy42AtBkcfATv35QnsgKMftp5h5ffn5QnsgKLF/+PljvdChQ4cOHfoS0+h7vkoIUpi3vudrLwS1Pu+n1DkQxK92c6Wq9LsCQVELLs6FoEjsAkN85/8zqiEo0k/82sRiLwRF9ecL/aI3PvtbXkqlQ4cOHTp06ItDW5/3UwsEgROFE2Bsfc/XHghy2yu3vrZetweCQEH8WrDd8rsHgqISLvLdYedCUCSG2sstuJb3WlsQFOkv7VlAfQ4ERfl8od99+7Mf/Io3PvUdxy2yQ4cOHTr0RSF/8v4b7mp/3k8pYGJRMhAqbyW1NAtB1v3YR5uuepS3vlpagSBt8avIj/yeA0ERuHAV6J3vfGdzvVCtGQgi7YiNxc6t9UK1RhBEjtf4aBMIec3Ibw+CyOcL3XO1iT///mcf+Zq3PHmsFzp06NChQ1+4su7ntbdfue4P3/X0Q2965Jnm5/0Q8AAICqBirGCOrkjMQJB2s+4HBF3Ed4eRPvnVps3tpJHfi4AgcpsN2ICh1mLkUrMQRI4hf/ZerxeqNQNBJCaujvGg3XK9UEsjCIruf/yZ0w/ddu/p99/4yLFe6NChQ4cOfWGpXPfzpsevXL7pQx8/feyTj71Uwj5b9bofUJE1QT31IKhe92MfxXX0OUE0gqBy3Y+tXBPUUw+CvnEBgrImyLHw2YOLVQjSFolrYMjjvnut1AoEZU0QD/Fra43xLATxw9stD171fHX4s17oK9741OteSsFDhw4dOnTo1VVr3c8zVwuhdTif+tSnXqxgL0lxVRzrdT/nQFD9eT+uAlHA5hwIavlt/XXYlloQxO+Hn3zu9HW3rENQrv7UcFHC0F4IisTXeiHHqK2M0R4IinixXogvj5dXsVYhSJ7kKzisF/oNNzx7z7Fe6NChQ4cOvera+p4vhbCEoNxKUlhb62j2QFA+70chV0S9HsxE50AQ0NnyuxeCys8netfd95++9qbzv0A1cAFksl7oXAgi7fDtU6dzi8zVtb0QRI5dW/UtvT0QFIGh9zxzOn3Xfc8/cny+0KFDhw4delW09Xk/USAoV1IUuRb8RKsQBK6y7ucjH/nIZ8FPtAeCAmu2Lb97IMjP+HWcT13t7+U1QWd+d5i2A0PgAricC0ERr54HHz6B2u97ISiyvkkctAWq/PT/kVoQFJWfL/Sr3vbsm471QocOHTp06ML1mptPr/uaW7c/7ydSCO+9995rcAMmFK4W/ESzEARStKvItj7vp9QeCNr6fKJSKxAEXnx1hrZLv/69BkHXP3bp7956z+Zi5KgHQVEJFxY7i9NIIwiKsl7IbTK3Bev1QqVGEBSBNH9llz//d4w99SAocovs+k++8OJXcBzrhQ4dOnTo0EUo635+021P3/N9H3i0+yWnufoDbBTPHvxEIwjKuh+3UBT6GWCahaD4VZC3Pp+o1AwExS/w0W4Na4EgX6D6fW+//Vpx52MLhmYgKHJlzBUhYAFcerGahSAS+wCL4+epFatZCCIxcjXIlSt/Vu81W8c4A0HkFtn7n7h8+s633XX5G97yyD3HLbJDhw4dOrRb5bqft9z70Om+Bx96qdx8tsp1P4q/rV4YvaUtCKrX/bh6oMDqa6QRBIGZ+HUFSIGdAbYeBNXfS+ZnCwZevhL00pqgLEbmof7UaVqBIPuCCvC1tRg5WoUgwCKe1vGU64VKvysQRNpy3F5TrxcqNQtB5LU/++4bTj/x/o9+1ldwHDB06NChQ4em1Fr3A2xcLSkFNhQ8RT/raAIC50CQqylZR5N1PwpsFkaPtAVBLb/a8/8ZtSDoypUr1445fh2Lfjw2A0GkcNu3BRd7IAgw6r+1GDnaA0E5bsfotcDE+OQq1h4ISuzr9UL6jFYhCFQ69vIrOI71QocOHTp0qKve93zVEKSIttbR+LkXgspbX/oDE9G5ELTlN/vOqIYgfgNRtd8VCIpKuAgM7YWgqISLwBCdA0GR8bj99s/c0gMreyEoynoh3myOey8ERfV6oeOq0KFDhw4delkz3/MVCFLsFDkw0FpHsweC7A8a/FQUwUatvRA08rsHgsorXop+CT/RHgiKHGdgSPs33XTTbgiKPBYYsoFBP2e0BUHEF7/Aw4JsYHMOBJHY8Zu/egOv/kJtLwRR+flCxy2yQ4cOHTp0Tb7nq/V5P7VAEGABAbmVVAMFrUCQdTTaVDwVQ0WuBRS0B4Jm/K5AUK6qiMXI7zkQFAUubL4CpOW/VA+CqIaLXGkZqQdBkXZADa9u69XrhVragqCIX8+DQN+fJp4jv1sQFIGh3CI7voLj0KFDh75MZd2PP3n/E/c80/y8n0iRV3zcovBzCyYiz81AUNb9aHfrakop7c5AUOk3V216fmcgKOt+HJd2tz6fqNRFQBC5muWvp7YWI5caQVDEGwDx5/Rbi5FLzUAQ8eWYtesqVrleqKURBEWOG7CBm3q9UK0RBEWuCr3lI0+cftfbHrx2i+yAoUOHDh36MlDW/fxXD1156Ac/9NTlmx94ePPqT7mORrGqF0a3NIKget1PuSaopxkIit+0exFfoFqu+1HggdUIBuiiIChrghw7EOjBxSwEkVgBIMel3R5crEBQ1gTxW64XaoHbLARlTZB96/VCtWYhiMTruhvvPP3dh555cb3QG57468ctskOHDh36EtQr1v288MLpoUc/da2g1mqto8maoJG2ICjw4znFLOt+LgKCar+Kpj7qvw5raQuCSr+5UlUvjO6pB0HfcNs6BKXg13Chn2gVgoAE2b+EC+2U2gNBxDO/gZL6KtYqBMkTx1ve0uOthKFVCBLbx5++6vNqGL/3Iy88cawXOnTo0KEvMbW+58t6HEW9hCCAEZio19HshaD6837qdTTnQNCW34DNHgiqP++n9HsuBInBu+++//Srbzjvu8NKuAAd9nHceyGISrioP7xwLwRF2tEXkClhaA8ERbx4rXYDQ7QHgnKcj11N9WO90KFDhw59iaj3PV8lBCnyCpeisrWIeA8EZd2PdtNPrT0QNPIbsFmBoK3P+ym1F4JKWLvlvgdPX3fTc2dBUOQxIJH1QsZnLwRFfDv+Ei74PgeCIuMXGJIPrmjpa6Ten8g71vi16XsvBEXl5wsd64UOHTp06ItMr+l83k8UCFI0Wp+fU2sFghRO63H89LoW/ESrEKS9kd89EARU/Oz53QNBNu0G1p666jdrgq478wtUI3EAAEBlFgC2ICgq4QIMgatzISgyjgCIV1eetnIu6kFQlKtY/GpXHyONYps/qT/WCx06dOjQF4Gs+/mqm69c96/dfvmet13e/pJTyu2pFOhekaUZCHLlR6H3xaHWmICGkWYh6KMf/eg1ryCEj17hnIUgfsGafRXvHqzRCgS5GiYGNazpAQT57rAfuvGul2/jbGkGgiKFH7C4MmR8ezEaQVAELnxGj7/4sn/PxywEkXa058/fy1tkLc1AEAFPcefVJrY9vzOxzecL/bX7nnnCmB3rhQ4dOnToC1BZ9/P99z5y+Q3v+8jpqefbBaW8NQNWFM5esYx6EFSv+1EIR38iH40gKH5t9m19v1atEQTV637AygiAaAaCxIBXseW39voZCHrs0v/6rjuvgYBNQW5pBYLs6yoIaMkVoS24mIUgAhPWCbnS1FqMHOlnFoLIrbxcvQE58VtrFoKILx7FTLvx29JKbO/96COnv/mu956+5ZZPHeuFDh06dOgLRfW6n/uvgopC9Irie7XIK06KvqsTIMVVkNZfh7W0BUH1up9nnnnm5TVBM9qCoNov+OEBFI20BUGtdT+5DTajHgSVcMlvYKhWIMjtsL/3nvtevo2z9U3qqxCUNUH2r+GizIlVCAJAW1/BEe2BoMQejMcvbyUMrUJQALC8pWer/a7EVt+uWt3+sU8d64UOHTp06POtre/5Aio1BKUggwiTuefKhdEzqiEof0KusHguV1K0fS4E8Vuv+7EplHshiN8AT+k3+86oBUFeL7ba4DeLtMVmBEFZGG1fY6Yg11da9kJQVMKFsQ5c7IGgHPcWXDjuvRAU8Qti+M1Vv70QFAU0edXnntgGgniiY73QoUOHDn0eNPqerxKCAj+5OlFO9nshKPCTW0naKKXfvRBU+tWXtiK/74Gg0q+4BH6icyCoBWvRCgRFJVyADnBxLgRFYld+vpA1VnshKKrhwticC0HkWPnVJ5jh1757IYiMR/wGNLW3F4Io64WOzxc6dOjQoVdBrc/7qQUeFGpwEfhp/cn7HgiyKUgKl6JQAwXtgSD7l7DW8rsHgrRr6/ndA0EK6BasRXsgKFKs8+GFCvpFQBAFLnKlRfst77W2IIhquLDfuRAUOR4eLfT2swablrYgKHIM+tQev/bdC0HR8flChw4dOvQ5lC85fc2t7c/7qaUA5a+SWjARrUCQqym+5DS3VFowEelvFoK0w+uMX4/PQJB1P7ntlVsoPb8rEKQtXsV45PccCKLABQDyl07aGhXrEQRF9rMGyQYWWouRS/UgKPKceGszf5k10giCIvCt3fzVW8/vCIIiMbp06dK1L2YFRCO/PQiK8vlCv//GTx3rhQ4dOnToXGXdz7ff89xD3/+BTwz/5F2h9FdJtl7hpxkIKtf9KP6ueow0C0H8upWkcAKsLZiIZiCoXPfD70V8dxjZR2xdtbLxPvJ7LgRFiq4rFrlyYSy2YGgWgsgx5M/ejUEPLmYgiMREfHjQ7gguZiEoa4Lsn6tY4tIag1kIosSrtV6o1gwERbc8+PHTf//Oe471QocOHTq0R/W6n7sevVrY729/+FvgJ7eSgELWBPXUg6B63Y8CoI+LgKDSr/YUTe2PpN0tCKrX/QSERp8TRCMI4jfrfmx8j2CAehD0jQsQpFC7GpSxUKwBSQsuViFIW1TeImvBxQoEZU0QDyO4WIUgeaIdfvnJVazS7yoEia0revG7BZorECS277r51mO90KFDhw6tqrXuR/FxS6CUQl/CT27NAIu9EOQxxdskHvjJFaUsjB5Jvy0I2vJ7DgTFbwlr/AZszoGgGtb0nzVBeyEIrH34yedOX3fLOgSlKPfgYi8EUQ8u9kAQiUEPLvZAUORY+fd4/JL2VyEonhwfP9qN32gVghLbY73QoUOHDk2o9z1fNQT53WRdwkS0F4IUaP/Xbmvdz14I0o6iuOV3DwSNvufrHAjagjXaC0ElXL7r7vtPX3vTeV+gugUX50BQ1IKLvRAUbcHFORAUyYn4dUxuge6FoEj84tfG714IirJe6Ph8oUOHDh0qtPV5P6UCQSZXBcbvJuUSJqJVCFIsFFXg4vcafqI9EMTv6Hu+ViEIlAAVRYqnlt89EORnD9ZoDwTVcPnU1X5W1gRtFWqq4cLC4XMhKCrhwub3vRAU1XBh8/+RZj4niF/wIwZ+lldxttSLLQU0+bR+6hwIio7PFzp06NChq/onbnzxe75+5wfan/dTClRY6JurE1uTNs1CkOIMehQhmwKzBUC0AkEWOsev1/S8zEIQ8NGuY7P1vO6BoBGs0QoEKbAWqCvGJaz59xoEXf/YpR+9477NxcjRqFBTCRcAQJxGGkFQBC4AgHblYW8sPdeDoChwoU1XmHrHRjMQRNoJDNm/Xi9Uaya2uepmP3EQ25HfUWyPzxc6dOjQl7Xc+vrG2y6/6W/c9fHLdz393Cb85NZMQKV1daLWCILqdT9bV1NqzUBQ/AIbHmb8jiAofsEEvyNYo1kIEgN+85dvI68zEJRF2uKlXa8pFQjyZZw/8K5L14p1azFyNFOoI1ea/Mk3CNhajBzNQhCJfYAlt8hafj02A0EkRtrjt7VeqNQsBJE2wIo2vSZ+W1qJrb616U/1y1t6Lc3G1nqh19/1wOl3/cyDx3qhQ4cOfemrXPfzox9+9PLPf+C+zQlYEVXIXZ1Q3Px/Rj0IUqDdptKu/UzWWRM0Ug+CQEdgzX62rb8Oq7UFQfW6H+/GHRfQGmkEQYE1QJM/0x8BEPUgqIZLV01aMPDylaA3PXbp9Xfcd+3KRQ8uVgq1fcEK+NpajBytQhCPcsVrtuBiBYIIqPkUa/HS7hZcrEKQGPBX3tJzvLXfVQhyO8z4x6+t5XcltmJ13U2XTu/61PPHeqFDhw59aaq17ufBq5Nq69K6CdTECCRMvAqLonsOBOXqRLnuJ2uCzoUgfstbSennHAjiF6goNvrl1/EoaudAUAlrWfeTfma0BUH8BtbEUz/iMIKgrAlSjFOsa7hYhaCsCeKRH+224GIPBOW4t+BiDwQl9uUtPVvpdy8EReUtsvKq2x4Iypqg3NLjtb7qtgpBYitfjvVChw4d+pJS73u+TKolBAV+FNl63c9eCCrhR4HRpwJN50JQ6dfjKSx+7oWg0q9jiFfS7jkQxG9r3U/2nVENQfGrYAfWohUIilpwsReCoi24WCnUNQRFNVw45r0QFLXg4lwIIo/zW15143kvBJHjjd/yqttKbEsIomO90KFDh74kNPqeL5MqCDKplvDTWkezCkHaBQsm4xp+or0QpN2e3z0Q5Ms8FYEWrEV7IUgMSr91wdsDQY659OvxWp5vwUAPgqISLvx+DgRFNVzk1taMtiCISrgQX55bx91SC4Kohgvwescdd5wFQZEYOW4+9Q1sZmLbgqBIXLSlXX7z+4zEqoSg6Ph8oUOHDn1Ryvd8bX3eTymTKgAwYW7BT7QCQSZ/bZrkc2umpT0QNON3BYKs+9GmIqrdFvxEeyBI2z24pBUIUgDtCwZHfs+BIApc5Du+fP7NVn5EPQiiEi7ynVkzANCDoChwAUD8mXq9/qalLQiKAhfgg98ZuBpBUCS28escGPntQVAktvyufH/aFgRFx+cLHTp06ItC1v388luvXPef3PbJzc/7iXJ1QpEGDKPiNgNBuTXjKpCJeKs4RysQFL82xaDn13MzEMQvoLGId8avdmcgSDt85k/0e3BJsxDEr+PSLh8jv+dCUOQqmYIKLHIbZ0sjCIrkkwXJ+SuqUbGegSASZ/CtXT/lTc/vCIIixx1g8bPndxaCSLwAi/35BThbuTIDQZFxF1dec0tvS/btQVD0/ieeO/2V2z5y+ff83EPHeqFDhw594ahc9/OjD3/68lt//v4h/CjOfrrMP/NOvAdB5ToaBUW79cLolmYgqPSr7XJN0Jb024Og0i+fQFCBGUm7IwiK31y1uogvUI1fhTexGMEAXRQEKdRuh+XKRQ8uZiGItFHeuunBxQoEZU0QvyO4mIWgrAmyb71eqNYqBIktUObXMQY0a78rECS2POaqW0Cz5VesZiDI85fu+cDpnfc+eKwXOnTo0BeG6nU/Pg24Nakr3CmguTUDAlp/HdZSC4JAjInRhKtPk7SCDlTOhaCWX8B2DgTFb2Atfi8CggI/pV99jD4niLYgqIZLsbJdBAR9w23rEJQ86cHFKgQp1JRivQUXeyCItNODi1UIkifi2oMLv69CUF7v/2Kgr/iN9kAQiZlj9P/WVTexmoUg+4rnw88f64UOHTr0eVT5eT8AKGW5VVDBi8cU57JomVT3QpACDTK0C2L0G50DQdox0cZveStJ/3sgaPQ9X+dAUAvW7Jdx2ANBW3BJ50IQv++++/7Tr77hvO8O83sLLvZCEPG7BRd7ISjagos9EBRtwQXPeyEoEtv4FSd+9b0HgiKxjV9b/IrVKgRF9XqhX/TGZ3/LS1PUoUOHDl28Rt/zVRZUE6FJCzyYQBWIUh5bhaDy6oRJvoSJaC8E8dv6E/JoDwTxq/CLide3/O6BIO2IrXZrWKOMwyoE8RtYq+GS9kJQ6feW+x48fd1Nz50FQVENF8ZnLwRFLbg4F4KiGi7yQYkj9f5EvoYLfZ8LQRG/ueqm3XMgKApoGicQaNsLQVE+X+h33/7sB7/ijU99x3GL7NChQxeu19585Xtan/dTKgXVZJWrE+WVi1IrEKT4Ki71raSWViGI1/j12q3XrUCQomk9Dr+8bHmlVQjig18/va7lN+OwAkGKDN9bsEZ7IKiGy6eu+t2zJqiXJ4ELxXQWAHqFmkq4sNBZ0T4XgqLAhQ0EbOVcNPM5QYELfrXbgoVaM7H1nLbEQLtyeuR3FFu5YYz0DTQtzgbyPfUgiHy+0D1XD+O77nv+kWO90KFDhy5Mbn295qYr1/3Njzz9hBtSW+U8t2b89VDr6kQtE/oIgnJrRmHWrtf0gIJmIcglfkXONuN3BoL41Y4vDp31OwtB/kqK18BlL26zEOTKD1hLHEZ+VyBIscxfqJVwqXUQ5LvDfujG9758W2RLM4U6UiAVVX9JVq8XqjUq1BG4cAUEBACWng/9zUAQaUf/2gYEuaXX0gwEkXNF3Hm1iW3P70ps9a3Nmb/Sm42tMQJu2i1v6bU0gqAo64W++c0feghoH+uFDh06tEtZ9/MdH37uof/p0kcvP/DJ7XdqAEER9Y7fZN0rPpFJtQdB5bofhUUfMxpBkCJvMtUuWDGpzvjtQVC97kf/9cLoLY0gKHBps++ouNMIgup1P2BlBGs0A0HxK7b8vuJW3dXtRQh67NL3v/OOa8WyBxcrhdq+rlb4YEFXhXpwMVuoSXF2tcL+KdYtP/qZhSBy3Ll647zZgotZCCK+eBSz0m9LqxAE2ORK/Iohb7VWYitW2tWe19haxzkLQdFP3HDH6X+65YMvfgXHG5++7ive+NTrXpraDh06dGhb9bqf+558+vSeu99/bcKsZbIzMYEZE5cCqKjOyP4tCGqt+1F0LwKC+M2tGVdWXAVp/XVYS1sQVK/7eeaZZ655vwgI0p52+QU//q+vkXoQVK/7WRmzHgSVcMlvcqNWIMi79L/3nvtevo2zBRerEJQ1QX5PsW7BxUqh5gtUlbfIWnCxB4ISe8U9fnkr/a5CEBB0zKVfW+13DwRlTRC/+pEP2inPt5XYilXWBCUXjKHHS1+rEKT/295798vrhX7DDc/ec6wXOnToUFevvfWV634USe/qTXRRCpwJUMFLYU7xnVENQSX8aMPzuTpxLgSVfj3vuXph9Eg1BJV+9Rev2j4XguJXn57Tpk0B2AtBLbiklTHbgiB+60XlKVq1SgjKmiDtpVjXcLFSqO1bL4zeggu/zxbqQFCOewsuHPdeCIoCF/zmqt9eCIoCF7yWV93OgSDyOsda3iLjdyW2Xh8IIj+1xVcJxsmnFQhybpH1Qu955lgvdOjQoQ3l1tePPnXlFet+Sgjyu4nIpuC94lbHQkE1qYIgE7wJzsTptR5PgY72QlD8BtZKv3shKLeSWrBG2t8LQWJQ+i2Lk3b3QFAPLmllzGoIKv0GLqMUrVotCIpacHEuBEU1XLgSOFuoawiKargwNudCEDlWfvUJCMTZvsmTnry2hiAyHvEbuNDeORAUeU4MxFa/vM/GVqxKCIr0k1zwPMi27x4IisrPF/pVb3v2Tcd6oUOHvsy19Xk/pQJBJh+TkuKcd6i1VgqqidOklsIHMsriXGoVgsCVCTB+W4ue90CQzWu0y3/L7x4Isr9YtGAt8n9jsAJB2u3BJa2MWSDI+I/87oGgqIQLBfAiIIhKuFCwtV/7bmkLgqiGC/u1jrulLQiKHA+PrrT4WYNNS1sQFJVwwa99z4WgKPAjFtZQtdYL1RIrMashKBLbrEOygPocCIrcIrv+ky+8vF7ouCp06NCXmV57x+l1r7l5+/N+SoEKkxAQMhH2isZsQXV1IlcmFNJWcS61AkH241dx7vldgSB+tatw+tnzq78VCOI1flswEXl8FoKsSxJbfh1fz+8qBPGquIz8ngNBFLhI8dPWqFiPICiynyJtAwutxcilehAUeU68tZm/zBppBEGRnNMuGAK1Pb8jCIrE6NKlSy9/kaxzpacZCIrEQQyc22K9lSM0giDynHMqsZ3JhR4EkVtkYOiHH3j68te85cnjFtmhQ18usu7n33nfC/f89Ts/dvmBy5/ehB8Fz2RjM5mMCguNCmp9awZYzbxbnIGg3JrhVdsjsJqBoNovIBxpFoLiV8Fw5apXKGgGgkq/YOUivjssKuOrwI788mH/WrMQFMk7VywUtdzG2dIsBJHjUVC1awx6cDEDQSQm4sODdm09v7MQlDVB9gc4PbiYhSBKvFy58dN4bcHFCgSJpWPnt14vVEufIwii5JN26/VCLdmvB0HRJx5/8vQDN7//9AfueOLlr+A4YOjQoS9Blet+7nzq6mT9gfYVDUXWZGPL1ZR6YfSWtgpq1tGADs9rM7etRu/oqAdB8ZtbM9qsF0a31IOg+A388KuPi4CgwET8mqi1P5J2tyCohjXH5Ofoc4JoBEGl32wjGKAUrVoy7hsXIEjeKXo5th5crEKQdkhcgQPQUOTr3FmBoKwJ4iG39MBAK89XIUieaEf7W3Dh+RUIEltX9Ozfgwt9r0IQeZ3f+ZeXNWg6lhUIMlY8JBe8tpULnpuBIH58pMKlTzx+rBc6dOhLUa11P4omWKghKMVTcU4xUHTPgSB9acPj5a0kk+M5EKQdk2L85tYMUNkLQb3v+dL/ORBUw1r8ngNBgTVFp/SbcTgHglp+tXcOBPH74SefO33dLesQlDzpwcVeCCLtiK+iWsPFHggiMYjfFlzsgaDI74GL+CXtr0JQPJVwUV91098eCIrE1teE8Ot5sSGxWoWgSGxd8dSXrYyt/69AUOa3Y73QoUNfIup9z1cNQSYlE4zHTHaZ/GkvBJVXJxSG9BXpZy8E8Vv/SXa0F4K2YC06B4K8Vrsl/ER7IYhffWjXMZR+Mw57IMj/5ULLr3jtgaASLt919/2nr73pvC9Q1VYLLs6BoEgbHi/hYi8ERV4nntot4eIcCIrkRPw6JjHeC0FRDRf20/c5EET64Zc/cdKu/N8LQbSVC/rfA0GU9UI+X+i4RXbo0BehWp/3UyoQFPjJu/3yKkO0B4JMTLl9YfIsC3Tk8VUIKv0CkhImolUIUizitwVr0R4Iil+vdbwtT6sQBEril/eW34zDKgTxuwWXtAeCarh86mp/K2uCtgo11XDhFtG5EBSVcGHz+14IiviK32yJfU89CIoCF/bzs7yKs6VebEu4sCCZ13MhKNIfADRe+revY+wp+VRDUOT5Mhf8FIuRWhAUgaHcIgsMvTTFHjp06AtRX33rlW/5mlvbn/dTyglvwjCptK5OlJqFIO/2V76HyvOzEGRS9c40sNbzOwtBijOImPW7AkGOq/TbO8ZZCFIktOvYRn73QJBc6MElrUCQfJE3NVz69xoEXf/YpR+9476Xb+NsqVeooxIuAIA4jTQq1JGiawG1dh1LL68814OgKHChTT9H58AMBJF29B0YEtue35nYggvHBIDEYeacnY2t48mYgbZeLowgKEou8FpeddtSD4IiV4UCQ26RHTB06NAXmKz7ee1tV677g7d96qHXf/TJ5uf9RFn3Y5JUJHuTJM1AUPluX/HvwURkAhxNqNox8QEFbffgJxpBUG7NZP0DuJnxOwNBYhC/PMz4HUFQ1v0owPz24CfyvH1HEBS/xmwElzQDQfErXtqt/QaCfIHqD7zr0rU8NBZb/c4U6khu+5NvRbVeL1RrtlCTQqrN1nqhUh6bgSASI+3xW97GaWkWgkgbAQCvEZMtuFiJrePWpqtCfPfgYiW2YqXNcr1QK7azEBTxCtz4sG0d4wwERe9/4vLpO9921+Xf965PPPSL3/DEXz9ukR069HlWue7nzU88d/mtP3//6aFHPvnSKfvZMrmYRICHgur3meLfgyDwkwJt8g8IzWgEQfzm1oyJT1GdUQ+C6lsz+siaoJFGEOT5tGvb+uuwWj0I4jfrfhShxHikEQR53vjbR4wVny0IKdWDoHpReXKsViDI7bDX33HftbHtwcVKobYvWAFf9RqRWiuFWhs8ir/XiFf8llqBIAJqfIqXduO31ioEiQF/YttajBytxFbfoML4i2/gojUvrMRWrMQWgPMb73UurEKQ/vnMVbetXFiBIK/92av+3nnvg6fv/cgLTxzrhQ4d+jyqXvdjrUWr8ClKJg+TF6BQRBVXALIXgrauTqT4zmgLgkyg8ZtbM4ousJhRC4JqWOOzXhg90hYExa/nHVP6OQeCSr8KAr+ORwE4F4L4Ldf9BApntAVBNVzqP0WrVglBWRMktxStFlysFGr7Zk0Qj/xotwUXK4U6EJTjNg7xq52sZ9kDQYl9eUvPVubEXgjK/wMXvIlRzo2V2Oo7a4KMbQkXjrdsYyW2Xiu22iTtJLYlDCWfViDIuUW9XFiFIHH0+seuhvBYL3To0OdBW9/zVRc+RcmkYatvdeyFoN6fkFM8zMhrSwiK38Ba6XcvBPVuJZ0LQYGf+M1x6HcvBJXwU/vV7jkQVPoNXNLKmNUQ1ILLKEWrlj22FkbXcKFArRRq+9YLo7fgYqVQ1xAUBS7ERN+OeS8ERYELt4i047jPgaDI41mMHLgANHsgKHK8iW15peUcCIrKXHCO6te+eyAoqnOB370QFB3rhQ4depU0+p6vsvCZNPyuOLfWW+yBIO34Xbt5t19rpaCaVHkwCZnc4re1LmUPBPG6BWu0F4J6sEZ+X4UgX+apCCgeW361uweCRn5XxiwQZMz4bcFa5Hn91rLXFgRFgQsF0O/nQFAUuPA8X8Z9tlBvQRDxpT1wIb48t467pRYEkdjJYccNLly5U6jFeaQU6hqCIm0ELvgENjOx9boagqISLsQpv8+IhxYERckF8TV+50BQlFyIX3HeC0FR/qT+Ggwd64UOHbo4vebm0+sseh59z1eKmRMfXJi0apiIViBI0dQuCKjf7ddaKaj82demePT8rkCQyR+0meS3YI32QFDptwWX5LFVCDKpapeXLb/aXYUgbcdvCy5pZcwClaDNT2O25fccCCIFx/G6ImLzl4db+RH1IIh4kh+KXr4zawYAehAUiYX2UrCB4khbEBTJMc+DD35n4GoEQZHYAgH7yrtRbB3fFgRF4m4djvGyOHsmtiMIouSCNp3XYjvy24Mg0h+/yQU+Rn4T2xYEUT5fyHqh4/vIDh26AH31zVe+5zff8dw9Fj0r1Vv4oTg5iU0Q3qmPCuUMBOVWkhPexGZS7e1PswU1t2b41e5oQpuBoNyacVwmv5HXFQiKX3DVgzXy3AwExa/YanfkV7uzEMSvduXCyO/smPHrypJ2XZkY+XVsYlbLq2YgKAJcil95G2dLIwiKFHILhmf/jHoGgkic5bRC6adxEIctjSAoctwBLD97Vy1mIYiMJ2DJ/j24mIEgyriLa3mLbEv2HUEQpd2A0CgXRhAUiYHjkjejXBhBUGS90Js+/KnTN7/5Q8d6oUOH9ii3vn7wkRee+PsfePj06FPtDxLLrQ5brlQ4qUfqQVC97gckZE3QSKOCWt6aie8sKu2pB0GBtdya0aYrVr3CTzMQFPjhV9ujyY/024OgwE/8mqgV+pG0O4Kg+LVp9yK+QLX2KxYjGKAUrVqrECTvvFt37Apb4KKVN7MQRNpQ9ByTdm0KfUsrECT3wA2/Cqb/89XKx1kIypog+9brhWqtQFBi6yphYrsFQ7MQRGKrvcS2BxeOYwWCxLXOhRYMeX4GgrzWrcbMn15na/mdhSASpx99123HeqFDh1ZUr/v56LPbhU/xdtLm1oyJ0v/PgSCP60s7JgXP+/+5EORxE1j8mnQVVR567xKjFgRtLdIuF0b31IOgwJotfl39KBdGb0m/LQgKrJm0S78m6q3iW0q7W7kQvwCFXzmgj5lc2BqzGi55tF0EBH3DbesQlDwJXPBRw4X/r0CQYkf2L9cL1Tm5CkE5bu0AnfIqVul3FYLEX1z1ISatKy1+X4WgMraBC+dFCRf6XoUgElvHuAUXYrUKQVFygV++ytjqawWCMr8lF7ze+LRiOwtB9qVjvdChQwPl837+8ANXPliu+2kVPhOMyQBAmJhy4qeY7YGg8t2+CTaP07kQxG/5J9nx6/e9ENSCtehcCMo7wsBl2vH4Xgji1/+1q7/S7zkQpB25EL9Z95Nx2ANBvb8A9Ng5EMT7u+++//Srbzjvu8P8ru0aLvZCEPG7BRd7ISgSQ33VcLEHgqISLnhLYU6h3gNBkTyrP7xQ33sgKNqCC7HaC0GkHY9po8wF/eyBINJX/Ja5kNiuQhCV64WOzxc6dKjQL7/9ynfk837qdT9O5hQ+BcgkkHf79ULXlcIXCHJSO+HLd/speNFeCAqs8QseSq+kr1UI6sFatBeC4reGy2gPBM343QtB/LbgklZyoRyzHlzSORAUuLzlvgdPX3fTc2dBUOS4AxcKoPHZC0GR4sWn5wIX50JQVMOF3xP7nloQFDlW67T4tYnXuRBEHuM3bcmzcyCIWnABiM6BoMix6DO54Pe9EBQZ7+QCv/rfC0HR8flChw69JN/z5erP3/jklUdc43hleXxxUlWUTXJOwBb8RCuFzwSnmOW7vkyurQJNeyCI1y1Yi/Q5C0GKr+LSg7VoFYJ4Lf0GMmqtQJBJWGxn/K5CEB/xy8+5uZB9R7BGeyAocMm343zqqt89a4J6eSIuCpViqvDUV/da2irUUQkXFuNeBARRCReOSx+jXO1BENVwoe0tWCg1E9vARWIrR0YaxbaGC2uczoWgKLnAq3jkqtuWehAUiW3p11iMtAVB0fH5Qoe+bPXLb77yW19z05Xrvv19z1xb99P+kosX5R2HE04BcVL1JsvZwufdvn3sq92tghfNQpB2TFIm9R78RCb0EQTl1gyf2u3BRDQLQSY/MbDN+OVhBEHASjuu0Mz6nYUg7fI6gkuazQV+V770dgWCFEsxiN+Ms9ZBkO8O+6EbX4xRTzOFOlIAFSnH4nW98RwVagpcuAIChOR3z4f+RhAUaUebPIBm+bjldwRBEb/2067N/NHzuxJbx6RNtyDFrgcXM7GlgFvi0LvCMgtBkTYDLL25cwaCIjk9+910IwiKwNAPfPDxy7/zrQ8c64UOfWmrXPfz3bc/ePnGD3+8efWHTCJO+GxbVydKjQpfeWsGfACbUYGmGQjiV+G3mXR6xScyofcgqLw1o7CAkBnNQJArBdp1XCbVGb8jCCr9anfrr8NqjSDIGMkB7dp3BMM0yoV63Q9YmcmFGQgSA37FgN8a1j4DQY9d+v533rG5GDlaKdT2VXhcWdhajBzNFmpSnBVUXv3cggv9zEIQKaQ82Jw35XqhUrMQRHzxKGZpewsuVmKrbzAoV8S4BxcrsRUr7YIhr9mCi1UI0talS5eu7e8q1lYurEAQX45du+UtvZbfWQiiD3/s4dNP3HDn6X98/+PHeqFDX5qq1/289+rJ3Lpkn9szeffsRFJ8z4Eg7/YDP543mZlUAci5EBRY4xcgBAJmtAVBJawpKDwquhcBQfGrX3+W7irIzK0T2oKg2u8zzzxz7feLgKDApVzQ5rm5QCWspb3ZMRtBkPa0xW9iXSsQ5HbY33vPfdeKk0K8VVBWIShrgsRUIdyCi5VCzZdC6qfj87r8v9QeCErsFet6MXK0CkGKr7jmSssWXOyBIHOS/XtwsRJbsdKOnIrfVi7sgSDnFjlO/xfD+I32QBBv/CYX4rfUCgSJrXH4yGNPHuuFDn1pKX/yXq/7cTKXxVch8pitvNVhc9LvKXy9v/JRCM+BoPgNrMVvPMyInxKCWrAWf+dCUA2X/GdN0F4IKuGn9KvfcyEoABG4PDcXqAWXtDJmWxAUv2LkWHhN0aql13pNkILBg4JSw8VKobZvvTC6hgu+aKVQ85NCTdp3RcTrbfHmuPdCEGmH30BM4GIvBJHj3YKLldjqu14Y7fWOv4aLPRCUcdmCi+TTHgiKvDZ+eeR3LwRFYhu/tjy3B4KSX8d6oUNf9LLup/y8n3rdj5M5xdfJaOJUnJ04Jr1ob+Gr3+2n4EV7Icj+vGu3hJ9opaA68Xlw5cQE14K1aC8E8c6vrfa7F4ICa1t+tb8XguK3hkvyc08u9OCSVsashiC5W/oti2mKVi09by2MruFCzq0Uavu2/jrMawMXcsN+rgTqY0Y1BJHjq+HC2JwDQRG/vAUuxHkvBEUtuFiJrb5rCIpquMj/ZyRWJQRFNVy4Impfbc/Ia2oIipILia8xFIuREtsSgqLkgn6Nq3jthaDo+HyhQ190eu3G5/3UcjLnpFZATMgpdqX2FD7Frn63X2sPBDnxc2vGSdvyu1JQteH4cxWgBWvRHggSN+3yW8Ml7YGgFLqeX/2sQpDxF4v4reGS9uZCDy5pZcwCQeKZ3N3yuweCqISLrO05F4KiwIU2FUC/175bMu41BEX8ip+2wIX9Wsfd0hYERcY7frVbg01LWxAUlXBhP9u5EBQFLgIDM7EVqxYERSVcWOysjxnZfwuCyDFrS47ZtubgUoltC4KozN0soJ6NbQuC6Ph8oUNfNPrqW698x7/x3uebn/dTSiFx4jtBtwpI5PGZwqeg20ebece4BRS0AkGgwrtzIJRbM1uaLaj6z5UJhXTkYwWC7Mev4xOHLb8rEMSvdvntwSXpbwWCeE0u9PzO5gK5usarXNiCtWh2zEi8eJ3J3b0QFHm9WCu8ip+2RgVlBEFRWfyMf27jbKkHQZE+xVubCvBWoSw1gqDIGOYvs1pAXyqFegRM/Cq8ijUfo9jOQBBpJ3HgIbf0tjSCIPKcc0qb4iC2I78jCIpcudJuuZB+S4ntaGzliVts+Qu10f49CIry+UK//8ZPPeQvK49bZIe+YGTdz2tvv3Ldf33PU4+8+2Of3IQfxcsJb1P4FJHe5ECjwlev+3HStxbD1pqBoNKvdmfeKY0Kan1rBlhZ7zDSDASVcGnrTSg0A0G13xEAkRjNQFBuJSkYQPDcXCDjGr9y7CK+OyyKX7FVLEZ++bB/rVkIihyLQqKoKZa9gjILQeR4FKmtxcil9DmCIPJ68VEo+bX1ivUsBGVNkP356MFFCvUIggjQiJcCnGK95XcWgiixdfx89+BCjowgiJJPiesILuxjLEbiC7Ck7eRCy+8sBJE4AUzjG89br5uBoOhd937k9EO3feBYL3To869y3c+bn7xy+a6HHr128rTkcQUU+Dg5nJwzVyB6hU/B87iTDCDk93MhyGMmBG3l6kS9MHpLWwW1tUjbVSUeekUi6kFQCWv8alOsR0W6B0Etv9rneST99iAofnMrSS4AzJF6uVDDmmPycyYXRhAkd+PX5veZyTpFq5aM+8YFCJJ3CkTALgWllTerEJR2xDXg0IKLFQiSe3zy4LZIDy5WIUgeOka+t+AihXoGghJbecKHdrfgQt8rEKQtEtv49XjtV46sQJD2xDZ+bS2/Hl+BoMxvyQV+HWuZC4ntFsyU8lr7UnKBp9ZVN7GdhSDjqo1jvdChz5ta3/P17NUTxQluK+X/KSDllRSP7YWg8t1+eWUixewcCOK3Xvej73MgqIa19Kn9cyEoxT5wyW/WBJWTV0tbELTl1+/nQJB2jHv85laSiVosRrJvnQtbfwGYcTgHgvST3I1f7fn/XggS8w8/+dzp19yyDkHyRJs9uLDvKgRF2vH/Ei6SQ/pZgaAct/3FVrstuNgDQdEWXDiOVQhKDHtwoe89EBRtwYVYrUJQ1IMLj+2BINKOfvgqcyGxXYUg6uWu2K5CEB3rhQ696tr6ni8niBPfRopSXUBy0pPnViGofrefghetFL4agviO33rdj773QNAWrEX874Wg+PV67ZR+90LQyO85EMTv1qLyvRC0BWuUcdgLQdrzWJ274rUXgvgVk3f5AtUbz/sCVW3zp9CVBeUcCIrE2OMlXGh/DwRFW3BxDgRF/JZwISf2QlDUggt9nwNBpJ0aLuT/Xggij7fgQv97ISjymHbEll+3l/dCUNQCY7HdA0HR8X1khz7n2vq8n8jk58RXUJ2othb8RJ5fgSDFo363X2ul8AWCRrBGeyDIxLQFa5HHVyGo9hsgKLUKQfaf8bsHguRE/Hpty9MqBBmj+G3BGq3kQval+HWsPNV+90BQCZcm8Keu9reyJmirUFMJFwqpxa3nQlBUwoXtHAiKari4CAiiEi70P1uoe7E1ZiVciO25EBSVcKF/v+uvp+RTDUFRDRd+ngtBkT61JwZia94aaQuCojJ3rZ+yOHsvBEXH5wsdunC95oYrv/Vrbt7+vJ/I5GfScdIpzk6AVsGLnMwzEKTIO+GsMajf7ddaKXwmVfvaerBGsxDk1szK91B5fhaCTKpiIG4jv7MQ5HkTin1n/K5AkEmT3x5cRrMQJE7iNeN3JReyr9j24JJWIMgxy5saLjm+BkHXP3bpR+8Yj1OvUEcKStYLKTz6HGlUqClwkSLlNT2/nutBEJVwoV0FeHQOjCAoClwE3hT4nmZiG7gAl/zOAMBMbClwkTHr+R1BUBS44DVXWnqagaBI39o0dqM5fgRBEb/GgN9cdeupB0FR1gv9np976FgvdGifsu7nd976+Ae/955HNz/vh5zwTk7FTKEcTepk/x4E5d2zE9gJvVWUSs0WPn4VMpPkzF98zUBQeWtGMdoqzqVM6DMQJE5iq+3RxEMzEMSvIq1NYzHjdwaCtKM9seWhBz/RCIKy7ieTew9+otlcMGb8GrMRrNEMBOW2bUCw9us3EOTPfH/gXZeuTeoK0Va/M4Wa9ClX/EWOguLc6b1mtlCTtrQ5+jNqxzCCoEgMFUl+R8V6FoLIMQcAvMZxbvmdjS05Lm2CQXHr+V2JrVhpM+C2dY7PQlDEK3DjowcXKxCkDe36i8Lyll7L7ywEkXFNXJMLW35nIIisF7ru9ntOf+Yd9x3rhQ6tqVz383P3PXi65/72yV7emlEgFREn/4y8rgVB9bofhc/kcxEQxFv88ur3UTGlHgSVtzr07RaQnzNy4vcgKH7tY+IT4xn1IKj0ax99zFyRoxEEacu6H/v5Wa4J6qkHQSVcaveicoG0Zx9eFZ8tCCk1giB+kwMmcuNXKxDkdtjr77jv2sSv/62CslKo7avw5JZTCkpLxmu2UGtD0ROr+PX6Gi54N0at425JMeNVvLRra/ldhSAxEE/nTQ8uVmKrb7fDjH/iuwUXK7EVK7EF4PxuwcUqBOkfhOeq2xZcrEKQeGrH/vooc7fUKgQZh7zR0e5W7s5CENnvzbdeOtYLHZpTa92PQgEYSuXdsy3vnhUdJ75tRl5bFt+tv/IxCTjpzyl88Rv44dekCi72QtDWIu14mJHXtCCohEt+9a/oGosZtSCo5TfxPheCjHn8ej79nANBNaxdVC5Q/Iq9frU3O2ZbEFT6NUnr3//1U6uEoKwJclwpKMajLCgrhdq+WRNUFhRbXVBWCrXXKs45bn5bcOHnKgQl9inWPNVwsReC8n9+W3CxElt9Z02Qse3BxUpsxYo3bdIWXCSfHMuMtOHcIuOWXKjhYi8ERWXuOu743QNBya9e7q5CkDGier3QL3rjs7/lpdJ36Mtdve/5qiFIkpvkPFZPfp6zzcjJnOJbv9tXQCLtOsn2FD7/14/HAj/xq889ELQFa1E8zMhrSwjSD7+22u9eCOr5zcLovRAUvyVc6tO2F4K24JK0uzcXSG6WftPOypjVEFTCT+03RauWZ7cWRju+wAW/jnmlUNu3Xhi9BRfa99iMaggi7fBbwoVj3gtB5PUtuDgHgqIWXKzEVt/1wugtuFiJrViVEBTVcKFf+3p8Rl4bCIpacHEuBEVl7vKavySbkdiWEBQlF+S0Y9f/XgiKsl7od9/+7Ae/4o1Pfcdxi+zLWK3P+/lMOX9RgaCygLTW0fi/fWwz0pYTKQUk7/Zr7S18fGz9STbtgSAndib5GtaieJgRX4EgIOJ1/JZwGe2BIF55127L714I0o7xi98S1sjvqxBksuN3Cy5pby7Yn19by+/KmAWCUvDl2ZZfz+uzlr22IIjkg+MMXBifcyCIeKnhQruzhdr+NQRFJVyIr5+t426phqCohovcshTnkVKoawiKxDZ+nSfAZia2+t7667AaLvL7jMSqBUFR4MJ6LOPn/zPSfw1BUXLBPvqWX+dCEJW5Kwb2reeylsS2BUEkLsbS83JBHM6BILJe6J6rQ/5d9z3/yLFe6MtUvuer9Xk/tRQ+95Xrd/u1PDYLQYqvE99JYmsVkGhP4XPi86tgb52AKxDkmLUrFn72vKwUVMcdv7z4/5bfFQgyYYiviWoLLmkPBIlrDy7JY6sQxHNifJG5IK5+8tuCS1oZM/ECxCl6Pb97ISgKXJjELRqd+QqQLQiKSriwIHm2UPcgKDI22lP4zBm5LdLTFgRFiTP4sNh5Bq5GEBTxaz+beWvr3Ivk+xYERYGLLPKdgasRBFHgQgzAm9iO/Op/C4IoYAwu5AIfI7+J7RYERfIwi72NwygXxHYLgiJxlwvazcL/kbYgKHr4+c/cIvsVb3nyTcd6oS8DWffzNbdeue673v9k8/N+orx7Npk5kbbgJ/LcCILqWzO9AhJpd6bwxa8JQqEe+Z2BoNyacbKJg5N55He2oIpB/IrDyO8MBMWv4+LXxDI6vlkIMq78yoUeXJLnZiAot5J4FbOLygXiV7uApQeXNDtm/LqyZF85NvLr2MSsllfNQFAEOvOXWY6rV1BGEBR53l/4aFexHBWUGQgicZbTip+fW+AZjSAocu6lqHpNr1inUI8giIyndh1bivWW3xkIooy72Ja39LZk3xEEUdmu2I7gYgRBkRg4LnlT3tJraRaCSJySX/zKXbc1W5qBoMg5zYN2bV67pREERe9/4rnT37jjwRf/pP6NT1/3FW986nUvlcxDXyrKup//6qErD/3gh566fPMDVwvkSwlQS7K6guDdswnKz5FMHF5na0kBUby0p5grUDPFV7u9wqcQmRjSrp9O6pFGEOTxwBqfWRM00qigBtbKbWtiKNWDoBoutWn8esWHZiAofhV9bcuFUbue70FQYM0+2jRRn/vdYVHg0qZdfYw0GrPAWvzaRu9sKUWr1ioEyTsFwrGP4GIWgsi5qugpEopJDy5WIEjuaYvfEVzMQlDWBNmX3x5crEBQYquQplhvwcUsBFFiy692e3AhR1YgSFxt8auvll/Pz0CQ11oTlPnT62wtv6sQZF9K7ppHxLzOhRUIMj7yJlfd5Lu4tHJhFoLE9tI9Hzi9894Hr60X+g03PHvPsV7oS0SvWPdztQA99OinmoXPySSZJGre7TsxzoGgsoCUt2b0cy4E6au8NWOidBKfA0Hxy6tj97y+LwKCHK/n+DVBiAkPW4Wn1BYE8cufduM3a4JaRadUD4K0Y4zi15Uqsdb2SPp1bDUEbS3SNlH7faReLniMXxu/uWIzkwtbYxZYK/3anB8zk7XX8lNLxn3jbesQJE9sYrAFF6sQpNjxmYKyBRceW4GgHDc/KdYtuFiFIPHnwWu024IL3lchKMfbgwt9r0CQdkhs49dW+xWrVQiK/O5Y+a3BWF8rEJT5Lbng9canzIXEdhWCyGv5Lz9rKn7FdhWCSEz832tbubsCQYmt9ULveeZYL/QlIbe+/v37r/xMue6nVfjy7tnknoKX5NwLQfW7fUmu2ET62wtB+ojf8tZMitkeCCphTRtlf34/B4JKv+WicjHZC0Gl3xIu6VwI4re17kf/eyGoBWvRuRBUw6X9VnKhNWZbfsXrHAjSzrt9d9gN53132BZceHwVgqIeXPh9DwRFxi1+9Ru/eyAo2oKLFOo9EBS14ELfeyAo2oILsdoLQaQdj9VgrJ89EET60lYNxoltmRtbqiEoEkfeytz12B4IivSVXBCH+NsDQVG5XuhXve3ZY73QF5PyeT/+5P2WqwD0mXLz2YXPJG/gbTX8RKsQJJkllD4kpf+XBS/S5yoExW8L1mil8AWCnNT8bsEa6XcPBPXgkvS1CkEjuKS9EGT84reEy2gPBPVgLdoLQfErhl5f+l3JhXLMRn7PgSB+weUt9z14+tqbnjsLgiLxSEHRvvHZC0FRCy5s50BQxG8JF+dAUFTDhXidC0HkMX4DF87hcyCI5ET8Bi54PgeCIseiz8CF3/dCUFTCBb/6PxeCojJ3tev3vRAUia2lFtrKtheCIn9Sf/0nX7iczxc6rgp9Aav+vB/TRV1yUvgMeOvdfq0VCFI4nBxOmvLdc0v6X4GgLJ5twUS0UvgUO8Us3/XVgoloDwQ5PlvPrz5nIUjfissILmkVgowVr1uwFq1AkIlKbHuwFq1CkLwp/QaKSq3kQvY1EY787oGgwJrXid9TV49jz5qgXp6Ii4KjmFroO7PGaqtQRyVcWOB6ERBEJVw4Luf2KFd7EERiXcKFWLQKWq2Z2NpHDPjVrhwZaRRbcZRn9uHXmDmGnnqFupTntcureOSq25Z6EBSJbenXvDXSCIIifuWXGIjbKBd6EERlLuhfu6M5dhRbt8jy+ULHLbIvQFn381U3X7nu99zxzAffdrkNP5Ekk8w2E/Io4WYgKLcOTPISaavYlbLfDASZzHnlwwTY8ztb+PjNO5wRrNEKBMWvmOmj59fxzEAQv058xWLG7ywE6ZdXENKDn2gGgqz70Q7A5ncLJkrNQpB2+ZU7I7+zucDvypferkCQK2FiEFiLX62DIN8d9vo7xuM/U6jJ8yZxE79jUdx64zkq1JSC4gqIQjXKV/2NIChyXPnrIfndK9YjCIqMi/20axtdsZiNLTkmbc78ld5MbCnFOnHo+Z2FoEibgEX+Oc6tXJiBoAgA+nP6mT+pn4UgMq6JbXJhy+8IgiLxAq7ld9Nt+Z2NLRhyi+yb3/yhh7yJOWDoC0BZ9/P99z5y+a3v/8i1d5kt5eqPE0JBN9i9CTLqQVB9a8bk5+SfES89CNKOfWyKZOvdfq1R4StvddhPHEYFmmYgKH7tN/POlpz4vaJS+jVuxmJGMxDEL1DhdwaYaARBgeHEduuvw2rNQJBc0a59eR/5nYGg0q8xm8mFGQjSTvLWVsPaZyDosUvf9/Y7hhP0SqG2r/ZsuS2yVazFcaZQE3/adKstfltynLMQRIoZDzZ+eWr5nYUgEicexSxtb/ldia2+waBcUdz52XqjsxJbsdJurrqJScvPbKGOtHXp0qVrr+nBxQoE8eXYeRW35ELL7yoEaU/u8C22zvlWLsxCECW/nON+gqJWLqzG9kd+7pbTj7z3w8d6oc+n6nU/918tTopUneCZkCUBmFGYvPOduQpDLQhq/ZWPk8CJb5sRTy0PipLn8u7ZicTDORDUWkdjUgUgM4WvB0ElXPIrtk7gGfHRgqCWX/1cBAQZn/g1mazmQguCSljT7zPPPHPt94uAoPgVJ22emwtU+w0IzWgEQfzmNrNY8V4rEOSd5A/f+uIVKBP0FlysQlDWBJnQU1D4qguKxzw/I74UEG3Gr632uweCEnttb8HFKgRpR37nSguvLbjYA0G82Z9fMWnBxUpsxUo7cip+W3AhZ+07W6j179wi3v1fDOM32gNBvIlDL3f3QFDOK8foc6ySu449WoUg8SSxBbD82s6JreN1nh/rhT4P2lr3Y8JVIOoTsV73k3UgeyGofPfsuUCEtvVnm5GEKz3UsJZ3zzaJubfweayEtfh1HOdAkMf4tZV+42FG/JQQtPUn5GRyEO8ZtSAofgNr8buaCyUEtWCNX+2eC0F8lX75PzcXtvyujBlfLQiS9/ErRrxmYq1lROs1QSZoHjJBlwVlLwRFYtaCC571NSN+UqhpCy60vReCSDv81nCxF4LIOGzBxV4IirxeDGq4WImtWDlePkmMkwslXCSfZgu11weCIq+NXx7FdS8ERTVcpJ1zIIiSC9qQU9qVC3shiLZyYTW2gSA61gu9Shp9z1cJQa0JOdoLQfW75xTnKP3aZsRfPHhNDWuR3yXmauGLX15LWIvOgSB+tctvWVRopaA61kDQFlxGeyFIO2Kt3RJ+aE8uaLsHa6T9vRAkBvzaar9+7smFkd/sO6MaguI3sFb6zcRaS89bC6NbcCHvzoEgSkEp4cL6Nf3MqIYgcnx1QREPudc67pZqCIocR4o1v865vRAUteBiJbb6riEoEtv45TX/n5FYlRAUiW382hyPfbU9I6+pISjShhjJW+e/Mcz81lNiW0IQlblgITKf4nUOBEX6lCe5pWcu3gtBEb9lLqg/xm42tiUERVkv5KpQYOil8n3oXLU+76eW4mRQJH1rQo72FD7t1e+ea+nHyW+bkZOEXz+1X8NatKfw8Rq/W6/bA0FO/PgtP++n1EpBFUvtGactuIz2QJA2t+CS9uRCCp1j9P+tXND3KgTxoV1+a7ikPbmg3ZHflTELBPlp7OK3da7tgSCq4UIf50JQVMKFze8zMu41BEU1XNivddwtbUFQZLy1qwAG4EbagqCohAv72c6FoChwYey0X+dES2LVgqAouWBctT1bqPW/BUHkmPXtmPIXhSO/iW0NQZFjMPfIVwuSV2K7BUGRfRwTv26V5apbT1sQFJW5kMXeM2pBUOSqUGDILbIDhs7QV1+Fn9fc3P68n1ImcYPnkuTWhBzNFr68ewYK2pWArQIS6W8WghQlfp2gI78enyl8jss+2sw7xp7fFQjSlhgAoZHf2YLKb0Btxu8KBNmP3x5c0goEiZd2+e3BGulvBYJ4NW7GQxzOzQWyLolXE9XI7+yYkXjZ1yYXen73QlAUuFD8/OXMzAQ9gqBIHBW+/FnyqKD0ICjSp1zWpqKyVShLjSAoknv566EWIJcaQVDEb4o1H6NibaxHEETacXtJHHgQ255f49qDIPKcfNOmOIjtyO8IgiLnqnbF1lzQy4XEdjS2YiQGvDq20f5iO4KgSI7x4Kfc7cV2BEGRGIgXuPFzFNseBEVg6IcfePry73n7ww/94jc88dePW2QLyrqfP3Xvpx/6n+96ePgn7wZDgXYy9SZ7mil85a2ZgNVIEnEEQbzxWLbbS2Dy/KjwaTfFyUnfWgxbawaC9Bm/2p15pzQqqPWtGePmvvxIMxAUv7zaQEjP70wu2IffANsIKEifMxCkb35NZoBtBDczuVD6lWOK0MjvaMwiuR2/JvVRLvBh/1rczEBQ5DzJ5DyCi1kIIsejSKWg9OBCnyMIIq+Xe9rkdQQXsxCUNUH256MHFynUIwgixyxeCrAYO84tv7MQRImtGPAdvy3JkREEkee1lTyI3y3Zx1iMxBdg4WNrMXI0C0EkTgDTeRjPW7fcViBILLVlLsg4b+XCLATlXBUH+49yYQaC6BOPP3l64213nf7i+x5/4lgvNKF63c99Tz1/es89738pnJ+tTMh5ty8hFMnRxNwrfMBAMiggKXbavAgI8rik0ZaEd3LOXIHQ7lbhi19e+bSPCfUiIIhf7fIrHmBl6wQu1SuoJVzya9x46BWJqAdB+pQL2uVXm7yfkwutdTT64Hkk/fYgSAy0ZeNXLgDMkXq5UPt1TH7O5MIIguLXuWazb+/dcpSJtdYqBMk7BUJMTdAKwBZcrEKQtrQjrj24WIEguafw8TAqKKsQJA8dI99bcKGfWQhKbOUJH9rdgotVCNIWiW38erx+0yNHZiHIvtoT2/i1teYmj69AkDaSC+JnHD1W5kJiOwtB9uV7lAurECRvSDuJbSt3VyHIsfMwyoVZCEpsP/To1Zy9Om0d64U6aq37aU2i5YSsgOTWjOK0F4Lqd/sSMnBwLgT5f/yWt2Y8theCSljjN8+lmJ0DQaXfXPnR/jkQVPo1saRPcT4Xgvgt4ZJfcT4HgmpYK3PhXAgKnPBrkrSviZr3kexb5wK1/GYczoEgj8uF+HWuaU9uzEzWrfMXrH34yedOv+aWdQiSJ9rsFRT7rkJQ5LV1QYn0swJBOe5RQdkDQZFciF/HEr/isQpBiWENF2V/ft8DQVHgQv7oN+enWK1CUP6fXHA7y3NlLuh/FYIi7Rib+vOFEtsWGNQKBEX81rkQv2K7B4KiMhfMMcmFPRAU1blQHvMqBCW2x3qhhnrf85WBodaEnJOI9kBQ692+fkppcw8EKUr81rAWeW4VgnqwRilmeyBIDLb86nsPBI38+v9eCBLn+C3hkvZCUAlr/NawcQ4Exa/jddylt70QtAWXtJIL5ZhF/NZwSeK1F4ICa+/yBao3nvcFqltwYd+9EBSVBcU+JnLt74GgaKugnANBEb+KrecVXjHeC0FR4EIsHYvn9X0OBJF2tFfChfzfA0GRx8XccZRwof+9EBQ55uSCecLniu2FoKjMBcetLf2cA0FRnQvnQFCUXOBXe2K7F4Ki/En9NRj6cl0vNPM9XxmYrQm51CoESSSThWT0urKAlFqFICcKz9ptwU9knxUIUlB7sEYrhS8QFPixbfkVp1UIMnYjvx5fhSBeeN2CS3oZgkwoP/iDp9M3f/Pp9E3f9Nnb1ceu/MAPnD710Y9e25/fLViL9kBQ4tvzuwpBYjHyu5IL2ZfkcPw61tqr41mFoBrWnrra357bYa08qeFCcT0XgqKyoNjOgaCoLigXAUEkNvzyqP/ZQt2LrTEzTwYuxPZcCIoch+cdk/b9rr+ekk+tQk18JRfEwc9zISjSp/VCYiC2Wx5KbUFQJBeyXsj6qYuAICpzQZt+1udxrVFsPZ/clQs288BIvdjm84W+9yMvfHmtF3rtzS9+z9d/fO+nm5/3U8qkKUm2JuRSnp+BIBO+JHKymCxaxa7UCgSZdJx09neS97xIuBkIUvSBAr+89PyuFL5AkP35dcJu+V2BIPtoc8avGM1CkOIrF+J3Cy7poasT66e+7dtOp3/gHzidfsEv6G5XfuEvPD3+u37X6QNvf3sTJkqtQJDJhF/jPPI7C0EmIvEawRqt5EL25bUHa7QCQfaRN7Vfjq9B0PWPXfrx94y/vqZXqKMSLhQefY40KtSUgqJIueXiNT2/nutBEJUFRbuKxOgcGEFQJFaJgf0VoZ5mYhu4AJf8ysGRZmJLYluOmdhsaVSoo8AFr4r1aN6agSBKLmgzse3lwgiCKLlgDBLbUS6MIChyPNrkwWt6uTAbW+e0XNCubQTaM7F97GoIc4vM9wl+Sd8ic+vrt//85Z/5nrs+fvnuJ5/ZhJ+82zeBKhC9AhKNIKi+NTMq0JH9FIWenPD88trzUMr+PQjKu2dJlgIy0mzhi18TxcxffM1AUO13JraOaeak51f/iUPX7+tff3rhH/6Hm8DT3f6hf+h0+u7vfqmRtmYhSAxMkophDy6jGQgS3xSjmdydzQX7JRdGsEYzEJTbzGKlXcdW+vUbCDLh/W833f3yBL3Vr7wbFWrSp3OqnKB7r5kt1KQtbZa3cVpyDCMIisRQgSq/4HJLsxBEjpnXFGvH6fUtzcaWHJc2waC49bysxFastCkW+uCplQvG176jQk325RW4tdYLlZop1JE2tJvY9nJ3BoIisYxfP3u5MAtBZD9X74xFcqGVuyuxJTmrzWxbfldi+95Hnjx97zsunX7fuz7xpbdeqFz38/c/9vjl977/3uYkmgnZ5G1CNmD+P6MtCGqt+9HuzFUY6kFQeWsm+2l7Rl7X8lDDmncJJgZ9jTQqfGIQv+BD8S2L05Z6EFT79VPhm5Gx6EFQxp9fMRDjrv7CX2gDzsr2h/7QS429UvrvQVD8xvPWX4fV6kFQeStJrC4qF4hft5ltJsgtCCk1giB++dM3r2JRKxDkdtgP3fDi7YCyoNRaKdT2VXhyVahXUBy/fWakDbcVxCp+vb72uwJBpEjxKl7atbX8rkJQ3v0ran43ZmJTj/FKbPWtoGqL53K9UK2V2GpDbAG4eJSgWfpdLdT6NxcltsmF2u9KoU5stcOHdo2LubzOhVUIMg7aHOXCKgQZK0ou8Fu/OVuNrVg6F8orsPo6J7b2Aaw3ffjhL531Qq11Pw9fnUQFr55EMyEDCQlhgDIwM2pBUDkhe05hqBfDjhS4KVXDmpPXY47BNiOvrz1oI7DmOf93PBLznMLntfqzxa9JVVH1mpG8voagrUXl8TAjr2lBUPyabOMXUHQh6Du/sw01e7Zv/daXGv1sbUFQCZf8mmBMXudAUA2Xnjdm5+YCydH4dTzamx2zLQgqYQ0E6H/r/C0hKGuCHFcKCn9lQVkp1PbNmiCb49oqKPrx+Iy8VqHOcW8VFD9XISixT0FpwcVeCMr/tdeCi5XY6jtrgoyt4/TaFlysxJY3sdUm6Se5UMJF8mm2UGvDuUVlLuirzIWVQp3Ylq/np/x8ocR2DwQlv3pwsReCSDv8ikGZC6uxDQSR18ZvnQsrsbUPCNLWF/16od73fJlESwiqJ+QkEGVgZlRCUGtCjs6FIH5rWCM/PWebkeOKh/iVPPor/WpXYu4tfPyIQe1Xn3shqAWXUTzMiJ8SgrxWXLw+8BO/8kVfTf30T7dh5pzNVaVK+i8hSAz4tZV+bXJvDwT1/mLx3FyI3xIutbkyZjUEtWAtfrfOX89uLYx2fDVcrBRq+waCoq2C4tzw2IycmyUEUaugOOa9EERer60aLs6BoMhrHa924ncltl5fL4z2O/81XKzEVqy81rGXEtsSLvi1r8dnpP9AUCQXXB3ynM1xrxTqxDbHGXm8zoX8JdmMxLaEIBKPFlxofy8ERY7V8ScXjONKbEsIinhPLsTvSmztEwiKyvVCXzSfL1R+3o+SVZfYQFCCXk/IpbYm0ZYUJ5OPib41IUd7IchJGL81rJH/28c2I21JEscYv3zV0q7EXC18I797IMiYxW8Nl1E8zMj4BIL4bcFltAlBzzxzOv2SX9IGmXM2i6qvHmepEoL4DVyKS+nX73sgqAeXtDcX/C4X/L91rq2MWSDI5CYX/N9rW+fa1vlrry0IorqgOFfPgSDipS4o2jVhz8j+/JRFKioLivj62TrulmoIikq4SMHRrjiPJE4tCIrENn7lMLCZia2+awiKargQBz9nJFYtCKLkguPh9dKlS9f+PyP91xBEdS6Is/yaKdSJrXxoqcwF7Z4DQVENF67onQtBUXJBm/YT4xklJ1sS2/h1/LaZ2NqnhqDoi+bzhf6Zn7/yx//oR6489O6rALRVWk2aThbJ2ZqQS21NorW8e3bCC3wminpCjvZAEL89WCOPzUIQDylKtp7fPYVPbEd+VyBIwdOuWIz8xsOMtFP6bcFatAlBF7EOaGur1gfpn09j5+fWonKPrUKQY+/BJe3JBZ57cEkrY+bcAcQZO+1v+d0LQVEKisnZ5Oid9Uhe04KgqCwoWdw5ox4ERSkoJn1zhqs3I21BUJSCAj4sdp4BgBEEUQkXNrHdOvciY74FQVTDhVjMwFUPgiLtJLbmeHPSyK/9WxAU6S+xlQt8jPwmtlsQFImtnLWvmsBvT2K7BUFRckG7jm3kgUYQFPGbhf/1m7qWehAU8Wtc7cvHKLY9CIry+UK//8ZPfWGuF/rn775yw7uvxm6rrEoGiSYxnaCjQM9AUPnu2bY1IUezEKQdfQfYerBGnpuBIH7z7rlX8CLtStBR4fN8/CrQI78zEJRbM4qzdo3ZyK/nHdtI8WtCU0hHfpsQ5CqQv+pqAcxFbMXVIGOW3B3Bu8dnICi3ksR2BO80mwskD7ULWHpwSbNjJmdcWbKvHBvlwtb561UzEBSZbDNBjwrKCIIiz7vVot2ZgjIDQSTOxlLxEyN+erEfQVDk3FMgFBQx7RWUFOoeBEXGU7ut9UK1RhAUGXfHlb9QE7ueX8czgiDyvFsr2hVjc3gvF0YQFPHnuOTNKBdmIYjEiVf789uDixkIipzTgcwRXMxCUM5VbRqLUS7MQBCZA/UvvqNcmIEgsl7olgc/fvr2t77vC2+90P/jriuXWqs2Aj8mBZvgzQz21iRKJmTP592zAmnrTTg0A0H85t2zCcrPkfTrdbaW4lcS8KlAzVyN0u6o8MWvdp305TqQLY0gyPP6dPzaLdcE9TQqqJ43pvbx0zbzjrkJQZ+LtUDVdvmv/bWXfSYXRjnm+R4E1et+jNm53x0WBS5t2pVjI7+jMQusOSb72UbvbGnr/F2FIHmnQDj2UUGZhSBy3piYTdKjguK8nYUg85G2HPsILuzXi32UNUH2F4teQUmhnoGgMrZi0IOLWQiixNaxpbBugYM4zUKQfXm1tRYjl9LvDAQ5VnBlfhnlQmK7dSylxMm+XsNvDy5WIEgb2pLj/PZywXGsQBCfciK5EL+19DkDQYlt5g7txm8t/c5AEBnzt9506xfeeqEagjIhA5+8e1agz4GgekLOu2fvdiVx62Qo1YMggY3fvHvW5jkQVMIav/om/ZwLQbVfE6U+zoGg0m+uVOn7IiCI38ClcdNH1gSN1IQgt6sa4HKR21P/8r98za8JjXdxHsmYObYWBNVwKV4mavEYqZcL2pEL2uU3V2xmcmFrzFqLtG3ybe/5SzLuG29bhyB5Mioo9l2BIJMyn9rqFRSP6XMWgnLc4tUrKKsQpD256DXa5akuKLyvQlCOV2xLuBCbSN8rEMQfGQtv+vzfVsdWrBxH2VdLySceKbmQY61zQV8rECQW+ujBRWLbKuK1AkGR9nlq5YLYrkCQvCH7JxdacLEHgiK/x6/xLP2uQpBjJ7GNX1vp1z4rEOT19AW1XigQVE/I5a0DE+oeCOr91QydA0EtWEs7eyEosOb/Lb/62wtBW35TzPZA0BZckv7OgSAxiN/AJeljLwTx/8Kv//VNcLnI7dO/9Jd+Vi7shaAWXEbnQpD4lnC5mgutMWvBGjl3zoWgux782OlX33Ded4dtFRSPr0JQVMJFXVD8vgeCorqg5OrnHgiKarjI+ZlCvQeCyO/8asOx2Mdx6XsPBJFc2IILsdoDQZF2EtsyFzy2CkHRFlwktmVubKmGoKjOBf2L7R4Iirbg4hwIipIL/DomubAXgqLkAq88iqt99kBQlPVCn9fPFwJB7374U6+YkEvtgaCtCbnUHgjSjva1W8NPpM1VCOI3sJZ+aul3FYJGfj3vuRUIEmNb/Bqz2u9eCPI6fltwSfpahaAS1i7/U/9UE1wudLMu6CXpfxWCenAZ7YUguZb4lnBJK7lQjlkP1ugcCIrfmz7wodPX3vTcWRAU1QVFHPZCUFQXFGNzLgRFKShi6LjOgSAS4xQUBUS/2tXHXgiKPJbYass5vBeCIn4T28CFGJwDQVGdC37fC0FRnQv6PxeCouQCv9o9B4Ki5AKv9rGdC0EkFzxnnPR/LgRRmbvac+v4HAiiz/vnC/2am5+/Oqk98IoJudQKBAmc4rs1IZdahSAD3oO1aAWC+LQ5Qbyu51f/KxCkvZHflcIXCFKovabndw8EOT4/W/ATOY4VCJIDJax9Tv40vrW9JDFagSB/cdODy2gVgkwA4rsFl7SSC9nXpMR3z+8eCMr5Fr8ff/LpXWuCenmSgpKJdGaN1dZEGmWCBlUWuF4EBJHjUJx4dVyu5rTOj1JbEBSJtX61p6CIxVZBKzUbW3Fy/NqVIyPNxFae2YdfY+YYeko+jY4ruWAT51Fse4U6KuFCuzM1YQRBFLiQX2IgbiO/PQgicYrftDuaY2djK0YZM/krdj3NxNY5lVzgV00YaZRfn7fPF/r6W5+/dMujT3UH0YQ4gqC8e1Z0TBC9AhLNQpDgCbitB2uRNkcJnytVJnl+HeNIEm4GgkzmvGp75He28PHrBAU2fIxiuwJB8Stmxq3n1/MzEMSvWIntZ8HaV35lG1ouentJsxCkYCV3P8vvhmYh6Jlnnnk5d7fgJ5rNBbeZwVraHZ1rKxAEsMVAjpV+tQ6CfHfY6+8Yj/9MoSbP60vhcSwm4F7+jSZSMg8pOq6AZILu+dDfCIIisdYmD/K7V1BGEBQ5r+2XdkdXLGZjS44pxW9UrGdiS4q1Is2vwt7zMVuoSTvaNG7Gr5cLM4Wa9A8AtWsT257fGQiKkgtiG79bGkFQ5BzV/8x3063ElnjVZq66bfmdjS05B7TJ8yh3Z/PLVaHr3v+x0+986wOvznqhrb8OK9WDoHrdj4SbmUxoBEHlrRkF3WD3TuJIm1sQFFgzIPya/Pw+I156EBS/NkXSCTXyOyp89a0ZBWpUoGkGghw3r/bT7kxsnfi9olLemuHXWHyWvumb2tBykRvQekn670FQ/NqH39bC6JZmIEh85a59xePcXKDA+0ouzEKQ3Oa1lbufgaDHLn3f2+94eYLeyoOVQm1f7WWC7hWU2YmU+NOmq0Lx25LjnIUgUsx42FqMHM1CEIkTj9rNdhGx1TdgkSsKVQ8uVmIrVmDFlabEtuVHXOw7W6j1r00/e7mwUqgTWzHTbi8XViFIm86t+BXDlt9ZCKLkl3PcT1vL72psHbc6bn/HyG+rRq3E1j7Jr1x12wLj1XP3J2648/SDH37ic79e6BwIKifkvHvOwMxoC4K0ow3tghmFyTvfHoCU2oIgfgNr2jJQBsY2I55aHmq/EosHsRlpq/C1FpWbVAHITOHrQZDn+HXy8iu2TogZ8dGCoNY6Gt7F4bP0zd/cBpeL3IDWS9J/C4Jqv97dmhwuAoLkU+KrzXNzgWq4zC3RGY0gKH6Nq1j5vVYgyO2wH771xStQJrStgrJSqO2bNUHipd0UFDlfymMrE6mCqk2TtNfZ6nNiDwRdG4Onnzj9pdv/3uk3vvFPnb7+7//np3/urX/i9C/87J8+fdPP/ZnTN9/035/+l3vffLrtvXdu5kkpcVKYjEFui2zBxUps9Z01QfZPbFswtBJbsRJb7fZyIfXAGMxIO84tqnOhhItVCBJb3sQ2fm213z0QlPOK3y24WIUg40/JBV5ruFiNbSCItON1xrDOhT0QxCc/vdxdPXfF9pHHn/zcrxfaA0HlhGzyKItyBmZGLQgSKH0pzpLMcwoWD3shKH4F1nPxq2392WbkuGoPLb82Cba38LXgMo+fA0Fe5xi0y+/Ltzpe8jAjx1hDkNeXsBZ/8oX/z9L3fm8bXC5y88WsL0n/JQRt/cWiOMjncyCohkvxzWSzNxdacGm/7DujLQjyeOmXx63z14jWa4LqglLGY6VQ27deGJ2CwpvnjQ+tTqQmecftuDJBm7QdY7xpewWC3nnHTaf/6Of+4ukf+PF/5/QL/t5v626/8Mf+7dO/966/cHro2f7tdl4cr4JE/Ca2dUFZia0xqRdGi612a7hYia1YiS2fVOcCv5R80ueMvDYQFCUXSrjYC0FRckF/JVycA0GkHX5ruNgLQVTmbpkLq7EtISgSPzEowXgvBEXiUecurZ67ZWw/p+uFViBIcAS+npBLZWBmVEKQAHldJuRMerQXgup3z9oolX5tM+IvHkq/jqP063eJuVr4enBJ50AQvzWsRSsF1WsDQfHLawlrkQR+BQQZgxa4XOR29YSOSgjiV1wca+1XPPZCkHbkgnYDP4nv3lwYfbxE9p2RNkoI4oVfW+136/zV89bC6EzQQMZr5Ya8OweCyGu1V665sH5tZSINBEXJV94yQYvHLAS9/iPvOv1ffuLfbQJPb/uHrvtdp+++7w0vtfJKOdYSgiIxMc6O2bHwuxJbeVNDUFTDxUpsxaqEoCi5oB3FXG7Zd7ZQe10NQeRYtRG44FU/md96SmxTjCPe4ze5IF7nQFDEl2MJXJiL90JQpJ/kQoBmJbYtCIq0Eb/mBMc1E1v71BAUlblry+8zMhat2H5OPl9oFoIcQBbQ1hNyqa1JtCXFyaBI+sBPOSFHeyBIewp/z69+ViHI4PjZ87un8CnAPbikPRBU+q1hLYqHGfGmPccdv1vHKYFfAUH0ufzAxN/2217q5EXpXwzk5RZckrjsgaAeXNKeXNBOinUNa9HKmJUQ5BzyOn7zrrrU1vnLwRYEkdeZ7AMX+pgt1CbSFgRF4pEJWtxXJtIagiLHzqO27GNrHXepv/D+H2sCzsr2h+78Gy+19tnagqBIbHJLz36zsRW7LQiiEi7EV/utOaKWWHmNca/lsRIu7DdbqPXfgqAocKFtxVdNGmkLgqISLixIvggIigIXxsAaMiA/0hYERSVcWOw8ytuoB0ERv47ftlUvSvUgKEou2I/nmbw1Vr3Ylp8v9BVvfOo7zrpFNoIghdc7UyegALYm5FJbk2gt7dhPu1swEa1AUEBBu/bv+dXfLASt+PX4TOHzbt8+EtoE5KTq+V2BIG3xCoRGfrXHw0jGIeAz41cCNyHoahvXPsunBTHnblcn3Ihf/fNr6/kVmxUIEtvAe2+ymM0Fyl+SOc/87L1mdswob2L4lT/isOV3LwRFgQtQMztBjyAoSkExmTpnWwW4VA+CIn0ay0zQvLT0ne/7u02o2bN96+1/9aVWP6MRBFHgQnFIbEcFxVj3IChKMbPxMCrW+t6CoEjczROOi98tCCllDHoQFDmvec1fvfX8jiAoElu3gXjlY7S/2I4gKEoc/Gy9+Sg1gqDIfCUG4MZrRrkwA0HEn7G1JRe2/M5AEGVeEVs+xLbn1/Oj2Pp8obuf+vTpT976yUf81eru9UJbEKTgMp6iJ3gzg52D7SnvnhVo+46K+gwExa/gBVRGMrAzEBS/2vWzl8Dk+VHh4zcApN1yHciWZiDIc2Kaoued0sjvTEG1T4qprV6w2pJ8aUIQfS6+Sf73/t5rTde3krau/pQSoxkIMmbiazIDQD24pJlckN851+SCiWfkd2bMSAziVxxGfrfO31kIipx/JjvFpAcXNAtBZA4wkSoojsdrt47HXDCCIJLLzhVttibon/74nU2YOWdzValUCnUPgiJxSmzjd0uzEETmuQCAfPH/LbiQIyMIIs8r0MkDW8+v52cgiC/AwscILmYhiLThahAI4aUHFysQZFy1Zy4YwcUsBOVcFQf7j+DC8zMQlNjmTYfYxm+tWQgi+cSDeUu7vdz1+Exsxe/GD3z49CPv/dD+9UI1BJUTMrMG2nYRECQInsutJEFWJHuTMvUgqIY1+2nzIiCo9OvdvpNz5mqUdrcKX+nXJB4QuggI4tc4OXbtl2uCeuoV1PjNrRlx4GHrRCvVhaCruvybflMbZvZsX//1176hnt/EVN/Gj+eRjJmYbUGQGGlLu+IbwByplwuk3cCa3JrNhREE6Y/f5K99twpaqa3zdxWC5J1JTExzKVy7rbxZgSA5bgLVjmJRrheq5xET6QwEeZ38BqDiVE7Q/gLsl7zh32+CzDmbRdXlYmnHMwtBZWzj19YqKKsQpB2Ssz24MJazEGRf7RnfEVx4bgWCxEI72t+Ci8R2q+CWcqz25Tt+t+BiFYIcM/HsOLfgYhWCHDsPde7W8vgKBPFJ2o9fOVL6tc8KBGmH7F/mrliW4n8Wgpy71+JwNRWtF/q2915+6Be98ZnvfAlxxgoE9RZieuwcCMqEHPjJu1HFaS8EBdYEtvZ7LgRt+fXYXghqwSW/KWbnQBD/8ZtbM/o+B4JKWPOc+BPf50JQ/H7g0qXTM//Kv9KGmpXtKgA9f7XN+HVSlLlwLgTxG7h0/PY1Uft9pFYuUA2Xq7nQGrMoMMWvSV17cmPv+UufePaF0zfsgCB5kuP0/1ZBse8qBEXGIBO04y4naP2sQFCOu5yg//Of+e4mxFzE9m03/ZVrfVMK9QoEJYYp1vzWcCE+eyCItLMFF2K1CkH5f/y2ckH/qxAU+T25UMJFYtsCg1qBoEjuJBdquBDbPRAUbcHFHgiKargo/e6FoEg/YsNvwNg+eyAoSi44/x1LcoHvVQiKbnv6dPqqtz7/oZcQZywQ9N6nX7g2SQteJuRSeyFIO37PhFxfit8LQQqI/2vXY7Vfbe6BoJFfz61C0Oxf+eyBIO3zVMNantsDQT24JP/fC0Fi0PR7xkLpK7/9t58uXz3GGi4j/e+FIDGI38BltBeCarjM47SSC+WYRaXf8jaouO+FoPi988GHT7/m5n0QFJk4eTYRKqCZoO27F4IiMS4/vNCxa38PBEUf+uiDp1/0Y9/cBJiL2P73P/pvnW69/65rRUce7IUgMkYtuJCjeyEo0p/HS7gQqz0QFBmT5EIJF/6/F4IifcWvY/I5aHshKGrBhdieA0ERvyVcnANBUXKB14DxuRBE2tFfwNi8eA4EkePQllgmF8xXeyFIpv+Ktz336EuIM9avv/PKpbfc/8i1hsriUcokugpBDthPRUiyZEIutQpBAqV9QfK6Lb+eW4UgW/1uv5bjWYEgRd7k5uTZ8rtS+AJB2uTF61qwRvZZhSA/A2stuCSxWYWg+LVt+f34j//46dlf/auboNPanv+qrzo9f/U18ctXy6/+VyEofl8Ba4VWIUgs5O4WrFHGYRWCxKDn1/OrEFRfufzgw4+cXnfTed8iH5kw3XpKQRGfcyGIMkEHJuT/ORD0uVgLVG9/7m3/87Xip/9zIChyrMZLjBQUtwvPhaBIbD3PryLpdznSU/LJa1uq4cJ2LgRFyQUx8HPLQ6ktCIpKuLB+6iIgiEq40Kaf9ZxTaxRbz8evXLCZB0aaia3nxIDP2bwd5ZfYl7kLrvacu8sQ5AtU3/2xR5sFJDKJzkKQSdMElwm5VyxnIUjxF2QBsm0VvGgFggBV/Nbv9msJ9AwEKaJAweD04JJWCl8gyCTh+MRhy+8KBNmHhxFckj5XIEjMRnBJYi9WL7z5zafTt35r+4tWrz525Vu+5fTJ17/+2r48j/yuQlDWhbRgotQKBIlXD36ilVzIvuJr6/ldgSCLhOVNDZccX1sTdP1jl37i0vjra+TUVqGmcoI22ZlIxWik0URK+rSPNrXtNT2/nqsnUvLn7C1wucjtt737O68VsfgVe0Wop1FsKXABLhUUOTjSTGyJ3yxOH8V2VKij5IJ2FdbR/DJTqEk7+uYVvHldz+8Igii5awz4nZkPRxAUOZ7E1mt6uTAbW+e9XNCuzTzf02xsKbmQv9Lr/cHMbH6Jrf61a//ePNs6d5chaPQn8jQDQXn37CRWIHoFJBpBUH1rZlTwIvuNICh+eXVsM37t34Og+JVkZQHpabbwiYH+FekRrNEMBOVWR/wa55Ec08xJnzET3xm/gaDefvw6yRR0sZjNhRkIStHgwTGO/M5AEL+uLGl3Jndnc4HymV3y3MTd8zsLQfxqV47Vfv0Ggvwp6v92090vT9Bb/c4UapJ/ly5d+qwJuvea2YmU5EgmaOftVkFxDC0I8vUXLXC5yO0rr/+PrvXlmHlNse6N6WxsyXHlXXVui2xpNbbaBCy9XJgt1GRfXssvD93yu1KoE1ttim0PLmYgKHL+azOg2YOLWQgi+7l6Zyz4NS4tvyuxJXHVZrYtvyuxtY88cCta3MwzHmvlwkp+8Zb8qtcLlWqdu58XCDJhZkJ2oKWhnnoQZELOu1H7aXfmKgxpcwuCTOz8pTDF84y8ruWhXvejoBoYIDLSqPAF1iQX+FB8R8WUehBUw2WugMxoBEFiEL9+yputybxUD4LqWzNOkJVc6EFQ8tWm7a2/DqvVg6DAZfxeVC5Q/BpbYzYT2xEElX6NrfZrBYLcDvvBd794K8sEvQUX8m62UNvXBJrbDCa+rQna8a9MpNqSg/V6oVL+X0+k9No3/4EmuFzk5q/ESJzEgFdFrQcXK7GVo4qI8c9tEXFpvXYltmLFY16zBRfyyr6zhVpbfDoP/L4FFyuFOrHVDh/xy3vtdxWCjIM249fW8rsKQWJA2uaH3xqMV2MrlvIrV914bYHxSmztA1a0qR1+tv5ic/XcFVvH7Nz0eyt3W+fuqwpBDkrnCo2EYCgDM6MWBJUTskAqDIogD+dCEL+Ow3P8attjthk5rtoDvwqck0C/2nQ8EvOcwudx/XmOX1eqXAVRpDw30hYElXDpWLQVDzMStxYE6a/2CyjEZEYtCGotKs//z4Wg+FUc+HWyOcHOgaAa1jxvzM7NBXLMpd+VL7312hYEtfwmLrVKCMqaIMe19U3qK4XavlkTZAN3KSj16/WzMpEq1I5bO/y24MLPFgR9Lv40vrURf4odbyQmjrMFFyuxNaZZEyQOxlm7LbhYia1YiWXGXGzjVzvx63n7en5G2nBukVyIX1vpd6VQJ7bl6/lpwYXfVyEo51UPLozhHgiirdxdjW0giLxWWy24WImtfQJBkbgkF8rcXT13y9gal+SCOGQsW+fuqwJBDkanmZDLwc7AzKiEoPrds0Cm2J8LQaVffSbh/fScbUbaiIfSr0EowUS7EnNv4eOnhLX41edeCIpfyRNYi+JhRvzUELTlV77shSB+HQNfpd89uVBCkHaMo3b5zW1Qm7HcC0Ha5avOXe2ekwuBElvpN/vOqIag3l8sbp2/nm19TlAm6BTwTNArhdq+gSDiIQWlnqDl2spEGgiK9FVP0Py2IMitqha0XPRGjq+EoEhs49ex87sSW2NbL4zegouV2IpVCUFRciFw4U2AfT0+I/0HgqIWXKwU6sQ2xxl5nK8SLvKXZDMS27JQ01buan8vBEV17orvSmxLCIpKuIjfldjap4agqM5dnv1/RnzUsSX9lG+S+H9VIShBD/y01tFsTaItpfCZ6AWpnpCjvRCUArLl1+/6tc1IWzw7xhasRdqVAKuFj4/4LWEt2gNBxqz0K4614mFGjjcQNPK7B4J4jV//v4hc0Dbx24I18vseCApc8lrCWrQ3F4hf7fJrHEu/K2MmXoGgLbiMHEvr/LVXC4Ii+ZAJz2RnfPZCUMQLn9rNBK3dlYm0hqConKCNo5/1cb/aa4JaEBTxG7jw+zkQFNVwsRJbsWpBEPHFo+flrzVf/j8j/dcQRPop4UJeiME5EBSVcKHdcyAo8liZu24RnQtBUXJXm/abjW0LgiKxjV/HbzsXgiL+tCcPtF/XiZa2IIjKXNC3tstz93MGQRLTtgU/0dYk2pITXuAlnxOwnpCjPYUPLWq759djCo1tJO+eHZeTWrtOgC2/2jXwK4VPbHtwSSsQhOZz/CO/8TAj7fA541cCz0KQXBBfyd/zuycX+NS2ny1YI4+tQpC2ApdbY70nF3iO362vPVkZM/EKEG/BZbR1/tq7B0FRJuhMUN5Zj7QFQVE9Qfs5ox4ERZmgbca0jPU33/TfN8HlIjegRSMIosCFuCa2rdwo5Tzq/Yl8WVCycHYGruTIFgRFgQvHZY43J41kf+OwpcCFY+K3lau1RhAUJbb2VRNGfsV2q1BHyV3tOraRBxpBUMSvBd9iK9ajXOhBUMSvcbWv2I5yYQaCSDvata8cF9ue3x4ERXLP8Wiz/KOKC4cgySAYEpP5UaBnICjvnhV0CbI1IUcrha/0K0l7fj03A0Hlu+cZv9qVoKPCpx1eAZuC14NLmoUg+yl22uVjtL/nHddIpV+FeuR3BoJya8ZxaXcLfqKVXBD/5MII3j0+A0H655dXk8/I72wukOPSLmAZ+Z0dM35dWbLvjN+t89crZiAoMjnlL7OcX708GUFQ5HnFT7sKxWiCnoEgMjZiY99ygv7eD765CS4XufliVkqh7kFQBIwT2/jdkvHuQVAkRtZ3aVcBHBVrOTKCIPK8WyvaFWO50PM7gqCIP8clb0ZwkdiOjonEideAm/9v5a7Yjgp15JwWV15HuTsLQTlX61zY8jsDQWQO1L/YJhe2/M5CEBl7XsVAbM3hW7mgz5nYOla1M3kgJ2//0IMXA0EMC7AObH6fGeytSZQCP3n3bD9FsjdB0kzhK/1qWxEZSb9eZ2up9OvdswI1U3y1Oyp8+pSQjt9JX64D2dIIguJXAmm3XBPU00xBjV8xtm/v8yAi+dKDIH7FKLkgxheRC44nPpMLo3Y9P4Ig7epbm8ZMMRppJhc8F7/adWwjv6Mxq9f92HrFJ9o6f1chSN6ZxBx7ivvWBD0LQWSMTMwm6dEE7bkZCOJJ7plEM0Hz+8AnP9YEl4vc7nriRehZgaAytvHr/GyN7ywEkTbEVK4kFmLYkhyZhSD78ppc6MGFPmcgyLGCK/OLXPC6LbhIbLeOpRRf9vUafmswLrUCQdrQlhwf5e4qBPHJS3IhfmvpcwaCytgmF3hvxW8VgrRFPG/9UQXpaxaCnLviwIMaff2Nt5++8g2P7YegTMhgIu9GFWjB2wtBeffsYAXVgJnE3U4Q6NbJUKpX+Fp+eT0HguI3sBa/+jkXgvQVv44fTOjjHAgqYU1bYqXvi4Cg2q8+eGidvLW2IKj0m1sz2r4ICOI342/c/K7tkfTLTwuC4pc/x8OviVr7I/VygfjVLr/57J+ZXOiNWQmX/PJp/PaevyTjvnEHBMkTW2+CXoEg8dKWY3F8fk9BqeWxFQjKcRuv+P2WG/5SE14uYvNBiZEYrUJQzkF+t+DC2K9AUIpUirX/t+BCrFYhiLTj9y240N8KBImFPnpwkdi2cqRWICjSfnKhzl2xXYEgcaRR7u6BoKjMXeNZvlldhSDHToEL7dryOPl9DwRRckG8nX/aSi6IySoEkZjc9dDHT7/s+sf3QVDILzARQ4rOXggyISss2lW4ygJ+DgRpRz8tv9rcA0G9v5oh/e2FIL97fQlr9ksx2wNBW3BJ50LQll997IWgLbikcyFIDOJXW2lH/3shqIQ1fsvxPBeCSr9Z97OSC60xK/2KZWIrXudC0Ac+9ujp62/dB0FRPUGnoNh3FYIirxGHTNBlQfH7HgiK+P3Jd77l9At/7N9uQsy529+5+U0vxyeFeg8Ekd/5reFCju6BIJILW3AhVnsgKHIMyYUSLjy2CkGRcU4ulHCR2Ja5saUagqJW7ortHgiK6tzNfHIOBEUecxzOezGSC3shiMpcAD36FVf77IWgSDuOubylZ97eA0G0a03Qux/+1LVGdGwgNFxqDwSVE7IDy4Rcai8ECSY/inPLrzZXIYhfhUpSen3Lr+NahSDteJ12S5iIUsxWIcjvgTWear/63gNBI7/ivQpBI7ikvRDkOPmtYS3S/yoE9WAt2gtBvG/5zTisQtDIrz73QpBzw/9vuOf+09feeDHfHZYJWkFRdGx7ISjKBO05E6p+z4Ug0s5/cdPfakLMOds3v+O/+Sy4EK9zICjynBgELuTYXgiKxE9eeS5+xeocCIo8Hr/pfy8ERTVc6P9cCIrK3NXuORAUJXedA9q8CAgi+VHCxTkQFOnTueK4taftcyEoKnNB//J2z7m7DEG+O+wn737xZGmdVGQSnYUgk7ri2ysg0SoEOVCbCd1rt163AkF8ZhPMLa+k7xUI4qMHa7RS+AJBCqoTWvtbfvdAkCQd+fX4KgTxov2e31UI0pbx0C6/NfxE9luBIH9xo/1R7q5CkNgmf7f8ruRC9jUpjfx6fhWCarh86LHHT19383MXAkHkcXFRSPVjIp1ZY9WbSHlPQTFB2+9cCIp+89v/yybM7Nm+/m3ffnrmheeu+TJufPJ7ERAUpaA4fu3K7ZFGRaqECwtcjZmY95R84qcnz/NpU7hb53KpXqGOkgv8alcejzSCIBJ3x2Q/MRC3kd8eBJE42ce4JrajOXY2tuaF5JjbWmLX00xsxanMXTVhpFF+Rcld8e3VeWqdu8sQ9PW3Pn/plkef6nZkEh1BUN6NOgCB7hWQaBaCDIqA23oFL9LmKOH5NdGb5Gf9CvQMBGVtRwpIL5lnCx8AknjAhl9j0tMKBJV+R0knTjMQxK9YaXcEl7QCQQAQhIgtP6NcmIEg987ty6+fI78rECRe2uXXGG75nc0FMq72nfG7AkHyRn7Fb841rVsY7bvDfuw99w/Hf6ZQk/0y4elzNEHPTKSBC++sFZTRBO34RhAEWqzhaUHNygaAPvncZ4+DYu3db/5yZnTFYja25Jjyjr2XezRbpPhVpPlV2Hs+Zgs1aUebrgAAArmw5XemUJP+AaB2bWLb8zsDQZG2tFnextnSCIKi9F9+f9qWVmJLvDonctXN61uajS2Z43nlWe70YjubX+S4tWnr5ULr3N11O2z773de1AiCFLys+2G+N5mUGkGQiV1b2lXQDXbvJI60uQVB9a0ZATQ4M+KlB0F592xTJEeTDo0KX+CSR/spUKMCTTMQFL8BqxFc0giC4tfEw6/2Z/zOQJAYaC/jNpsLPQiSu/zaR7szwEQzEBS/Jh3xODcXKH6dZ/adie0sBPFrvxxb6fczEPTYpb/1c7cPJ+iVQm1f7dkyQW8VFM/NTqTmLG2a+Htw4ThHEBSd883yPncITLUkTrwCAF57cLESW+MIWJzfrgr1CspKbMWKV20mF1p+5Kp9Zwu1/rXpp1zYgouVQp3Yipl247elFQgSW206Z+JXDFt/OTsLQWQ/7Tm//bS1jnM1to47H1zpGOW8dutcWImtfbQlv8rbu61cWMkvbYituTCxbeVu69x9VSEoE7IJnkETcgZmRj0IErDcmnGlwm2KmaswtAVB/Cr8kss+Bko/thk5rpYHx+057ebdvvb1NVKv8PEbWNOvkwuAzBS+HgTVfsVWks1oC4Ja6378Lg4z6kFQYM1koz2xWMmFFtjUsObdrcmh9ddhLfUgyHHHr2Py89xcqP36aeKZET88bEGQ/C/j6/dagSC3w/72TS9egcoE3Soo8m4FgrImKBO0fGy9iVidSBVUbea2SAsuWhNpT//rTT91+mev/8+aoNPavvr6bzv91MdueenVbfHkuJ1buY2zVVBWYitHsybI6+qCUmoltmIlttpNLrTgIvVgtlBrx7lFXhO/vJV+VyFIbHkT2zJ363N4DwTlvEruOo/4KnN3FYKMv9glF4CsOJZjvhpb46Omknb0U17Fit+V2NqHNz75qXOh9Lt67taxbeVC69x9VSCohB8HLRlSmDMwM2pBkAP0eonkec8pADzshaDSr4DFq7b1Z5sRX7WH+NWnOGjTZtD2Fr74lQjajV+PnwtB/AYu4zceZuQ1NQTxpT9tlH7li//PqAVB2hFb7fKbK1WruVBDkHa1oV3t+L925cc5EBRYs8WvOJ2TC1uLyrPvjLy2BUHx67n4zWO1jGj9OUGZoE1ONVzIuz0QRIlZ68qF/F2ZSLXhuMUwfusJWtsrEORYxf6nP37n6Vtv/6unf+Snfu8rwMeXr/6HN/+l0/9y83WvyJOWeFFAHS/xrI+yoEQrsdV3ICjaKigrsRUrsRVXEtv4tcWv5+2rzxl5bSAo8lqxKcF4pVAntmUMkwvyjr/E8hwIIu1or4aLPRAUiaH81FeZu6uxLSEocgzJBXMhvyuxtU8gKCpzQY4k7qvnbh1bqnMhsRGH6HMKQYKjUwfjIDMhl8rAzKiEoNaEnIlvLwTV755rv9p3LLYZ8RcPXlP6LSck7Rqs1cJXw6VjLnUOBJV+A5fRSkEVw0BQ6beEy0gC74UgfmtYoz25EAiKXyeYx+tcOAeC+OW/9uvnnlygLbiklTGrIchr5YLX1+fa1vmr59aHJdq/BRcrhdq+JQRFHs8EnYIizisTaSAo8rvj1kb8OvZ6Iu0pEFTLOMcvnza/l3myJXEqISgqC4qN35XY6ruGoKguKK64z8ZWrEoIipIL2hEnuWVffc3I62oIIseqDX2KEa/6yfzWU2IrdqV411YJF+J1DgRFnnMsYmuuMhfvhaDIGCUXxMH8uBLbFgRF2siHF5oTZmNrnxqCIo+5Ws2vTRz8nJGx2IptmQu88lyeu58zCDKIOSEdTDkhl9qaRFtK4ZP02q0n5GhP4TPpe412JWTLr34yWc3IcRkcP1uwFvm/QVopfAowHz2/eyBIWyO/8TAj7TmRtLMFl5EEXoUgbcZvDWu0JxeMmbyMX6+vpZ89EGTMen735IJ241dMWrFdGTPHy5/x4LcFl9HW+ctBC4KiGi78fi4EReKnXZOdnF6ZSGsIijKXactmv9Zxt7QFQRG/CqmrAdoV55FSqGsIivgNXGjzIiCIyoIivtqvc6IlsfIa+VLLY/ErF+ynjxnpvwVBkeOxj7YVXzA0UmIrH1oq4SKLfGfEy1ahjhw3uDAGfrbiVWsLgiKxDVxY7Dwb2x4EUXLB8Se2o1zoQRCVubDy3XQ9CIr0rb2ca94k0YVDkMLrnakkmSnAW5NoSwqUwdyakKOVwsdv2vWz51d/qxAUvy2YiDwumWYKXz4xOu8Yen5XIEi8eDWhjPzOFlS3ZgIS/BqznhcJPAtBGbMerNFKLthXu/zaen71tQJBie3I70oumBz4NFGN/M6OGYmXfeO3BWvR1vnLRQ+CIhOevkCNCXpmLhhBUFRO0ArX1jFEPQiKMkFrU/GZmaBHEETakXtiIOYm6J5f+zu2LQiiFJQUP7Ed+ZVDPQiKUsxsPKSgbEnfWxAUibt5wnHxuwUhpRxbD4IiseVV8TN/txYjR4ntqH+xdRuIVz7ErifPjwo16T9x8KZGrHu5MIIgEnfzlRjM5sIIgiK5ktgmF7b8jiAoEqOV76abgSDiS2y166dcuP+xJy8GghTcBNoJbxudGLQ1iZZi1D6S3Tu7XiGlmcJX+1WYRhLAGQiKX4VPEvUSmDw/Knzxa7C1W64D2dIsBPHLp/hqf+R3pqDq2/HYT7u9SSeSwCMI0ndywQZCen5nIUi7Kf5bV1NK6XMGgsQguaC49eCSZnIh636Mm3ZNPCO/M2NG8WuCEIeR363zdxaCIuefyU4xGcHFLASRcTfhKcCjCVrujyCI5LLc4zcTdM/vDASRdssJugcXKdT2GUmcEttRQZmFIJJ/vGo3BWXLrxwZQRB5Xry0ma3n1/PGYiS+AAsf4uZc3IKLxLbXbyROrlgEjLW/lQuzEETG1bGJxQguZiCIcq4mrqPc9fwMBJWx1a5ccN61cmEWgkg+8eDcieetMfH4LASZ13jNm6SfvfN9p69+yzP7IUiRyYTMrIG2Cd7MYG9NopQJOe+eFXRFsjcpU6/wxW/gh1d9XAQEebz06+QcFV/S7lbhq2FNe35eBATVfgGmJB2pV1BLv5LNVQQeekUiGkEQv/IquaD9c3KB4tdJpG/x4Hkk/Y4gqPRrYpi5FN/LBSrhkt/ZXBhBkOcdu33kg59bBa3U1vm7CkHyziQmpib03gS9AkHGwOTpNZmgt+BCfzMQZIzkHp/ipN0eXKxCkDlJDsSvY6j9plDPQFAZ2/i1tfzqewWCtEMpKPx6bX1eypFZCLKv9oyvGBtrj7VyQf8rECQW2tHeFlwktlvjWcqx2pdvOSHOW7krtisQJG/I65ILLbhYhaDENrlgXFrHugpBYkvaL7/stIytfVYgKPmVXPB/x1vHlv9VCCLt3Pahj+z/AlUTsiIgmAYnxVbROQeCyglZAcm7UcVpLwRt/dUMaVM/I+nXwNhK1bAWvx7bKr6l7CtxysLXgkt+bf5/DgS1/NrOgaAWXNrPz3MhSAziN7dm/DwHgkpY49c+pP9zIajl10QtFiO1coFKv457NRdaYxbxG1jjUXu87z1/6RPPvrD7C1T1y6sJrwUX9l2FoEhs/b8FF/pZgaAcd1lQbLXfPRAU8duCC3FahaCcg72Cou89EETa4VcMa7gQq1UIyv+1tQUX+l+FoMixer3Yxi8ltvU4thQIivw/uVDDhf72QFAkJi242ANBkVxwNZlfWxnbvRBEW7lgnz0QRPwnd+tc8PseCCKZ/trV22HvffozBS8TcqlzIMiBlxNyBpr2QlD97rn2ew4Eea12S/iJHNceCOI3sOb1pd+VwldDkJ88tfzqew8E9eCS/H8vBLVgLX73QtAWXEb63wtBPb97IWgLLinjsBeCxCB+A2skXnshKLB254MPn77u5n0QFG3BhX33QlAkxjVcaH8PBEWZoPVXwsU5EEStgiI/9kIQGaNWQdH3XgiK9OfxEi7Eag8ERSVclGDs/3shKNJX/Dom5+1eCIrEtoQL/YrtORBEyYWMveM6B4JoKxfOgaCozgXzzF4IisSvzgXbORC0tCbo19955dJb7n9x4XM5IZcyia5C0NaEXMrjilTruVIpfIKu/S1Yi/ZAUPx6rTi0PHl+BYKcfPHLe8vvSuErIYjfLbikPRA0gkvS1yoEaUfstFvDRCQXViGoB5eR/rU9kn4DQTN+90CQXIjf1rnm/55bhSBt51xr+dXnKgTVsPbBhx85ve6mi/kC1RouxOJcCKIUlMCF/D8HgkgM6oJyLgRFZUHR/zkQFDlW3lJQ3CI6F4IisY1fRZIH8ekp+VQX6khs4zfbuRBEyQUx1b+fWx5KbUEQlbmg8PN6LgRF/Ca22pS39ZxTaxRbz5e5cBEQFCUX+JzN21F+lblgbZoY7zl3lyHIF6i++2OPNgtIZBKdhSBFJItGtwpINAtBip0gC5CtVUBKaVPfI+nXpFb6bU0skUDPQJDJDygYnJHflcIXCIrfLbikFQiyDw8juCTHsgJBYtaDtWgFgrSTdwtbsBatQpD9Z/yuQJA2fSq3GPf8ruRC9hVfP3vn2ioEyZsa1ji+tibo+scu/cRd48X2vUJNZUExOZtIxX+k0URK+raPNk2kXtOTY6kn0lpiJx6ZoBWJkUYQFKWg8Cv2ilBPo9hSCgq4FF/n7EgzsSV+xYBfudrLhVGhjpIL2vVzNL/MFGrSDvjg1Vh4Xc9vD4IixyRfwCW/M/PhCIKiMrZqTS8XVmIrF7RrfM2bPc3GlvQd2Ba7Xmxn84vfxFbMerFtnbvLEDT6E3magSATJSOKg60HP9EIgnJrRnANYq+AlLLfCILy7plXxzbj1/49COrd6thSitmo8MUvAOoVvGgGguLXSTHr1z4zJ72E16b49mAtmoEgEKiwKOjiIC9HkgszEJSJQsxm/M5AEL/eFGjT2F1ULpBF2fYdwRrNQhC/2hLb+lzzGwjyBao/fPPd1yb13gQ9U6iJJ99nZMKzjSbo2YmUxFybJmiv2/IrdiMIiuSJApXPPOn5nYUgEideU6x7BWU2tuS4FCkwOCooq7HldfSXTrOFmuzLq9j6KbZbflcKdWKrTbHtwcUMBEWJLdB0RaSXC7MQRPYDAeV6oaef+/TpbQ9cOf23N51Of/rtL25/8mdfOP2Rv//06Tve9tS15y6/8FIDGxJXXo1xLxdWYmsf8eI1V2C3cmElv8QyV9t6udA6dz8vEOTg8u5ZAZmZTMi+WxBkQlbITfT20cfMVRgaQZDn0679tD0jx7XlIQVPuxLBwPA/0qjweV6/9gEfiu+omFIPgup1P6BN4ZvRCIICa4qun/JiazIv1YOgwJpx4tcJsZILPQiK38R45gPCqAdBNQwbh4vIBRIDXrVpzGa8jiBI7pZ+tV8rEOR22A+8+8U/ec4E3SooK4U6E6krANq1bRUU/a1MpCZmOdiDC/+vJ9KeFBBe43eroKxCEI+8AoZeQVmJrb4VPj68pldQVmIrVvHoNdqP31Lyyr4zEETa0q48zO+tXFgp1Imtdvgo4YK/UisQJLZiqk3nIr+2VmzFZgWCcjXs7vseOH3Xmz9y+jd/7IXTb/3RK93t3/rxK6e/cvvVY9hIC2Nv3spVt61cWImtfcCKNv3ey4XVc1ds8+bU6+K3VOvcfVUhyEHp3ASbd89J+hm1IKickB2cwqCo8HAuBMWv5yWwtj1mm5HX1h5KvwZem47HiXFu4eMrcMlvbrN5zUhbEFTDpbbiYUZ8tCBIG+KjHX5dqQKF+pjRFgTxG1gTe7FezYUWBNV+TX5OMJ5n1IKg1qJyY3YRueD1/DrX+F350lt+WhDUunKZfmqVEJQ1QY5rCy7k3QoEZU1QJmiTXgsunBMrE6ki6ri1w28LLvxchSDxErteQdkDQbxRr6CsxFbfWRNk43uroKzEVqzEUgxIbONXO46dPG9fz89IG84tEtsSLsq5bC8E5f/JXeOujeTCHgiSX6NcMIarEPTOj1w5/XtvaANPb/sdP3nl9FP3XXmptc+IL/WEeN7Khb0QFNW5kNxdPXcTW9J+/Nrit3XuvioQVE/I5a2ZJP2MSghqTciKAp0LQYJf+k1y6tdzthlpIx7qd8+lX+1KhL2Fr/QbuCR97oWg0m/gMoqHGTnOGoL4LWEtfuXLXgiKX8mujfjdkws1BLX82sRmLwTxK+biWPrV7jm54DG54PHyXFsZsxYEeb3HtVHm7tb569nW5wSloNRwIe/2QBDxsFVQjN3KRBoIivSVCbr0uweCIu37v3bLgnIOBEWtgrISW33XC6PrghJ/K7EVqxKCIn5LuBAD+3p8RvoPBFGZC4qtthz3SqFObDMukccT2+SCNxd7ICjit84F/axC0He/7YEm4Kxs31N1V0JQ1IKLldjap4agKLkgvvLPVXZ9zIiPOraUXNCOOJlXX1UI8lNnglZOyKW2JtGWAkEOpDUhR3shSLu8tGCN/O7Et81IWzw7Rq/Z8qtdCbBa+EZ+90CQuPHbgrUoHmbk9YEgMYjfEtYiCWwsZhQI4qX0y3+pcyCo59fveyCoB5e0NxeI3xZc0sqYiVcgKH55LWEt8pwY1bJXC4Iik6GJKQXF+OyFoKgFF2KyMpHWEBQZk/gVWz9bx91SDUFRXVCMXdofKYW6hqAoBcU42uccCIpSUMTesRuz2djavwVBxJcYWS8kz6z54n9G+i8hKErOOm65IM5+PweCojIXHNc5EBSVuSBOYjELQX/5Zx9qQs2eze2xqAVBUQkX/M7GtgdBJPbiq03x1X5dJ1ragiCSC/HrmLRdnrufMwgyoLbWhFxqaxJtycmsUAtOa0KO9hQ+J1L8tmCNPGZStc3IcTkRtcvLll/tGviVwjfjdwWCUkAUez+N2dbr4mFG2jER8+tnzy8PsxAkF8Q3C363/O7JBSeUtnt+/X8VgsS2B5e0Jxd4jt8a1qKVMRMv55lCGL9bfvZCUJSCknfu3lmPtAVBUVlQFCg/Z9SDoIhfbdqMaSvWtbYgKMoEnb9wkRsjjSCI7GNstJvYjvzqewuCyHgHqla+4JIPsfX6Lek7Y2Z/VxhGsr9x2JLjEHvHxG8rV2uNIChK7tpXTZiJ7VahjpILxkvejGJ759VS1IKZc7Yfff+Lt8Z6EESBi+SC2I78jiAoyn42+TbKhR4ERZ7DDtos/6jiwiFIMgiGznQySowZCMq7UQVdwreKR6mVwhe/2pWkPb+em4Gg+HXyKSYjv9qdLXz6dt9bwRv5nYUg+7maoF1JP9p/tqDaT2y1q1BvwU80C0E5Lu324JJWcqH024M18vgMBGXdj/xyThiznt+VXHBcvMqxkd/ZMRMvuWDfGb9b569XzEBQJO/yl1kKVy9PRhAUeT5gMVNQZiCIjI3Y2DcTdM/vCIJIHLVVTtA9vynUPQiK7JPYjgqK8e5BUOR5C4a1m6tuPcmREQSR591acWxibL7rvWYEQRF/jkvejMAtsR0dE4mXGGQserlg31GhJsfrnC5j2/J7+YXTrjVAo82CaYulRxAUmS8S21EuzEIQGXsxMF7Jha3c1edMbI2NfEke2G7/0IMXA0EmBomuONuc9CN6IwPemkTJhOz5vBu1nyLZm3BopvAJaPxqe6b46tfrbC0FfuI3RXok7Y4KX/zaDGJugfQ0gqDSrytWTjxJOtJMQeXXCcSvfbPwsacRBMWvhNcuzxeRCxS/vPo5atfzIwji15gmFy7iu8NI/BNXueDYRn5nxsw+YmU/2znn7yoEyTuTmGMfwcUsBJExMjHnUvhWQSHPzUAQT3Ivk6gJugcXMxBEWRPEg3Z7BWUFgsrYxq98b52TsxBE2uBRbicWW/OHHJmFIPva+HWMYq3dVi7ocwaCjA24Mr+McmEFgsTJvl6T2G7lwiwEkTa0K2+028oFV2xaEHMRm/VB+pyBoDK28Wtrxc84rkCQdii5IL6tN0n6moUg+SS/eJAL1994+/7vDqNyQs67UQVa8GYGuzWJbn0Vg0v950JQCWvxy6vfR9KvgbGVCqx5vPSrn3MhqPabd+nnQFANl/yK10VAkBiUfvXBw1bhKbUFQSWs6ZdXuXAREFT61aZc8HMk/W5BUA2X4mWiFueRerlA/CZfcytwJhd6Yxa/vIo/n+Kx9/ylvRAkT/zeKyien4Ug8dKWY3H8ft+CC4+tQFCOu4aL2u8qBIm/Y4tfW507KdQrEJRzMAXFGHuuPIf0swJBvMmBFBQFTlzq891jKxDEI2lH/LY+X0j/KxDkePVR50LpN7Ft5UitQFDUywWxXYEgx011LvDlKpC/6moBzEVsrgb9/Xe8uE5tpDK2lFzg1TGUsbXPHggi7YivPKpzQUxWIYjkwl0Pffz0y65/fB8EMZkJ2QDHkKLj8T2TaPnu2YRcFvBzIchrtctveevA4x4byf6O2RbxqxBqV3+lX8e1F4K04/W13xSzPRC0BZek73MgqIa1+NXHXgjagks6F4K2/Op/LwS14DJ+z4UgMYhf/uyXcdgLQSWseU6cyM9zIegDH3v09PW37oOgaKug2HcVgqJWQYn8vgeCIn5b71b3QFCUguJ49Zf4+LkXgsjvLbjQ9yoERXJBXPRVwwXveyAoKnPBuZxc8NgqBEVlLvCWXEhsy9zYUg1BUSsXxHYPBEXJBX5//Mb7mvBykdv/9NPv3wVBZBzjt8wF++yFoEgbyYXkrvb3QBDJ9H969XbYux/+1LVGygm5lEl0FYLKCZnJFI9SeyEoBcRrJWL9+j0QVPo1EC2/+twDQdpvwSWtFL4Sgvyufa91vLVfz+2BIL87Tv8vYSLifw8E8WsMtSuGtd+9EDTyq/9VCOrBZbQXgvzkt4Y1yjisQlAPLslx7IUgr/X/G+65//S1N1zMd4fVBcW2F4KisqDk3aqJ9BwIIu14vISLcyCIxFhbJVyI1zkQFOkrBcU5Isf2QlDktY7Xc4ELMTkHgiKPlx9eqI+9EBTJhfqW3rkQROLNr+M2TmJ7DgSR+PD7nT/9cBNcLnL7Y298dDcERY41uSB3nRfnQlAktp6XCzZ5u+fclelLa4J8d9hP3v3igNYFJDIRzkKQfRTf1rvnWqsQ5EBtKSApLLVWIMjg8TrjV98rEMRH/LbgklYKXyDIcfO7BZe0B4IkKb98i0PLr8dXIciJbgLyey8XViGI3y24jPS5AkEmQbETj57fVQgCV2Kr3a1zbSUXsq+f4uH3FlyS51chKLBm4/ehxx4/fd3Nz10IBFFZUPRhIp1ZY9WbSFNQ8m7VfudCUGSsM0E7LkV2pC0Iikq44PciICgS23yVgXZn/kpvVKRKuLDAlQcx7yn5xM+Wkgt82vxJfetcLtUr1FTngnZnakIPgiJ9JrfkrbiNtAVB0Z9426eb4HKR27/7E89cy0ex62kUWxLbMnfVhJFG+RXJhSxONyf3cqF17i5D0Nff+vylWx59qtvRDATl3bOC40Rx4m8VkGgWggyKgNu2CkgpbY4SXjE10Ru8Wb8CPQNB/PHaerdfK8VsVPj4dYICmxm/KxCUtSjx25tc9TsDQYBNrDJuI78rEASoxKAHl9EsBClY9uXBNsqFFQgSL/uLrdecmwtkXO07gktahSCxFYPSr9atCfLdYT/2nvuH48/fqFBTCooJz/GMJuiZidRxasvVJZPpaIJ2fPVEuqVM0DzwIm+2NIKgSEGxX9odnbOzsfW8Y1KkjL/X9c6VmdgGLhT/xLbnYwaCIu0kBqBBLmz5nSnUJBcSW9voatAMBEWOS5uuhohdL3dHEPQfv7kNLhe5/Rs/+ulrxyYejvPc2JI53p/TazdXYLc0C0FknLSZq25budA6d5chaPQn8jSCoPLWzOxkQjMQ5HntKuhOpN6+kdf0IIjfrPvRrsGZkePqQZBCZB/tKnq9RItGha++NaNAjQo0zUBQ3u0HrEZwSSb03sQHUvgVU361P+N3BoLiN+3O+JULPQiKX/to188ZvzMQJAZ8mnScyOfmAsldfk0S9pUXI81CUPw6NnEo/X4Ggh679Ld+7vZrhbVXUGYLNdlXezax4mOroHhudiI1Z2kTDHnN1ng5zpV5y2SvPZN0Dy5mIYjkMq9uAQAMXrZitxJbfWuP163FyNFKbPnTpv2TCy0/KxBE2hMDP8XOfNvKhZVCzRePYqZd21burkCQ2GpTDnhNDy5GEPS5+NP41pYPruzBxUps7ePY1Y96vVCtlfzShtga/+RC/JZqnbuvKgRlQi5vzSTpZ2Si3YKgTMgKrisVLuf2AKTUFgSVfgXUQOnHNiN+tjxoI7dmtM+Doj1Sr/CVcKk9k6p4zBTpEQRpT7v8iq0km5ETfwuC+A2siZPf9TMjubAFQY5X7BMHba/kgrZr1XDp3a3JoVwY3VMPggJrJkfH5Oe5uVDDpRwz8cxoBEGej1+b3+txCAS5Hfa3b3rx6l6voKwUavtmTZAx6BUUx78ykZrstWmCrhcjR62JtCfFzPFrx2u24GIFgrTluJ1bvIjdVkFZia2+sybI7ykozp+6oKzE1nGLrTxMLvh/nQupBysQ5NyiXi6sFOrEljc5Vq8dK7UHgpxX2uF3Cy481oOg//BNbWi56E2NInFLLtRwsRJb+4BscRWH5EJyt9TquZvYktjGr3bit3XuvioQlAk5J4BkSGFO0s+oBUEO0OtNxgq04qE/HlYKXwlBJfyUfvWrP9uM+Ko9lH7z7tlm0PYWvhZc5vFzISh+xUgceI2HGXlNDUGlX+3Gn3zx/xltQRC/gcv4Xc2FGoL4FR/HHL/a5f8cCNKO2GqXX+/uMzmeA0H8OmbPOW77Zd8ZeW0Lgniq/eaxWiUEZU1Qr6DIuz0QRL2CIh9WJlJtOG75qa0WXGh7DwRF8iATdFlQ9kCQ15NirA/t1nCxElt91wujxbZcjLwntmLFl7iSsQPlXm+LN8/bV58z8tpAEG3lwkqhTmwTQ56Su3Uu7IWgiB/HUOeC33sQ9KfffvGfFF1v1gQFgiKxjV/jz+9KbO0TCIr8nty1Je6r524dW+LX+PBrrIzlqw5BOs2ELAlMxqWS9DMqISiTry0Tck7OvRBUv3uu/Wrfc7YZ8RYP8RtYK/36abBWC18PLukcCHKMpd9yAo2HGfEUCCrhp+VXvuyFoNJv4JL25EIgqPRbwiVp/xwI4reGNdqbCxS/JoTAWrQyZi0I2vKrP3GvpefW5wTZv1VQ5N1eCIo8XhcUvlcm0kBQVMJF/Dr2cyAoMs4lXMglv5d5siVxKiEoEpMSLsRkJbb6riGIvDYFJbF1xX02tmJVQhC1csG8aF99zUj/JQRFdS7wuheCInlR58K5EBQ53viVC+biHgT9tzd97iHoD/7UY6+AoCi5kPgaw5nY2qeGoCi5IA6O3Zzt9xkZi63YJnfln/mL5/Lc/ZxBkEE06JKmnpBLbU2iLQWCTNDadUCSMBNytKfwmdSy7mfLr34kqG1GjotnP+O3hJ/I/w3SSuFTgB2j38W55XcPBGmL3xasRfEwI+05kbQjbj2/EljsZxQIclL1/O6FIHm5BWukjz0QJAbxq5+LyAXtln4db62VMfP6QNDI79b5K1otCIrqguL3cyEoKguKnF6ZSGsIivQVvza3tFrH3dIWBFEJF3JE/8ZzpBTqGoKohAsFh9dzISjSRmJr83udEy2JVQ1BkcfKXLCfmMzIa1oQFCUXUlxn/qIwsa0hKCpzwX62GYntVqGOkgvGQN5sxfbvf7ANLhe5/YU3f3ATgii5K8dsYjvKhR4EUZm7K99N14OgSN8ZM+dErrpdOAQpvN6ZShITZ6vYldqaRFtSoLzLUdgl1FbAVwofv9rlt363X0t/qxDkBFWce349LplmCt8zzzxzzasJaAvWolUIEtv4bcFPtFJQU5j5NR49LxJ4BYL41XbP70ouWPejf3mgXWO25VdfqxBk24K1aCUXTA58GuOR35UxEy/wMON36/zlogdBUQoKqPGXMzNzwQiCohQUk67XtPyX6kFQlAlasVakZiboHgRF2rGfGIi5Cbrn1/6OrQVBUeCijO3IrxzqQVBUFj/nVgrKlvS9BUGR2JonHJditQUhpewnT0dyXucvs1pvnEsltqP++dW/dmdyQWxHhZq0Iw7ilatutd8nr55gLXC5yO26t9/ehaBIPZQH5Vq3LY0gKBKjle+mm4EgEkex1a6fvN//2JMXA0GKjQRP0bONTgyagSCTsn1SSEYHOlP4cusgfmeATQBnIMjz/CrS2u2dcOT5UeEr/Wq3XgfS0iwExa/YSqaR35mCGr/61671DiMZ1xkIKv2O3n3MQhC/4p/cncmFGQjSTpkLPbikmVwgfsVBu/Yf+Z0ZMyr9gsGR363zl5sZCIqAlslOwdZer6DMQhAZ9xS/rYISyf0RBJFcdmuF30zQPb8zEERZE5QJugcXKdQ9CIoSWwXb8fUKyiwEkfzjtbVeqJYxHUEQeV68FEp+R3AxC0HiaMzio5cLiW0vTpFjdsUiYNzLhVkIIv7E1vGJbQsufL9XC14uYvvzN6x/d5jYxq+4tHJ3FoJIGzw4d7Rr2xoTj89CkHmN17xJ+tk733f66rc8sx+CWp+WaxO8mcHemkRJIfCczYmsoCqSvUmZeoUvsFb6Tfsj6dfA2FqK37x7dnKOii9pd6vw1XCpPT8vAoIcR/zaz7t/STpSr6AGfuLXeGm7N5FFIwgq/fIqmc/JBSr95uRwlWkk/Y4giF/ngVwwMcxciu/lAsWvk16sZnNhBoLiV3zt25rEavEiZrVWIUjemcTEys9eQVmBIMdk8nSe9woK6W8GgoyRXFH4xEm7PbhYhSBe5UAJF+JcKoV6BoISW/kKblNQWrHV9woEpR1+e3AhR2YhyL7mDOM7ggv9r0CQWNi8bisXEtut8SwlTvaVM8mF+K0ltisQJG9IbONXzOPXN737jq8WxJy73Xt1WluFIHElfsWE3/qqm31WIMhxU3LB/1tgLN6rEETaue1DH9n/BaomZJO1wTchp9gqOudCUIq9STGBVJzOgaAtv34/B4K04xjiN++ePbYXglpwqZ8Us3MgSD+8Bdb4tZ0DQYE1sSn9+nkuBLX8itc5EFTDZfzq/1wIEoP4zToaE7U+RmrlApWwxq9jWsmF1phFtV/t+f2c8/cTz75w+sYdECRPnO+8bhUU+65CUFQXFP4j/axAUI6bjxIu6nNoDwSRWKSg1HDhuVUI8hrH24MLfa9CUKSfxLaGC7FagSDHTcailwseX4WgqM6F+E1s675aCgRFYhu/trINsd0DQVFyoYSLz8U3yf/FW1/sby8EUXK3BmP77IEg6uWu3/dAEMn0167eDnvv058pIBo0wZY6B4IcuP8rnJImJz3thaCygLT8ngNBfnesXl/7dRx7IGgL1mil8LUgSHteX8Ia6W8vBOkHDHjM8Zb9icleCNKOGLb8yoU9ELQFl5H+90JQC9biby8EbcElZRz2QtCWX7HZC0Hxe+eDD5++7uYrj37Vmz51+yoERXVBSfzsuxeCKBO0giKHtOe4TaR7IIgccyZok7zncix7ISjSjmMo4cLY7YGgiN/Etiwo+t4LQZHYxq99+BWPPRAU1bkQuPD7XgiKkguBi8Q2ffRUQ1CUXOAvVy7E9hwIIu3wW8LFn3zz402Y2bN9208+frr3Qy9+Jt45EBR5LLnAr7l1LwRF4lfnru0cCFpaE/Tr77xy6S33v7jwuZyQS+2BIK/xMxNyikCpVQgSdO3n3fOWX23qcyT9Gphs8ctXy5PnVyBIEYrfFqzRSuErISh+Has41H7FexWCSrgU65Zffe2BIH634JL2QFAPLiOPr0KQdsRWuzX8RHsgiF/etVvDJWUcViFo5FefqxBUw+UHH37k9Lqbnn30H3zDM3/zW2994nTf01deekVbrUIdpaBkvZA4ngNBkb4UmqwXkv97ISgSA885lkzQ50JQJC9SUFK4+R5pFFvetGsTi3MhKIpHfhXJcyAoquHCz3MhiMRGnzwaP763PJTagiByLPErF8T2XAiKSri44ZbbTt/+pk81oWZl+6Nv/fTptve+uK6H34uAoEgstSu+s3k7yq8yd62fAld7zt1lCPIFqu/+2KOvmJBLmQhnIUgRcSmZqa0CEs1CkOcF2cEKkkml51ebsxCk8PFbv3tuyTHNQJATECjM+E0xW4Gg0m9rIqQVCJL0PIzgkjy3AkFiZuvBJa1AEA+KUQ8uo1UIsn8P1qIVCNKm84Jnv19ELmTfEVzSKgTJmxouObYm6Nqk8VOX/9wv+MnL9/25e7bHqleoST/O6cCFiVT8RxpNpCQO9tEmuPKansSsnkhrKY7ikQlakRhpBEGRgmK9EL9iv5Vz0Si2lGLt+LV7EV+gSvrkN0VKXHp+RxBEJVxkYfZofpkp1OT55IKx8LqeehAUOY/kgtjyaz4caQRBUWLLw/9449NNuJnZfO7Q5RdebDNwoV2xMA/1NBtb4jdAOMqFmfwifoE7v2LWy4XWubsMQaM/kadZCAIIioNtFBCagSCFH5gYRAfaK3iRNkcQpB3tOTEcWw9+Ivv3ICjvnpN0Jr+R3xSzUeFTlPQPgEawRjMQlFsdxmHWr31mIChFVC7M+J2BIH4VFgVdHGb8yoUZCMqYiRm/o+ObgSC5C360ya/zqKfZXCCLsu07gkuahSB+HROvNVz67WUIekn/x7c89+Nf+dbnTt/7wCv7ninUZJ7wfUazE/TsRErOl0zQXifXWxK7EQRF8kSBmvnMk1kIIvFK8VMwFaKtMZ2NreN1XLxqW2x7r9kb2/htiQf79iAokp/a5NfPXi6sFGrH7Pi1aTwc55bfGQiKxFabYGiUu7MQRPYDAXy88db7T3/4Lc81Qae1+SLWmz/WvkorrvHag4uV2NqHT+Ba3tJr5e5KfoklyLZ/cqHlt3Xufl4gyMExoTiakGcmE7LvFgSZkJ1Aebevj5mrMDSCIG05Hvv56f8zclxbHvgt3z3z7P8jzRQ+7dlHfBXfUeGnEQSlQGtXgil8MxpBEG/ipF0/xXdrMi/Vg6D61gy/K7nQgyBx4jOeZz4gjHoQFLiUV9o0DheVC/EbsJqB9xEExW+uBGq/zrE//8Dp9BvuunK7OeNX3nF63a+4/cp13/nwlYf+t8dfeO6b7/z06ffecXUyKm6RzRZqykRqf5OebStvxXRlIlVM5KD25Zd263j5fz2R9qSAuGqR2yJbE/QKBHk9j4DQ8XndFlysxFbf2uW1LCgtrcRWrBQ9cBO/Xl/7XYEg0pZ25aHfbS2/K4U6sdUOH37nt/VGfQWCxNY4aDPx3YKLVQjSnna0LR4/fdfHT3/xpueaX7T6u697/vRXbj+d7hyUMWNv3gLyvdxdhaCsCfJ7cqGVu6vnrtj6mVxo5W7r3H1VIcjjOjfBgg4TdJJ+Ri0Iqidkieb/+joXggxC/OrbRO8x24y8tvZQw5o2HY/kPbfwxa/jEQeTKgCpC1RL+m5BUOlXomorHmbExxYE8StPxN5+IIv3GW1BUA2Xe3KhBUGOWWy1y6/JzwnG84y2IIhf/rTLozG7iFyo/a586S0/LQhqLSrnUz/Rz15Nn195y+n0Fe88/blfduOVXwt+fue9V+752eeuXHb0ycT/+cOfPv2TP3355BYZGJJ3KxDkHap8zARtYuWjfr0cW5lIFRDHrZ16gk6utSbSnhQp8RI7P8sJuvS7B4J4IzkTv465LCgrsdV31gTlaqd2bXVBWYmtWImtGBC/LbjwvH09PyP9O7coueCxGi72QlD+zw//dS7sgSD55Th7cKGfVQiKHKMYlLlLq7Hly/xMPNe5G63E1j6BoGgrd1fP3cSW6tzNOdU6d18VCMpEaTMhl+9GMzAzKiGo91c+wMjjeyEofgNr8WszMLYZaSMeWrAWv9qVCHsLHz+l35xMCuxeCCrhp/YbDzPyuhqCSr/GNLkgX/ZCUOk3cEl7cqGGoPj1nONJLuhrLwTFr5NXu/F7bi4QvyVcanNlzMSrhiB+edJG6dcxiM0Hrw7vS/Dz1n/kp09f+ctvvfItv/F9V94EfoxomYFlW3/opkdO/8K7njv9iTueWIagTKQ8GHOvrwuKWKxMpIGgqJyg5VAK4B4IisoJWn8pKOdAUMRvDRfitQeCohRrfku4WImtWJUQRNrht4QLMbCvx2ek/0AQaT9+y1xYKdSJbcYl8trkQvzuhaDI78mFEi7OgaCozF1jxetKbEsIimq44HcltvapIShK7pp7eHWVXR8z4qOOLSUXzBeO3bzzqkOQiUPQTMg5KUtlEp1RIMhrWhNytBeCtMNL/Na3DvwumWwz0hYP/PKjXSdC7Ve7EmC18NlfHzWsRYrNKgTxya9j3PIbDzPy+kDQyK98MRYzCgTxwm8L1ugcCBKD0m8mf+J7DwSVsMYvb6X25gKVfh1DGduVMeNJG8aj9FvCZeS5P3rrw6d/9tYr9wd+cuvr3VcBqNx7q637nrly+i/u+fTpl1z/xOkND44/WdxEWkJQZH5xjCbOwIWYrEykNQRFxiQfXmgczW9iPaMagqJM0PzZR9zPhSDyHL+BC7l/DgSRcYvfFGvtzsZWrGoIikq4kBdu8fE/I68rISgyhskFfv1+LgRFvMWvPDgHgiKxjV+btVPnQlDEL4/atN9sbFsQFJW5a1wd17kQRGIvV3gVX+2X89iWtiCI5JzzwPOOid/y3P2cQZABlZwKoMHfOhAGZycTB2JfB9yakKM9hU+7Blyx2/LrMZOqbUba1LZY+LnlV7sSc6XwZeO3BZe0CkHaS3EWu63XxcOMxFJBlQvxW8NPJIFXIEh83ebRrn5afvfkgvzS9haskf+vQhDPcqfnd08u8DHyuzJm4qU9eZV8aPn9rqv1N7e+fukNV37La266ct0fueuJh9785HOfdevLGAR+escOhr7pXc+9Yr1QrS0Iijxu/ZMJ1OTv54yM+xYEUeBCmwqAMW3lca0tCKIaLrQtPiOlULcgKApcaFvhmfmLL323ICgq4SKLvWckn7YgKBLbjJn9XWEYyf4tCIrEll/HZLGzdkcaQVCUXLBtzcGlxHarUEfJBeMlb3gZaQRBlNwVA3AhtiO/PQii5K5jkgtiO/I7gqBIrOxnk+OjXOhBUGSMHLs2s/D/2uNXtwuFoEygofrRZD4DQZlEFXST29YkGq0Uvrx75rd+91zLczMQlHe8Tj5bzytpd7bw6VsMFDxx6PmdhSD7KeaB1tH+nt+a1GuBCn79HPmdhSB+nRhp96JygeSCdnuwRh6fhSB+xVaO9eCSVnLBPrxqe+R3dszcZnZlyb78ts61ct2Pqz+vvfXK9/yO91+55/vv+9Tln33fh0533PXin+L3bln39L0PvHDyV2RZL1RrBEGUCTrFz4Q3mqBHEBSJu4nUvpmge3ndg6BIn8ZSQS0n6C2lUPcgKFLItJm/eusVFGPUg6BIbF0Z0y4QGfl1Xo0giDzvio1jk38juBhBUMSfNuXNCC4S29ExkXiJwUwu2HdUqEkMXJXXLhDho+d3BoJIu8ZBu2I7gosRBEXmCzkjtvG7pVkIIrma/OLX/90ubUmfM7E1NvLF+GrXdu9jj18MBJkYBNimQDvpR/RGGZiW6knUfope76SgmcIXv/Gq+I/a9byBsLVUv+M1qc0UX+2OCp8+E1+DOPM9VCMI8nzp1yZuI80U1PhNu1vJW2oEQbVfkH0RuUClXyf+TC6MICh+naBy4SK+Oyzil88A0MjvzJjxq1/7abc+f1vrftz6Ktf9ADFxMYlrxzYC1S25RfZN737+GgyVmoGgiBcTs8luVFA8NwNBYi33Molmgt6a72YgiJwjQIWHtL1VUFYgSLwUCHk1gotZCCLHLKYKMK89uHBuzUJQ5jl+R3Ch3xkI8npwJRf57eVCYrsV+1LiZF8xTi5swcUsBJE2tCtvtNuDi1UIEldb/G7lrj5nIKiMbfzaHG+tVQjSDiV31Wtt1LkgNrMQ5Nw1H/Mgbj/1rltOX/nGnd8dFikwDt5kLCmQoeDNDHYGplY5IWcSdaXG762ToVSv8GlHf/Fr0ubV7yPp18DYSm2949XPuRDkMe3YeMy79KwD6UkMWxAUWHMc8ct766/DWtKe17UUv7k1Izl52JocS21BUA2X/NrvIiBIDEq/ckGejaTfLQiqYY1fE3VrUqjVywUq/ZooZ3OhN2alXzHlU/vl+evW18q6H3HUn585f/co64VcGcpVITk6C0HiZSK1Lz9+V1hbBcVjKxBkHCgT9BZcrECQNsQ/EzS/LbhIoV6BIK+x8bsFF/pegSD+jHf8bsGFWK1AEI/Euz624MJzKxCkPeObXGjBRWLbypFagaCI7/gVn9Kv2K5AkHGnMndtta89EBT1cncVglI7kgvOUf2VuWCfPRBE2tGeNwp17orJCgRph8Tkpvd/8PTLrn98HwRlQlbkDHAMKTqCNzPYGZionpDLyfNcCOKXL8Wu9KvNvRDEbw1rkeM6B4K0p13ekqApZnshyGMKtzZ4y3P6PgeCPOZ44ze3ZsR5LwT1bqfIhXMgqIa1+NX/XghqwWX8ngtBLb+Kpn72QlALLu0nXoGgct3PV91w5bcEfuo/eW+1xR+fYur4xSXxWJHX/czd95/+8b//9LWrQrd/9FPLEBR5jXeBKShlXppI90AQace4teBiDwSReKag1HDh5x4Iijzm+Gu40PcqBEXi5jg9VsOFWO2BoMj/41e/8euxVQiKxDZ+bfGb2Jb+t1RDUMRvDRdiuweCouQCryUYnwNBpJ1W7u6FINKXthxvmbv22QtBkTh6XGzN6/rX/h4IIpm+/AWqt37yxS/EqwtItAeCtibkUnshSDDjVxv167XpOEbyOm3ZerAW6XMPBMVvDZeUYrYKQaVfyVn7PQeC+G3BJfn/Hgjilyf9eKz2ew4EaU+7rdz13B4I4lc/2tVX7XcvBGlHLrT8ZhxWIWi0Vsfjf/uuB0+/4oZPv7zu55fffuU7Wp/3M7Pux9iLlRwJDM0o50F53uaq0Le87eqk9+B6oSZ+W3Dh514IilpwsReCIn68Xrul33MgKJJr8StWcmwvBEUtuBCrcyAo8ngJF9rfC0FRDRf2OReCSLz5DVyI7TkQRK3cPReCInknBsndcyAoEp8yd13FOReCIseRv9i0nQNBS2uCfHfYdXd9uFlAIhPiLAQ58RXf3iQarUKQfR3sFqxF9vP8SF5r8EzotpFffa9AkH1LvymEpVLMViBIOyO/eyCoVaRq6W8Vgpys/G7BJe2BoPjVB19bubACQU7y+DVxbPndA0H8bsElreRC9h3BZb3u56tvvfItX3Prleu+/+MvPAFPy71HbdVy/omTYzIOjq8lbZbnQeu83VovVKs3kdZw4ee5EBQZQ+1lcnb1aaQtCIpquLgICIr41Z7jV6RmcqoXWyrhwgJXHpwrPY0KNZVwwbM/qa/zo1avUJN+S7jQ7kxN6EFQpE8xSGy38r7UFgRFZe6KrXZHmoktJXfFQT7Ky55GsaUyd7U7M8eO8ouSC4mB1/RyoXXuLkPQ19/6/KV3f7wNE9EsBJlELRY1QcxMorMQJDACrvBsTaKltDlKeO94Tc4KOr8mqpFfgZ6BIP74tf/Ib4rZaJJS/J2gwGbGr2ObhSD78DCCS9LvDATxK1batY38rkCQd0tiEL89L3Jh5gR95plnru3Lw4zfFQhKjvXgkmZzgTJmPbj8rHU/N1/5rW59/b8/9NxDf+Ouj12++8MfvfYa8XTeBvy22upJvoidOcLP8vXJgZnztrVeqNbMRJoJ2i02BU38e+Kpnki3lAmaB+dj73hGEBSlWGtXoRydW8Z+BEHkecckBsZGcev5nYlt4EKB4nc0F8wWanJciS1o4HdLM4Wa1CxjoF3b6GrQDARFjkubM3+lN4KgSGz1n48r6OXOSmyJV22bh8RtKxdmY0vOb15n/qR+Jr8i45TYJhdaflvn7jIEjf5EnkYQVE6iTorSUE8zECRw+lbQHWxv30ibPQgq3/FqVx8zclwjCMqkn9sEI78zhY/frPtRTGeK1AwEaccx8ardUZEiJ2Vv4qtvp2h/xu8MBOWKQtqd8SsXehAEAjKxa9e+M35nICh+TcJ8jPzO5EL8miTsy0Ptt7Xu5w8/cOWD5a0vr8vx9tqaleMKDImN88Cx+792R+NU6qcfubL5J/UrE6l5w7tUMNSDC95mIYi0xUNui2xN0LMQRGKXKxZ+GpMtv87pGQgifadNXnpwsRJbsdKu/eO3pdVCrT237/zkl6eW35VCLU48ipl2bVt+VyBIbLUJKryG3y0wnoUgSn4B49Zi5Gg1tmLgKpvX9OBiJbb2cey8ikUvd1fySxvac14mF8wpdS60zt1XFYIyIYOfTKKZ+GfUgyAB044EM1g+GGwEIJE2WxBUv+M1UPqxzYifLQ/xCxC0z4NYjNQrfLVfk6r2ZwrVCIL4Nabi5Jgk2YyM8RYElXDp+OWNnzMaQZB20i6/K7mwBUElXMoxk0m5MLqnHgQZH7mgXcckh8/NhRou5QRwLVV/3o+/+vr377/yM+BHtMqs0ZdzShvyxHGLh37OkTYD1batYjOjXBUqb5HJ25WJ1L7GNbdFWhN0ayLtSZEyBs6tTNAtuFiBIJ4UE7HTtna34EK/KxCUNUHiEL/iWPtdia1YgcDM/V5nq/2uFmptiAF5zRZcrBTqxJa3XHXTTwuM90CQuqgdfrfA2GMrEMSj2HndFlysxlYb5nziXQxaubsSW/u4KiiuYpdcEIc6F1bP3cSWHGPWC2knsW2du68KBPUWT2ZgZtSCoECUwlFeQtfXXghqwRq/2hVQ24z4qj3wVfrlX7sGbW/hK+Gn9OvxcyHIscav+PMaDzPipYag0q+EjD/5YixmtAVB8asdfe/JhRqCSr8mAH616//nQhC/gUvPZ3I8B4L49XrPOR77lWO29Xk//upL9MtsybGXbSWHHb9+7LMqr9OGLccu7mLhsdlzrFTO2z9666dehiHtrEykJmN5aHPMXlvDhbHfA0GR8U1B4S8FZQ8EyUfKlUnt2kq/eyEo4rcFFyuxFSuxNT60BReet68+Z+T1gSDK+VPDxUqhTmwTQ57it4aLvRAU8eMYarjw+yoERSVclLm7GtsSgiKvLeFCm3shKPK7N0D82tLO6rlbxza5kPOET35fdQhqTcilMjAzKiFIO16n3RJ+yGS4B4J6sEbaNzC2GfEXD/WkX/r102DZZ6QUM4Uvk/6WX7HfC0HxW8MlxcOMeAoEbcFlJF+MxYxqCDImpd9MUntyIRAUAGj51e85EFT61d+5uUCl3xIuKfu21v3kT97Lj8nstRU5Hs/Zx/OzV4Ucu9cZp7KokjwzBuYPP1v91mqdt/c88dy1K0O/7ueeOv3EjXe+tGdfJtJAUNSCC375N34zqiEoygQduDBJ74WgqAUXzulzIIi8lt8SLla+4FKsSggiv9dwYfztq68Z6b+EoMgxey5wweteCIrkRXIhfs+FoMjxxq/zQ/7vhaCozl1xWIltC4IoueC4nQfmVv3PxNY+NQRRmQue51O7fM/IWGzFlt/E1pzjZ3nufs4gSEGVIL1JlBx8aainQJA2DY4DkljlJEp7Ch+PCo+k2Zp89SNBbTPKQNq025r0yf8l1Urhc9wjv3sgyO0JvuO3hJ8oHmbEp7HSzhasRXsgyEnFbwvWaC8EyUvjvOVXH/JwFYLEued3Ty4YM3752fL75z/46dOvvPnKtVtf//g7rvzar7r1let+aASqtTxnH/saPzm3BUPi6djlpNfUeRV5XFyMhbh53ZYH/fXOg956oVom0hqCohIuvBN2HLYZbUEQlXDhPNGH2IyUQl1DEJUFRSHT97kQFJVwYZstUmJVQ1Ak3jxqi1/7zRZqr2lBUKQd+2TsZj61PbGtISgq4cJ+FwFBEb/as5+82TpHSm1BUJRcyML/2dhuQVAkTvqWL8BFbEd+tyAokh/mdcefxd4zeduDoCi5IAauPOWq24VDkEnUO1NJ4iQx8L1J1EHPTiYmOebrd8+1VgqfSVS7/PZgjfS3CkFO0JlJ3wDNFD5/lcSr5Bz5XYUgXrW9BZeR9uw3IydGcqFVpEpJYPvMyPiXfluwRnuBWLtes+VXX6sQNON3JRecO9qzv5+tc6217udfv+PZn/meux6+/LP3PnR6qthfvoxAdUv2FTsxMY4lDGnTuRDwmzk2MvlpT66LXXnead/xe350HlBrvVCtHgSR/lJQTNAKwMwE3YOgKHBhghanTNBbSqFuQVDkOPSr+PnLmZl51rj3ICiSc4qZzbiM/PYgKBJb84TjEostCCllP7kxktzMXw+13oiWSmxH/fOrf+3O5ILYjgo1acdVK/HKVbee3xEEkbjLK+PFr2Mb+R1BUOQc1K7YmjN7uTCCoMjz+W46cRiNhednYiuOyTE/5e7Dz3/6YiCoviRtG50Y5DWjk9OkGaCwKTy9pJgpfPU7Xgkymkj1OQNBmfQBm5+jSV+7o8JX+tWuk2PkdxaCHA+fkoKPXmxJe6NJPUVK/8bMeoeRJPAMBMWvdrfefVy+/Nzpp6+/8fRf/6m/fvrDv/+/Of1n/8F3nf7Yt/0P17Y//6e/59pz9olKv66IzeSCsZiBIH4D7z24pJlcIH71rV0TVe23t+7nXU99+vLDj33mSosJR39gwmOjY+/J8RkbsclVOlsP/EbyOu05zrRtk4OrsNaDIRNpD4Ii85oJV5GwjSboGQgi54jiZ+LPBL01h85AUCT2fCrYI7iYhSDij9cUlB5cGLcRBJHnxUuh5HUEF7MQJI5iGx89uEhsR+NKYgCIkw9es+V3FoKIP7F1fGIbvy3NQBCJrbaSByO4mIWgMrb1eqFasxBE2uDBHBfPW7F1HLMQZJ4TM/Oscb7lvgdPv+JnLp8HQSZkk6gT3SRqsAVvZrAFSvBaMrl5TrtOZAVK+6OJtAdBzfUDV/vQ/kj6NTC2lsRAW2nPyTlzBUK7W4Wv9qs9P+vFsC2NICh+FWf7aVc/I2nPvi3VcGm8tN2byKIRBIl7/AIVyVznwhOPP336G3/59aff/M/9wdO//Gu/tbvZ5//357//9LGHPvGyXyecq0wj6ddrehBU+jUxzFyK7+UCBdb0nStWdS6U635+5R2n15XrfspbX/qQp7w57l7sV+W45T9/Jjy+z5HzQDwzRtrfitFI+XwhH7ZY3iIzkc5AkDESe4WHn0zQWwVlBYKMhTkpE7T/t+AihXoGghQeBULO8MzrFlysQlAKE789uDBesxBkX3OGvOG3Bxf6X4EgsbB5ndi24CKx7QFCJE729TO5EL+1ViHIGJHYxq+Y128oVyBIbLUntiVciEmtVQjSRnIhuemxMhf8fwWCeON7lAseW4EgcSB+3nTTHafXvPnpfRBUT8gptgrpuRAkANowSUse5hWncyCohrX49fu5EBQ40U4mLcd1DgS1/AZAzoEg/+ctfr3TtpULo3uKh1ItuLSfn+dCkBjwCybiV7xqCHr7W287/fZ/9Y83gae3/bZ/8Q+dfvB/ue6aX/2fC0EtvyZqsRhpKxdquNRWciO5UH7ezy+78cqvBT+tr7pIW/LY67XpmJ1vfLfye1Zem2PXLp/GydjKR3myqvo8kGN+iqn+6vye1Rs+8szp//qmp15eL2QiXYEgx0mZoE3YLbjYA0GUgtKCC8+tQpDXGPdeQdH3KgRF+vH/FlyI1QoEOW4yFmKn3RZceHwVgiJ9xK9jCVwktnVfLQWCIrGNX1t5zvt9DwRF/OpL7jmO5MIeCMr/kwvAxHNlLuyBoEg7iW2Zu/ZZhaCI3zoX4tfveyCIZPpXvunJNQi65+qcw1A5IZcT0TkQVE6iJuYMNO2FIJNo/ApAPWlqcy8Exa9CLw6lN4/vgaCeX7+L+V4I4reGS9L3Xgiqi1TZnz7OgSD/125gIn7lgtjk/z/yg29uAs7K9t3/ww9f628vBDluY97yuxeCtuCSMg7XffixV6z7+Y3vu/Im8COaZbYbK569Tm6WY8Wv45cf9TiOxG/O2/rY85x4GWMeZtQ7D+STx3kNDM1KO+U4/clLT1+7RfafvP2hXRBEfG7BxV4IipyTdUHR9h4IihwjT2VBIX3vhaCohgt+xWoPBEU1XMSv3/dCUKQvsZS7npeveyEoSi6UH14otudAEGnH4+WHF+6FoMjj8pm3MnfPgaCozAXzjbl1LwRFrVywnQNBS2uCfv2dVy6942MvnkDlhFxqDwT1JtFoFYLsr32TZc+vNvU5kn4NjE37pd8UrVKeX4Eg8Rr59X/PrUIQz/ErLnUM+V+FoF6RihzDHgiKX//XRisX9OnxH/qbb2hCzZ7tv/7Tf+1a2yPp13EHgvhtwWW0B4LE10+xbkHJ+5947vTaG557ed2P7/l67Uu3vt59FYDKvcuxMnm2xor0HxgKXGztS54zTjxunbeR47cvD17HU0utq15bHvRnP7HXdu/2JPXGyS2yf+z6J09/6r399WteU0+kkRzm2eScgnIuBEV1QTkHgqK6oCiu50JQxC+P/CqS50BQFLjQr7j6eS4Ekdjo1/EbW763PJTagiByLMYncKHtcyEokiOOXWy1KbYjjWLrWJIL2rsICIr0ab2QdsVrZmnAKL/KXLB+6lWDIF+g+pb7XpzEtrQCQSZ59yYFfzSJzkKQ5yWRg9VubxIlbep7JO2acLMmYeTXPjMQJDmBwsyk73H7rEAQvz24pBUISmGe8eu5FQgSM1sPLikQdOuNdzVh5pzte//qj7zUy7aSC3InfltwGa1AkDYVc+07xlZs63U/r7n5ynX/6Z2PP/TDDz57+cGr455XlPBjrJybMzJeXuM8DgzV6gFFT/ZN/vCXW2S9q14jyeuMRX2Fi3idGaet9UKlvLaeSGuVcGGCViRGGkFQFLiwif8o7j0IilJQ8mfUPnZhpFGRIn3yKwauACi0Pb+jQk32iV/tKq6j+WWmUJPYOyYxMBZe11MPgqLAhdgCC/PhSCMIihJbHoyH2GxpJrYktmqGdsXiomKbXBAD8fC6Xi7M5FdyAbjzO6o1rXN3GYJGfyJPsxDkIE1KKRCjk3kGgkyqJkRBdqAzk+gsBHlX58RwbKOTmfQ/giB+c5LwMfLrefuOIMh++pfMI1ijGQhKkUpBnSlS9pmBoICVXJjxKxfe9757dq0BGm3/2q/7A6dHP9E/oZ3A/IrZjN8ZCHIFBPxo07i14ttb93PHxz55uvS+D1wbHx+loC3n2OxYteS4AkPySXs2v4+AoideeDIhmSdsOW9nzoOW+HAuybeAm7yK15lxinqfL+T1IwiKTNAK1Myf1M9CEDlPTfreWSuYvYIyA0Hk3HZcvGo7t0W2JL6jIhWJVa6GxG9Ls4WajLU2+fWT3y3NFmpyzI5fm8bDcWa9UC0eRhAUia02wZC49bzMQhDZDwTwoQ/ttnJhJbb2FdeAWy8XVmJrHz4T214urOQXf4lt/LbUOnc/LxBUTqJ59zajHgTV73j9nLkKQyMIil/HZPP/GXnNlofSr0nbwGxd9SilODi+HgTxx2eKwUxBGUEQvwEVXhXpGZnQRxAk/tpNjLcm81Jy4Xv+8g83IeYiNuuDWhJLPvm1zXxAGPUgqL4CYhzqXGh93s/Wup+cAzaTjLbPFXgwjsbdsRizWaDoSRuO11xg2yo2KxI7MeDVZrz2em39Sb126om0J0XKVQtbr6CsQJDXKya+4FKh6BUU5/QMBJG+tZvbDL2CslKkxAqwKcDx6/W1X7lq35lCTdrSrlz3u60Vv1UIEgPHzYff5abX1jm0AkF88adN8W0tRo5WIUh72vF7CZql39XYGnvnemK7lbsrsbVP1gSNcmElv/iS49osc6HO3da5+6pCkMlJ5+W7sjw2oxYEtdYPpKCcC0HaKP0aJANjm5HX1h5afk1+Bq8ufC31IIiv+BUr7Spc50BQCWuSR1vxMCPHtwVB8et5+7lyYSxmdP/9H7z2V10tgLmIzZ/P11eD+JXXckE8nGCjNSjRFgSVcOnY61zofd7PaN2P/oyZ89Bzue20qhL8HL/fHY94zORWS/V54DzRrv9rk9+9Sl7x6vjjeeb82tKfvfu5l2FoDwQ5RuPgZ1lQSu2BIONMvYLinF6BoKwJUqjit1VQ9OPxGYkVWDHmxC///Oorc7rn7ev5GelfLhK/YMDVAG2Ux7tSqBPbHK//b8HFKgQZB3ngOOWQ/7fgYg8ERWUuOK+SC6ux5cu5Q2UuGMcyF1ZiW0JQtJULK/nFT2JLyQWvF5/EtnXuvioQVE6igZ866WdUQlBv/YAJ9hwIMlnyZCv92gyMbUZeHw89v9qVCDOTtNd4fQlB8VvCpTYVkr0Q1IK1tBMPM/K6GoLEr/Sb45YvsxD0luvf0YSXi9ze+OPvuNZX6VcOJhfEZi8ElcDipGzlwuzn/fTGKrnhOfFdhQvH7lw2Ttrlz1hqz+OBoVn1zgPyf49rfxXcWuNEzgd5Jb+dj2V/I5Xj9M77PnINhv75dzxzetvdH7zW14wCQdEWXJwDQVGroOyFoGiroIj3bJESqxKCSDseL+FCDDw2W6j1Hwgi7WurhotzICgSG/2VcLEXgiKvTy6UcHEOBEViWH544WpsSwiK5IKrq/zaVmPbgiDSDl9ikFxwlV0fM6ohiORCcje5YD581SGoNYmWYrQ01FMgyGtsDsb/60ntHAjyGknp/yWVkt8dj21Gjkt7JlLB127Lr3YlQGCgJ6/VDgjyuz7it4RL0u8qBCnqYrtVpCgeZuT1gaAUZFvL7woE/Xf/5d9sgstFbn/2j/zla15ruCQ/FcZVCOoBC2n3z9z1RP7qq/t5PyOgKOU5x6Jf+4xgSI7n2EugKCUe2nN+23cUi9F5EHmcX+d3wK0HQ8mr1jhF/q9NuRhw2+qf9FmOkxhHWS/0R29+dPh9ZFRDUFTDhT7OhSCqC4o56BwIIrGoC4p2Z4uU8akhKNKndhy7MXeLb7ZQe10JQVEJF/z6/VwIingLXMj9cyAoquFCHM6FIEou8Lga2xYEUZ0LYuu4zoGgyPPJBZvfZ9SCoMhjZS7IQ/kYfc4gSKeSszeJkoCWhnpyQtvXAWt/Cxr2QJB2bSZJydry67FVCNK2iVQCbk262pWYW8dTShuOXbs9uKRVCNJuJv1RkbLPjHjjQR54Db81XEYrEPSf/r7vbILLRW7f/Jv+eLeoitUKBDkPesBSr/vxJ+//95suv+nvfPhTzc/7mQGKWvr1Gt5bcDEDFLXsw4PXOedqLyVQ9M6DWvHidYGhWvpLXs141ab2nDu2+lwOWHp8a5yi3ldwlNqCIKoLimKlz5F6EBSloGhb4Zn5iy99tyAoKguKhbOzRco4bkFQZA7UnuOyvysXI9m/BUGR2PLrmCx2XontFgRRCRc2sR7lnr63CjWVuTCzkD7qQVCkncQWXLjSMvK7BUFRckFs+TVmI40gKBJb+9mci/z21IOgSJ+OXZtikfG9cAjKxKUzE95oYjLwo+Dl3bNiipZ7ExOtQJD94nc0kXp8BoLiV4Jod+RXu7MQpG8xcNWmB5c0C0H2U8wDraP9Pb81qddSHPl1MolDz68EnoEgfv+9f+PPNMHlIjd/JdbLhVkI4lds5UILWLbW/XzHA59+6O/c/+jl977/3ms5qi9tya1VoCjlNcbC68U8berDuM4CRSn7KpzyzbHKU23Gq3ZH58GWvI437Xg9v9r3mHiO8qolxwcg5KV20q5zkNcWzG1pBEM9CIqMg/NEkcpfZvU0A0GRY9Sm207i1isoYtmDoEhBcTVEuwqK1/UkxiMIIs+7YuPYzEUjuBhBEGlTPLWpsPPSg4vEdjQG5LgTW2PRgwv7jgo18StW2uWXj57fGQiixFa75qJRLowgKOJPzuSv3npxm4Ug4o9XY8Hv1ptn0udMbL1evmiTV7F76NnLFwNBJgzJ5WTPu/4RvZGB8boteT7vnu1n0htNeDMQFFiLZ5P3qF3PGxhbS/XtCZPaDIhpdwRBpV+DqN2RX5N6D4ICaylSNt5H0p59ewpc2o/fGVgYQVAJAP/mb/wjTXC56G1LYs9H77hKv3Kh9QFhM+t+FGxxEUvg4qcJdbZIbyk5ZQIB1drW7iivetKm49UenxfllbSTNrUvJr3iMJLjFFvHbZIVh71g2ft8oRkIIlc+FFMF0ATdKygrEKTwKBC5ctErKGI8A0FkHlQoFeDWYuRSnpuFIPtmG8HFDASR1wMA56FY9OAisd2KfSlxsq+48SK25uZW7bPPTKEmx6xdeaNdsdvyswJBYioPZnJhFoISW+cjH/zy1IrtKgRpSzv8isFWLojNLAQ5x+UBD/z+5DtuPr32rc+eB0HMCpZ3kAbaehX/nxnsDEytFBCGBdfElDVBrQErNYIgj0sufiVAvI+k3y0IKt9Fxq/jOheC0k78iq3fW38dVmsLglprSfyusEjSkbTndS2VsMav5ORha3IstQVBgTVxj9/f8a99exNaLnrbkjHbgqAaLvk1UfsZzX7PV8bKrQwTlrhqSyzqcV2VNjJW2jRW2pQ3e5XzVnvOK5v2W7m9ojKvtOmNVq6M1bf0ZpVxctx1bPeq9flCKxDEhzzJBL1VUFKoVyDIa0YFRd8rEMSfGGqrBxdiuwJBPBI/+tiCC88Zs5FSqMXCsRkPr23BRWJbP95SICjiu1yMXMd2BYKMO8kFRZtfWx3bPRBEo1xYhSCx1Udyt5ULeyAo8lr/F9v4jfSzAkHiQPZ/x133nL7yjY/vg6BMoiak8taMgip4eyAok2gKSDl5ngtBpd/y8120uReCSr/1u0h9nQNB+hFH3pxA9guA7IUgj+lHG4E18ti5EFTDJb98nwNBW35fjTVB/+7/609f66slx1ZDUAsu49dE7f8rn/fTOnb/16+8sJW5OCtt5DwwVrn1xZ++tK/vFbiwf30eaDNXseQWr4nHirxOm2Ve5Rj0J2/0P6utceI1sdX2nth6jdf+pzd8/PRL3/zMNRjaA0HE41ZB8XMPBEX6aBUUj69CUFTCRfxGYrIHgqIaLtKOvlYhKKrhIs8ltnsgiLye34xP4EJs90AQ9XJhLwRFW3CxB4Iix9jKBfvshaCI//i1j/61vweCSKa/ZvULVN/z5It/2lhPotEeCGq9e64nzL0Q5PeeX216fCSvEXTbjF997oEg7cdvve5HH/pbhaBWkSql770QFL/6EofSr//vgaCR3z/7R/7HJrhc5PbHvu1/eKm3V8ox8hYI4lcMxSXAUuqn3/uB06+44dOvWPcz+ryf1rFTXbCTOz1px748ts4Dso8x06/x4KUHQzPngT48zmuutLSOqVZ5HtR5FXncPvrXJr89jcaJxMVz/G7tU0ub8VrG1i2yX3L9E6c/dMN4UXINQVGroKRQ74WgqC4ovO+FoEiBi19bxugcCKISLuRnivdeCCL9BS4UZ33b5xwIivhNbI2T2O6FoKiVC+dCUFTnwjkQFNW54PbmuRAUJRf4tZ0DQUtrgnx32E+890ObkyitQpDiW78ra2kVguzrYG09v/bz/Ehea2BMuDN+9bsCQdr2mi1YI33pdwWCTNC9IkX2WYWgGi5bhVh/qxAkJ0Z+//b3/WQTXC5y88WsWzIuPJoE43cLWNz6+r+969lr635ec/OL3/P1Zz/4wkNvfWb+8362lIJt7OTa1v5yyzlpnLTbOg9KpajzYlxacOGxmfMgSh7yYeOppZm8qqV/PrTPVw1uHhuNUynxSWx74OYxXvW9dc7OfB8ZbUFQVBeUi4CgKAUFqFjfMzO/iEmvSJVwYYErD8agJ8+L51ahJseh8CuoPPuz71E+9wo16TexVfy1azxH6kFQFLgQW7HYyvtSWxAUlbkgttodaSa2lFwQB/PKubGl5ELy1nk40ii/KGCcGHhNz6/nzoagr7/1+Utvf2h7lTaZxGYgyMTkhHdJ0mQzmphWIAghm7wkskTtvUabMwkvibQ761egZyDI9zxJ6N5EGunTfqNJShFw3JKY31GRWoEg+/Dg+EZ+9TsDQfyKlQTV9sjvPe+7twkuF7l96L7tE1UuyIGe33LdDwB67a1Xvud3fuDKPT/60BOX3/7+B06PPP7iN8UHflaAopTYJ851wfa7cQIU9VXFGWnX601a2uQ3QOFcmDkPaskXk7w5ony9n/qayauWvJ5fYxJwi1f+V2N75fIzp0/85Ped7v32f/1093/wDaef/31ff/rAt/zzpw/9gX/p9JH/4necHviRv376wM+/+N182h157X0fGY0gKEpByV/5jM6tGQgiz4u9ImVsFLfeMc0UKbE3HgGh0Vxgfx5GhZrESZs8mDv43dJMoSaxFdO0O7oaNANBkeMCFuBtVKxHEBTxq/+ZP6lfia12xGBrvVCp2djq3zhp1ya2Pb8z+RVpS5vlQvqWHMPZEDT6E3kaQVA9MZWGepqBoEz62nWwvX0jbfYgKH71r119zIiPEQRpS4FSvMRj5NcEzkMPgvgFNfYDQDOT/iwEOR5etTuCSzJRjSa+PX6Nxf/3z/2NJrxcxPbn/thffamnz1bWkxg3fvmo/bbW/bj19aNPXXki634cr/zw+uTVHqAopU055NzTtq13VXFFxjEebX7X317xwpO25JO84pvXmbzqKbHVtsmRV/5nY/vCE588ffy7/+Tp7n/x/3D6+V/3v+tv3/QPnh76b7719Pwj43e20daf1M9CEIldrlj42SsosxBE+taejZdeQVkpUsaDV/srrFtwsVKoSXtu320tRo5mCzWJk+PXdrat2K1AkNjy6pwcwcUsBJH9eATGvVxYja22+NR2LxdWYmsf8Uq78dvSSn5pQ46Lbfx6fe1XrD+vENS63J8Ja0aKhYmtlTTlJXT7mFRHABLZvwVBLb9+F9wZ8bPlQRvxKyl5mCkqJnJeWhBUwqWBNqkCkJnJX989CIpf7TkmSTYjMduCoNqvMRSHGcmF2299z7Xv+GpBzLnb++9+5YlZwhqfxq1cGP2Kz/u5+cpvHa37yZU6J7Fx8vi54g9YGCO/y4NzVJ4HvPJ87l9mRdoMVOeNwLnKOGlTzia2M2D1xM/8vdP7f8s/1gaeznbP//P/dPrk69vgvKXA0Pc+8KKvFQhyPikmjtEY9wrKKgRlTZD8LguKHCjlsdkiZRwUvuSQ19nq+UYf9l2BIHnj2LxGTFpwsVKoE1s1LFfdtuBiFYKMg7rIR2LbgotVCOJRu71cWI2tNsSA6lwo/a7E1j6uCoqrLX5ttd+V/PLaxJaSC/yWb6o+rxBkEvK4g5YMKcwZmBm1ICgQZSvf8eprLwTl3X7tV7sGxjYjnmoP8Vu+Q88J7LmR+OCphKAWrNlPMTgXgsSg9Gu/eJgRLzUEbfmVLysQJJn/zv/6pibEnLP9f/7Ed7/Uy4v6/7P350HbHed52Jl/pmZSqrJVUzWVUSzZqtCOOMpoKpK8q2wxmbFr4rjsJDNJnGTKop2JF1leFNmyYluOZSl2JrbLju0ojiNFihcl8qZIFrWYlihq4QISBAESAEGA2EgQ3ACQBLF8APg+8/0+4AJvNM/Sfc4BF/FcVed73+95zrn77quv7r5On36eN4ZFvsqUKy34f0zQ3r/z5af/e32ruaBLbYVDn36Um99NEt7r0UELuYgjN1oWIxqWqzZzzijafqD+2tS44fXePlYx1U4Qbn3NwBK3j/7gX5s0OCPHh/7bb34h2jKig5se/ODl3/uFRy+vvu25yx2PjJsgkyW0E0qNoU9vMUGQsUlZOBUr46826p2ktCkTpM6OmAsToveSm/f8v3eiVj59B+J4rZoL+W4xQZmU5RRuW3Ox1QQFc+ZiiwkK5szFKLfVBAXRQjUXW01QEC3IVV2ihRF9tSYIot266oaDz7gJysCkYANyOxCnYXrQmiAkiWsQrW7PALPVBMnXAE1Ebb7iK9PRA/VKDuL4v7gxP8nXT42l3DWIIwYTNGfWAnXZaoIySTnafJNDD+QUE7SW7xYTJCePrqbMzJbjD/wnf/56Ds9rYc6wgHK9/u13PfHSR1+3Xn3H1r/z5f9eV6/0nR4zRI/aiaHAS9oJkqf+GDPUg/Rb1xpA2lxBrsp1jvddswbnzfUD8H8akG/b/+aw1E6B/+PGYDnF7Uf+7n89aWq2HB/4S3/whajTUHarg+973ydvrAr9gZ993+XWD3z6d0+1yEQdExRkQqlfXqhPbzVBgWtNUHXPxcgfuJRLTFDgd1qXW8yF9ndu70St/GqCAtd7z2RtDJbrVhMUTJmLvSYoaM2FvrHVBAWtuRjldsoEAX7EiLnArXK2miCgheQbLWg3uffA+XPcKjNawKufeAheNhNkQtWYGZjmJniVrwktISZITNcY9Ov3/QRbTJDOmIHU71ODr3K2mCDnE5MG0BHafP2fqEZMkDjO9/vcZGGw3WKC5CyufKu5DJJDD+QpB/HX8t1igjxCuOOOOy9//A/+5UlTM3L80d/7/7vccfvz+3xoYcmw/Oxjz12+6uarF82Pv/P1yluvXvO9j109ogb1bO2wVvcK59IOLWbCnkLOq6uKbVsF3hOPDl0zp+EpQ7EG5zjXNa25qFjrB4HXY4aWVrF6jGUL54Zb/N1om7f9zKSZ2XNYVWqhLPkasOd0MLdfqEUm6tYEgTKqucDNXhMUeD8TirbpnaRw3pqgoJoL5s15vRO1a6ZMUCCO/UIxA3P1qpgzQUE1F3I9wgRBNRcMG+My10cq5kwQ4LuaixFu50xQEHMhNmNjLl7DnAkKcBMtjPxtuiUTFKi3eNrLI9msuh1uggyiVilUREdZG5g0kg7SAwOH5NcG/RET5Fxx5etYyldZBuS5CaSFeumgU3foFV7XQAblNeSTZMQ5Z9YCg+6ICZKrwzV4mMtXPDn0QMdgrnC8lu+oCUqbZVL97r/yDybNTc/xF/7091zX4jM3yo8e/Gzzndr38xW3XL3mj9z28Yf/1q0PX7u/TNiZ9Ey4a3WfgjplwnateEE1qkvmp4VzTZz0U+sXQ0Hb4q712xbOdY16xrjFDImpHmv9oIVJQd3lSpe134lPs3PttIYXuX3w/k17gFaPV/2Llyc/8PxkU3Ug355+3u4XarFkggITvvIYC5+c6Rln8bJkgoJMKCY07aJ+S1D2nAkKTIzGd/USu8e0OW/JBIE4NIIDGjT5LWkw3M6ZIFAP+eKq55NOgNu1iRpiFPCVVbclLJmgQJnmY/VKvmtYM0EBbuWbT70t5btmggLv179Nt5ZvjwkC7R4e/KTzDz373HEmyECUuzLHWuMBMa11ToOGczJJ26OwJOIeE9TeReocawOpMjVyHYynkHx1aD/XJinvrZmgeocurs6xlq/Bt8cE5e6YKLJqswTxcLaE5CuefHsm1V4ThP/k206qd7zj3hsrOlNGZ+r4T/+DP3d5yxve+eJEJV91m8p1at/PN7/v6gGPvu75+JOX+9//gRuDBi1pp0x6PXVfguvFEY+pVPc1o7oE19SVFgNOu+9nK6J9uUZX+Bg1axWuEw+3ie3YYixbPPi93zVtYo44/stvuJEnvW7Rge8XevU7nruxX6j9SH2PCQpwb0IzmThMRHOQY48JAloxSSUPcefaV7utmSCgH5O6iVLOa+aixwSBucjqivONG0vmoscEBTjIikXynQNueyZqkF8MgHyXzEWPCQLcO1fMHEv59pqgcKuNq7mY0kKvCQJ1loO6yVXuc1oYMUHGDbHMuTT5tvseunzl66/tM0GZQAQ3sGps5PU0tuuQNwdEiKsjG/jFXxtI10xQexepfPHXoFz5OKZggBNLXPF0ziUjFog7Z4Jasyaen0sfkQ/WTFAmLEcmf+WsQTznTqHNF79ir90lwZoJSr4mVatLNDZXt1tvvuvy1//rH7j8h//Wt36a8fGa95xTzaV8GTbGqqL9vh8fef8991+9nvnRujUDm28TxzHVplugT4lHUzgQNystWyEGnRq0erXaA22SXHGhv+B4D7STOOE2HOyB7wHyqa5JA3PE8ap/8XLHm352N7fZL1S/X2jEBJl4TBA0nkcX+JvqkyMmSHuYnMTxs5qLdoxWXo8J8r5zMx6Ju2SGvI/fNWSixkVWsebMRbjtMUF4cq5JPfk6pq4dNUEmapDvkrkYMUG4FU++a+Zi1AThVpyYiyktjJog+ck7+c5pYdQE4QHk89q33nZ5xU89uc0ExfxkAsmgZALca4IQ4HUTXvb9mJz2mKCab72LFHOvCfKaOotD7M6V/x4T1Jo1+caA7DVBMVPy1bHcbdeN0UtIDi2m8sXFXhMkDi6Tr1zxpQ23aqE1a/JUjvJjgua+78envt4285H33AiI66cBmjam2qAH+FR3R7TldxrGl3JH0Ro/P9WZfsWe0ncv2n7gUMbaJ7PmMNVOR3H7/tf98LR5OfB4/z/87hv87uVWHf/wmz90+bqff/KGGcpEPWKCXBON+v/UhILfURMU6JP+b7LW36q5UPcREyQWVHPh+tZceH3UBAXKmDIX4XbKyLSICQqWzAVut5ggEEe+U+ZiiwnK/5fMxRYTFPg9Wki+eX3UBAV4ixaSb+D3LSYIKP3LR/922N3XxxwEZhDVuHUgMkghr6ex0zCBa/1/agl9qwlqB/02XzGVtQblapg6kPk9+cqv5ub1LSYoE2ryreZI3l7baoKSr9fxkHyVsdUE1XyruQRl7DFB8q2TavLF9VYTJN/WrAX+/9YHP/iSfT9TH3kP2raqseTmdflnwh6B89VR3ds7QFxoR/GVucYDzBm/QF9Tf/m2vKxhqR+I4zUDlTbGWY8ZWmonetrKrZhyvfvP/95J43Lk8dB/8e/eKHMvt+kDNz/0kcufffezN1aG/tYbn38svgZ9OiYooCe8mlCquaCJrSYoMJa1X16I7y0mKJgzF/6/1QSBOK25oI+tJgjUYcpc4HarCQqmzMVWExTIJ1qo5mKPCQqUlXxpwTiw1QQFrk2+Dvk69pigoT1Bv/kdV7e/4YPPk9YOosEWE/TiwHT9aM1PgEADyNqAn4nP+eLPDfqBmKMmKPlOmbXA+yMmCF/yzYQ6la//e2/UBOFgKV/1GTVBa+YSvLbFBOE4+baTKnht1ARVw9KateDb3/XE5atueubGvp9ffsfVl9j0nH0/9SPvPXUPcJ0JW53UbQm17lOffqxQrvLXVlqWDEWFsjJh96y09PSDIBrEhevkNIWedgpGuaUDHMj1vj/49ZPG5cjjPf/vf+WFkse5rTpo+4D9Qq960zOX/+StTy7+PTKYMkGBCcXjxTqh7DVBEHPBIJislbHHBIH3WnOh/D0mKKjmgub2mKCgNRc2Du81QUE1F2Lidg1L3EJrLo4wQUG0IE8/ez5JtqQviBacY//UZ8wE/bqbn739p+97/u5zDga7EROkg0jMwERUc4PoiAkyOYi5NuiD95W9BuVqGPlmIF0a9BHdY4JwwCj0TKhed86ICcoeiqV8R0xQPqG2Zi7Be6MmSK5rk+qICZKDAW2J36l9P7/h5muv/f67H7t25+PPXp4sEzZee+reIhOgvjGlyZiE1F2b9EAcfKgjDuUXMzRiKCq0V8zF1EqLOHLFwVo/aIEzuYgvjjaCEWPZYo3bGApaFFeu9/7HXzlpXI48/OmNFmvcjhjLqf1CLZZMEOC8mgt36kz1GtYmKVCmc0x84q6ZK7mo+9xEDTROH5n8rDqtoWeihpgL+RoPXbeEJRMUxFz4lB5+aXANayYokG82py/NndDDLUQL4tZVtzn0citOzBA+XLeUb4++ol3GXb5rc43yjD14CIZN0Kvu6PueoB4TlIHJQLB2xws9Jsig77tjDCBi9wyiYhps1hAxq1sG0iUof80EyTefzJkavFt437k9JsikyACp21oH6TVB8lX33nyd22OCUq/kuzap9pggRiB/OkTcqUl1bd/PQx96/useTFo6LQOI1566T0G+mbAzAWbSc4waioqYKLmKQVdbDEWFOJmwxZavw//l2tMPpiCX6EjedLfFWFZMcdsay6rDl+Wj8RPHHKa49RMHozrIX6mf+n6hNRMUmFCsVphMHHS+dI181yapwGSa1RDXzZmL3okajMdi5tNZ8p1D70QN6hxjYaVlaezsMUGB8Uq+zNCaueg1QeA8JqA+0pvKd4Rb5+LVIeclLYxw6xzxHPWR3hRG9CW/cJt8p4CX3SZo7XuCYM0E1YEpZqWnsy+ZoPYuEgk9qzAgpkFnDhmc5Moo+H8PXDOXQ71Dl6+G6bnzNzk4f8kEJV+HyaBnQlkzQTXfmIoemNDWTJB8MxGoW68WlkyQfNUp3Lbt0H7fz9KfumB80k4Ok1PPnpYl4CMxs1K3ZlR7IC9xxRTb70vc90Kd6UNcmtK/9uYK2kj7yFV8pvUIbvVpuYbbKUPhUdWUaTn6WEPlFg+0vYVbj8jy/UJ1VajXBIH+alLPYwYT69yEMjJJaQOxshIwZy5GJmpIjsl3zlyMmiA5Gu/lsWQuRkwQbuUoZlbdcDuV76gJEk/dxJ8zF6Pcyo9ppUlx58zFqAnKniB5JF9aavMd0Ze8aFzM5Oto89V+n1UTNHXHm9d6MGWCDJgat95F5v97TVByy12kmCYVjdMD17Y5TC35G/g1nvLWsGSCqrmUr3P8f48JmsrXuX7vgfPnTBAek6+2tXKhLXowZ4KqWfP+lBby6OuL3nh51SvvuPoS5mfqT12k7vJUXzHkK3YeO21F6u6QZ10N2Ipq/PCIe7+rv/e2movaD5JnVlq2rNhAbafoSlz/V95ebsMpHua4ffCb/s1J03LkUfcETSE6wK1c5b2X23s+8ezlV7zu2ouPyPTpEROUPUEmKsYsE0p7vRx7Jyl1ZCa0uTjGuylz4X3n9k7UyseX6+Q7Zy5GJmrXMTaZQF2jnClzMWqCtIOxw0H34k6Ziy0mKJgzF6PcykvfgTwFEddR8x3h1jntxmj5TBnjEX3JJ9xCtOD6aow/qyZIhRRuciaGVvQ9aE1QO+hn0DB5tRPfElxbTZA4chLX67mLdKiHowdi1BzElVcG/eQrLiGoyxpc4/pqgjJJOWq++GFAUs4SxKgmaMpcJk5y6IHrWhOUfGPWki+9aIsetCZoyqzJs2phat/Pb3n31WuZH6VWlnA39wWCYstfWV5PDj2Yq7uf6p6Ju5a3hmoocFKv9bt4Bgn8OrfXDLlWrjiouWpLZck1E3Yv5top8H91CLcjxk0e4bY+Xp/j9v3/5X80aVyOPBitKczpYA+3rQ6+/a5nbqwKfdttj19e89b1vR2A/7oxWrw5cyG3nknq2WvPXX7s+99w+W9///92+eu/98cuf/P/+xM3jr/26h+98dqP/k8/f3ngvgdvTKbKw8uoCQrmzMUeExRMmYutJiiYMxd7TFDQmgs32yPcVhMUTJmLvSYIxJFXNcb6sHJ6gLeW2ynt6nf6Bh6Cl90E1YHJxNVOGBF9D2KCXONIZ6+DKOwxQfKVu/8Tbc3X79539EC95JDBSa51EA7EJQANtAbX6jQxQeJnkqouGpS7xQS5zv/Fnco3OfQAhzFBrsNJ8s3AH9CL8noQExRup8wa0MJr3vuxyytvemZy38+brxugWrs6keiMS9wpS5k934GzVnfw/0zYPasBa4aiAj/Kd662le8SlvpBIFfxnCf2Wr9Q5lw7VXg93NLEGrepWwzFVD+a4vaRH/neSeNy5OEPs1b06ABabhnyOazpwCOyX/9zn7j8F+988oVX5uHaqU+HaQexTUqZUHC4NEk9+fFrlx/96zdf/sSv+7uXP/avf//i8S2/5n++/I9/4scv737nvZfbb7+9e6JWfjVBQWsu/L7XBAXVXNDTHhMUtObC2LbXBEE1F2KOcDtlgoDWqrnArXrtMUGB93GAW4ffezBlgoJWu7jQp4KXzQQplDjbO50WCK0JLcGk5FwVFn9uIN1igsR1zJk18JqOvzbYB+KJncFpzuSIO2qCkrN85zaVmzxGTJC4JnT5TpnLIDn0QBvJQZutTarEql490EbqTlfhYyrff/v6OJJ9P6+47fK1v/Lmq9d88+2PP/xTn3hm80feK5wjF/WT/9SETS9rda8wcGUCzIRdIb5cewxFC+dqW/FdM5XrWj9oEXMh36l2wIl8cTTXTlNwnlzkGm4r8r5jaYypeAm3b7tp0rgceVy7/84XSh7XAYRbdWxXJMH/e3Qwt1+ohRhTJiio5sLkPzdJ3fbTD1z+7P/jBycNz9Lxrb/x717+/l/6iRs89fCj/CkTFGSyViebndVvDWsmCGIuTOjOtXKxlq+y5yZqqObChuSstKxhyQQFMRcxb/Jdw5wJCmIucCtfGl3DmgkKwq1Dv1nLV1stcQvKVHcxcREtHG6CTKbIUJjBdm1g6jFBGfRNpp5RL3V2GDFBNd+1gdTrGqSdlFpkQiUQcdfyFbfXBKkXDqzarOXba4Lk607TYNKTr/fUrQcGcPn2TKoE7Pw1qBdDLAdxp3Kd3Pfznqu7f/QjT117w3vef7ntzk/9OQeH38Vbq/sctAsdmWC1oxzF9NqIoajQtpmwxRFP3BjWEUNR4Rr1FCPmIv1Arr2GosK5rpFTjJsN5bhVB2X16HsKcg23cg+3MRTtCmgPwu3L+YWJD37r7zhEB85XR3053Hq0gVtj7IgOXvfI1eJH6nG9ZIICE0qMRTtZ/8zfu33S4Iwcf/tbX/PiY5ElvtZMEODJJMkAZBVryVz0mKBAe+LAuJl854DbtYkavG+1Qtzku4QeEwR4sBqWfOloKd81ExTIjxZ8Mkt7LOXba4JAfnKNcVvq58rs4db19CKmfG+MK09fO84EZWDS2Q16PW5Tw0hkDnXQd54OvzaI9Jggg4Z44joMMGtxva+OjjmImzszk3+PERN3zQRlkhJXI4q7li/ulkxQu6Lg8PsaxHPuEtp8eyaqNRPUrtZMGaCefT8GOTEYSZ1LrKm77C2IuXCIrz6jhqKF60124om7tEo3AjG0kXh46LlpWQNuTQxypX/54uTl4FYb7skVHnvg7ht/42vKxOw97vzJf/Jivkdwq08Z7KMDx1ZesyrUfqS+1wQB/k2UeSwit5/422+bNDVbjv/+m//pqrnoMUHgegaAJl2zZC5GTBCenGv8FnfJXPSaIFBncbWxuEvmYsQE6e9ydayZi14TFG6NdfKQ69wq1qgJEksc+U5tpA9w02uC9EU6EMs1P/aGmy+v/Jmn95kgySI3dzr2qyCvp7HnTJAJPBNeBn2xjzBBH/zww5efu+sfX/7Jnd95+cE7/+Tl77/jWy4/8M4/fvkn9/yZy0888Fcudz32c5fnrj59cFHunAlKvnKVYyaYI0yQ8sR11+vRl44x9emwFksmqJpL+eLL4EqkaxDPdVNIvb0vX+KUw1SHaDFngqYe/zgPJ9HC0vf9zO37oVHx/JTzVLuOoNZdTIPz1r+ZFcT44dGAJb64cp1q1xGIIV7qrwyakO9WuNaqYkzVUdzGVBtjxPRTOXu4jQ7u/R/+3KSJ2XPc9Sf/Xy/RFm6111Zu6w0Abuk/sefGjR60ZmjEBGlTk5R+q64/9gM/O2lm9hz/29/8hRtlzJkL742YIOObCVi+rnVom4otJihYMhejJoiRAPkumYstJgjWzMWoCcKtMpJvjGbNd4sJClzr/7hNvoFyRkwQHkAbveHOuy9f/pMf32aCTEoZmOoSuteRt8UEtXf7hJPBfq8JeuiDD1xec8dfv/zNW//9y19/+7+zePx3t/0Hl9e9729dnnj2UysjytUwdUDPQJp864CkXntMkHLCb/b94EI5W01QzZcY8p6y95og+Wp3WtBu8vVzjwmSr9yU572qhZiguu9n6ft+5rRFt5lUahkjmKq7OOLpoOqmLr0T9pTxEw+P8ldWzNAoqq7kK1dQBk7FH8kVqq4MUOFwL7fOlysO6hhDE15XXrjtxZQO3vsnf+ekmdlyvPsbvvbywD3vflEH4HdlbeW21YG44Va/3bKSmfH7Z9513+WPvfWRG1+2eNMDzz/mGjFB4BNgf+bf/F8mjcyew6bqj3/k+a8QmTIXyh81QcGcufBzqwkC10+ZC223xQQBvc6Zi60mKJgzF1tMUKCO9Cpu8gXnbDVBgfyTr3M8Gt5qgoDSXzH6B1Tf/czzfxCvHZiCLSZobtCv2GqCDJg/f+cPXf6H2373pOFZOv6Hd/wnl9s+8hM34igX6Y4lsxao1xYTlMGpNZegDOWNmqC1fPeYIHwkX21U20c5W0xQnVSrWQuU8623Pnr5ypueW/2+nx5tyTmTyshKy1Ldg7SnuuB5bcL2vvPkOmcc5Cqefia2PNYg5pyuAmXhB+faQy5LE/aUrlrs4Vb95CruFLdeD7diLnG7pIOra0/d+GOnU6Zm5Ljrd3/N5aG775zMdZRb78vXAD+nA+WIqY/1cut9nDmqDrJf6A/83PUJ+MPTj58qlJVJ6oh9QHPHD/2lm26UMWUulL/VBAF+W3PhnD0mKBAnk7V8cb3VBAWupV1xk+9eExS05mKPCQpwm3wdvnxxrwkK5It745mc95igoT1Bv/7tz97+k3c936BzA5NBZsQEmXzXBn0YNUHOVdl/dvv3ThqckeNnH/reG+VqGAPu0oQaKHvEBIntGsfSJKXcEROE27V8nTNqgnom1QzQIyaIJuqk2ubb7vv5Vbdc/f7f/I5PvvYnHvvktfuvTyr1bBz0aCuQZ8xFJpUp9NS9hbrogJmw2wkwk573p4zfFGIu5LtUPzrEQW+uqZ9ctIvcKmIo8LOkq4pebtMPloxlC+XLQ3y5TnHbo4MP/bffPGlueo57/sTvvHzsI9NjYsUat1UH8nX+GpwTbh1L3HqfDuqKSsXcfqEWYpmkrAL9F7/pByYNzBFHVoOCai5Mgj72vYaliRq0A67FNfkfYYKCmAvmjQGYa5uKORMUVHNh87C4a6ApupszQUHMBR7MCWt6XuMWYjRtRhabVtcQfS3BmKJO4cA1S/l6b78JuuXZ21/3wHJH7zVBOrvByyalnkF/xAQRsIH2tXftN0A5furB774Rd20gDRDda4IYBXGXBidQpvN6TBBxmkjwu5avQbTXBGUySb5Lk6r27TFBJi1c0YG4U5Pq3L6fP/vgMw//3Ts/cO3+939qpaVOJL2GokKdMqloxwxc4vh/T92n4PpM2JkA20lvqu5LUH7MULsa4Hf5agNxR3IF17hebmIm32hAm43kCi23+Q4cMf1/xFhWhFvtHW7pblQHT77zjZcHft9vnDQ6U8dd//6vunz4dT+0m9vkqs226ABwZgINt7k+OsDt3FdqtFgzQ2KapO5+y8OT5uXI480//KlJKzBZm/zkIBfj3Rx6JmowWTNXibtmhHpMUIB/xsJqyNIYD2smKJCv8ns+Ut9rgkAcHCxtRg56uVW+MUpcB26X8o2+eiCWmLhNvlNQB+MAHoJhE/SqO69uv2elA62ZoHYJvXbWJfSYoHR2cd9692snzcyew6pSj7EBeaydm3x1PHysDU54UrclE5RJNYath9teEyTfGKueSdU5ayaoTqriTuXbs+8nZdGIQ7wtE0lFzEUmFT9N0D11X4KcxNNGaae9ueI45gKP4sdQLPHfA7nJMdxuMZYtwq085cvAbTE/LaLl5LmV2yfe9jOXD/ylPzj5h1bv+m3/0uXuP/v/uTz00//brlyhcuuncW4Pt/IJt9EBPrZwm+8Xsl+o/Uh9JimPq6aMy5HH937zT79Q6kuhfHuYGAFj6Jy56J2oQV9hVsQVf8lcjJgg7SymPrlmLnpNEDhPnlP7hSpGTBCIJU+xcTtnLka4dQ6+Ejf5TmHUBHkchtvk63p1rsD1bhO09j1BMGeCsoReH83k7q8HSyao3kU6533vf/Dyt9/xDZNGZs9hU/V7P7j+nBTkM2eCcJB8NYqf6rAGgyPupkxQa4B28uwAAMkISURBVC79NPj1DKiZOOaEHLMWfomsB9p4zgTFrCVfZYhd0ft3vqItn8Yy8Dv2fnookJ8JOnH9f68BSN0zSenEYnp9D7SjXPGpjea0MoLoSo7ypZOjuZWrn3u5rWPM0dzSZ+VW7KN0IEfaNxZkFWsPt/KSX8vtVkx9v1AmKX8CY8q4HHn8+d/2j26U2UL56mZ8MbnPmYtRE2SiNoflMc6cuRg1Qdm3Io9M1lPmYtQEyVFc2hR3ylzQGU2MmCAcgGuqubAZORg1QdkT5Ei+DvxURF89UNdwGy1oF/1JmdHCZ9UE6dQGaJXW2TN4pGF6MGWC0tnFrXc6b3jgBydNzBHHT97zN18ofRnyak1QzJoj+abRtpqgOvB7j5ich3MGJFwvYc4EJV/mJ/mmHXswZYJas5Z86SUmaPTvfCWnaMshb2WIu2VSaeuOcxqkbQOvTjoKedS6KwNw4P9e35IryEcHl6vBmVHBh3y3PLaa01V4qdyOQq7hFqd0JZ5cHVu5bXUAe7ltdYDXcBsdjHI71QfgKG5xKFdx5RpuxR7lturgm970wcuX/dRTN8yQOCapv/jv/tCkcTnysC9oCsrXBsGcudhigmIitIM2Erc1F1tNUNCai+S7xQQFrblIvtpQ+28xQUHMhb4Qc7HVBAUxmvnywswV0VcPqgkKxMFNfUSGg8+4CdKJ09kV3g4WaZgetCao7ex5/Znnnr78rdv+40kDc8RhNah+dH4O6lVNkHzrJJV8/dxqguYGfvDeVhPkGvmLK9+6jJ4ceqBdYoLmJtWAXn7oPR8e/r6fOW2BMtTDOerYM6ks1R3qhO087bqGOeNX4f9eV5f0nZ4JW/nyMDC1+z38Ll9tMDJhL+kqqNx6v4dbMZPrHLcGrHDr/DX06GArt/rvnA78Hh30cps+4Nw5HcAWbqsOjJU1V5C/tpTvXJu2mNOBR2Rf9lNPXv7QLzy86c9jbDmmYJKsJihozYV+sdUEBVPmYq8JCmIu5CsmvW01QUHMhVydo/3pY48JAvyIE3OBW+VsNUGgT4iFnxhNfU/uPZgyQQHeowX9wk/5By+bCdIRNebSoA8qXxNaQkyQmEud/b0fv23SvBx53PHIT71Q2jzkqCHr4DS1KdH/R00QPtcGfgPYFhMkX+LXEZXT5psceuB6OYgv33Ywrfi33/HJF/f9vOLmy9f+ylvGvu9nCc7Bk2uWJsC1ulf0TirKmzN+U8AVvcg1E/YUcl41FHNwrnhyzYQ9BWWt6aqFOqnbErfiyNV5U4aiwuvhlibnVrG26KCX2/RZ2u3RQbh1LHGrfLnO1alFD7dTOujhdsm49egg+4W+8f/+DydNy9HHFExuUyYoiLmIGTAnrWHOBAXVXHj8doQJAuXKV0yGjXFZ0l0wZ4JAGyZf5kLsvSYoUB8ciM3YmNvWMGeCAu1D7+I6z88eLJmgQL1vvfXWG+3lUTlu4HATpJNapVARjmttYJKIDtwDHVfya5399e/7nknjcuTxo/f9xRdKm4d66aBr+Xqt1wTpKLglTj+X+DWQjZgguSbfKXMZiKfsHugYJjJt55qpOtZ9PzT2FTdffc+/d8dzd3/PnR+69vN33X95/wuTSu6iRwxFhXNdM7UakElvre4tnDc3qWQi0UG9P5IryFVOJiLXigd+97pjbdJr4dxM2K5Pe2wxFBXOXeJWeXJ1zgi3zp9axfJzqw7ANVPciun19Fn9rRe4zSpWbe/oYMlQLMH5U9x6Xa44GNWBekUH4Ra26OC7vuGzvydoCeqqPXx6SLt6LLLEk/OXTBDgyERuo3PPJ50Al2sTNcQo1P1NS1gyQQFzYT5Wr+S7hjUTFOBWvlaG6KjuF2qxZoKCGDe5amPXLaHHBIHxLjzoT+J+6NnnjjNBOqdCdB7CXGs8ICYdeQnp7GI6PONeEvE/vvtPTxqXI4/vv+P3vVDapwMH8s3GzLXByXtrJigGgMjE1TnWBift0WOCki9xOH8tX/G08RIymIon36nBdGrfj0dfP/zE1eM09qGPvXSlRbsrt04wW5D6GujbSW9kIqmokwoe/Z6JRBl7gDtxxGMqlSFXA9uWXEE98cigGkD2GIqKyq0j3I4YyxZiiqXeYvndALZXB1C59RMfe3TgmnDb6uBobqNZcffoILEqDyO5/p1ve/2kcTnysPl6Cj0mCLJvxfnaZclc9JigwIqej6eLm8c4c8Bpz0QN8osBkK9xfy7fHhMExmPniplDTnPoNUHhljbxRkvMxZQme00Q0KIcstIk/pzR7DVBcjJ2hAfG7W33PXT5ytdf22eC2jsdxCKvp7HXTJDGz6BvQjW4rHX4v/uub5o0Lkce/qzGFOSLA/nqnDrJGtRnyQRVc6n+fvZ84mfNBHkd9+I5z8+eCdt1zp1Cu1ojX7GreD/t+35uvvod9SPvlQWxcCoWM9X7GKEH4mkjsZWxdie3Bsav5urw/yPARCRf+pJrVlq2In3WIButHsEtrR7NLS1Xbun2KB3gVlyHwXQvt65lLuQYHnrGgR7goHKL660GKMBtdCDmqLn0HT5TxuXI4x//1Z97obSXwkSGizVkojYJG2tdN2cutH+vCXIj4lyTOu5iLqauHTVBJmqQ75K5GDFBNCleVlrazcgVoyZIbuLIp25GrvmOmCBtg0t5G/NwF6PZ5jtqgtQZcPHat952ecVPPbnNBM0tnZoA95ogBHhdw+cu0s8eE/Q9t/+eSeNy9FFR882+H//fY4Jac4lbB673miD5xlxqN4N29gStITm0SL5yzUAqdjVBW//Ol5/aX84GPflvRdpKjvJzpAx12DIBui4rVdpcHxA/Gphqgx7QRHSVtvJ/uepfyh1F2im6kqvfcevYyq06yg0HcqWpvdxOjTHhNjrYym10kD4b47KX23rDUrkVeyu3rQ4qt1v/SG+rA48xxB3l9smPX5s0Lkcer3vN9JcXem3UBAUxF8xQXVXdYoKCmAt5MQN1stZeW0wQiKP9p8zFFhOU/4s1Zy62mKBAXXGAW+Ofc2CLCQpwTe9e86iwts9WEwT2BH356N8Ou/c69wjUwTMw1c7ideRtMUFTnT2N3WuCPKqaMi1HH6Cuc/l6fYsJmjOX4KfXtpqgOvDHXIKyt5qgOph6PfUAucvhO+55+qX7fm69+o4tf+cLv1snlbatqo6UoSwdJBNgz6RS625AqbmKr+Oq/+iE7Ty54qDVFcjV+8p1rjzWsKQrUIY6hNveXEHdXCdXcY/idk4H4kcHo6Z4aoypaLmtdZlD1YF6ttwpw9glXz97uXXekg68rx+bBHq5XdOBiXCU25fzCxN9UeKcufD/rSYIxDH21v039LHVBAFuk281F3jeaoICMWIuku9WExRUc5F8YY8JCpRlM3JW3RxbTVDgWquh3nPgdq8JGtoT9Jtvv7r9rY8+vzl3rjNvMUFrnR16TdBnYk/Q993+n93I1zGXr/dGTRA+5gZ+8H/vjZqgqYG/5uv9URO0NpjCt7/ricsrb3rmxUdf/s7XK2+9es33Pnb1iBXFerZ85SHW2kRRJ5W1lZa1ulfkXHXKpDKFnroHYmZScaxNKt53nlzFXdK795Uv/twEuGYsK5QVbnuMm/fDbTXVU+jl1uvyNbD16CDcir3ErTjOcazpAHq4HdHBFm57dRCDLw88z3GrvB4dwAi377v3A5c//mv/zqSJ2Xu8713Pj3V4bs2FSXCPCQq8LpbJ2iS5xwQFNI5nceV7Y//JThMUmC+Sr5hM3Brwpx1bExS05uIIEwQxmniSr589nySjN3lModWC8z5jJujX3fLs7a+9Z3nSGTVBiO/p7L0m6Mfv/8uTxuXI4wfe+cdX80V0rwlSL8vaOs3SwO9154yYIPy6ZmngN3COmqClwTT7fr74TVffl30//+otV6/5w+/4+MP/8KGnr32kTCqZ9Ay4U3fRc1AP9VlaacH/Wt2noE6ZVMTMpBJDoay5us9B+XWlBecVYnq9x1BUKF8euIu5qNwqR65rhqJC2WLKdYrbGJoeY9lijtuqg+irF8pXP/lO1VP+GWNMXKPcmhArt9FBr6GoMCnEXITbiq06gOgg3DJpEG69N6IDWOI2OjB2/NDf+PlJE7Pn+IE/+/MvlPQpaAecm/hsHrbSsIa1iTqIuTBRq5PrlrBkggKTtXztvzFha9M1rJmgQL44kIO6LWlF+2urORMEzom5EJdpodcl9HIrjjrJFR+uW8pXP5gzQYF8w618zQVL+Spvtwl61R1Xt991bblT9pqgdHYDQU9n7zFBOvvbH/7xSeNy5PFTd3/far7qtmaC5GsviQ7n/LXByfsavccEcdvOXTNr0GuC5Ltm1qb2/Xzz+64e8Ojrvk88ebn93e+5MUgbXPNttuKNTCQVU5NKtKVTrNV9Ca6Vm/g6rZz9f231aQ7yyKSCb3H2GIqKxJGrwTncjhjLFnIJtw68yj262porVG7pWew9OqjctjrAbfbqbYExrXLrkOtcH+hB5VbsmusebuUTbvXV2sdoZAvmuI2p0n7O8ehqysxsOf7a737Njb9QPweTNVORT2ctrdz0TtRgPImxYAKWTHOPCQpwJd+1TzpBrwkC54k5txk56DFBgXPx6pAzbufyHeHWOeI5cGv8c/0U6GvNBAX6kJjMULtfqAIvu03Q2vcEwZoJqoO+w+9zIqtYMkFZlkbcO9/19knjcuTx4SceeKHkeajXnAlql9FNiD0DlAHO+UsmKIOpg9B6BmllL5mg3EkmX6tLLV78yPvPX15NKz7y/nvuv3o984OFmoU4WaHy+9J3S/TCIJ2VLwexbx30K8RIvelVrllp2QoaNimbUOSqrTKR7AFdvVzc0kfijq5QzAG3aTPtdQS3BmvjhJjhdquhqNAHKrdyz0rLHmj36EDco3SQPi2uie8obo3t4Vb8mivTcoQR+m9+1w/d2HC9BpOkSc/Khd8ZgqnJetQEMTb6Ot7qfqG2XUZMEGMqR/x5dLNkLkZNkPon/py5GDFBID+rbDQZnqfMxagJyp4gedT9Qi23IyZIXjgVky5d52i5VcZn1QSZjBWO1Nzp6Kg1oSXMmSCDU5alNb7Gfu293z1pXo44/sld3/FCyctQr9YETS2jG5w0Hi7WsGSCwmXuJJ3j/3tMUGvW5Otcvwdz3/fjU19vu26AaukxU4SoLXPHKr73tg7SqbuD9kys4b+n/lNo6y6WmP6fRyNboYPL04GL/O71LZjS1VHciqnedJV8sxqwldvoQG4G/JSxl9s6xshVP/DTa1u5neoD4Vbee7iNDvQF49tR3LY6CLf6yVZu6/iyxu2ejdLf/U2vudz3nrVZ5nmY6PClfeoekdZcbDFBmfDxpxyTdcxQMGqCsm8lK4niJt+KLSYoaM0FbsBPbTVigrQv4Laai8rjVhMEuJYPDlujKXdl9SAmCLdLWvismqB0dh2HGFLRNEwPWhOUgVQlvZ5Bw6D18CMP3PgbX1MmZu/x7vdfn/E7oF7VBMk3BqLmqz57TFAd+GMuxVQeM9AzmCq7NUGuq4Np4iSHdt/P0kfe01aZSGpdxROfODMBjkwqtOVadc/StcPv6j86qUwZinqt/+NbXbwu317Iw7Umkrqaos0MAplUenOFOV2B37dyK2ZyrboyoKi7XMNtL6YMxRK34acHc2OMvPHivZafJazpwO/a0Pgzyu2cDvZwq/yp8TCIDsJtb67OlavxQVxjRA+399/2oRuPtKaMztTxLf/2P7n8mu++9/JNb/pA90RtksRToB20VWsu9pigQE7ixly4ed1qggKTdfJ1OAf2mCCo5kKbq7d8tWMvt9UEAW1NmYs9JigQJ9zGDFkp91oP5NJyO6UFusUHHoKX3QTNdfYAsTWhJcQE6Wh1IFVehYHWa6+/5+9Nmpg9xz9993/TPTCpFxOUwUm+GqAdnHCy1QTJBdftwA/K3WKCkq9cpwZT//+GWz/x4r6fV95x9SXMz9RH3jPpyVPe7URSkUkXT7QjjyVUbc3t9xAzk4pjre2U6Rq5TtW9Ql2cJ77rliaV1K01FBX+n0mlx7ilneZ0VTHKLd2q21yu4PVwK/YStzEUPTqAcNvzHThVB1NjDGzhtlcHxppw65olbnt0ACPcVh3Itx0PK9Qj3EYHa9zKAQdzj+nWuL37LQ9f/uF/9cbJP7T6Z/7N/+Xyg9/5CzfOgfw9sle9+dnLfU+umzQTXDVBQWsujIN7TVAQc5E23GOCgpiL7BfSn/eYoEBdvG+/kJi33377ZhMU0Fq4dY7f1WuPCQrkJi4zpF393oMpExS0WvBYD8fBy2aCFKISa50doTWhJXCIzs2G37mBNCbIQO5vfE2ZmS3HD777Wy8f/PDDiwNShVwNDBmc5vLFy6gJElf8pYHfADdigsQ16STfqXzafT8+8v7r3nrttf/ovR+9dv/1cmpJytcOS3WfgnPVTR6uaSeV3omkwjlLKy11IlkzFBXOk69rpiYV7ysPB725el8ecs2kUrG2mrKENW6V5X26ce5arpAJMJNlm4syoi99sjdX59G2AW6K2y06MCkscbtVBxAdhNvWXOBmRAewxO3IDUYL50UH4bYiOsCtc3py7eE2OpjSScXrHrm6fPnPPHP5c9cN0ZIZMqkpaw4xF/n0EI7WsGaCwDn48bfDnFsf48xB2XMTNWhL+nGODcnMi3LWsGSCAmXjSq7ylu8a5kxQEHOBA/mKu4Y1ExTEaDo3q/tLWDJBQbQgZuX2cBOUzuX5oQZd6+wavoc8HcjALO7aQFpN0HNXzxxihP7B3X/y8sS15//Cetu5Wxj81ItAONq1wQk/vSZIvbIhcW0wDWdLZQO+fILEYDKX7w9cHzum9v18x0PPPfyP7n/02h333Hujw+AmEwlhrg12S5AHDg2siUkrjpGJJHBuJhX8yVVMhzJGJ5KKTMh1UhEfJ3IVdyRXkGsmFbHFk9sWY9mi5VZMZcRQ9GixonKbCdDye7gdNRQVyU0ceT311FM3/i//LTqAKW6P0IFrwm3VgTJws0UHc9zqs8oZMZYt5BNuxTA5+j8dKM+ktZdbk89WHVgVihmawpoJAmWri0m1PsaZQ48JCugvHyXPY5w54HptogaTvtUKcec2I1f0mCDAg9UwdZMvHS217ZoJCuTHCDGa2mOJ214TBHQdDsLtXL5y6OFWv6EXdYsWHn762nEmCKlI04F0zh63qWF0lDnUCTUDyVqnrCYo+NmHvnfS3PQcP/HAX7lhppSrjo45yDd3OzFsaxB3zQQZONRfXI14w+Ct8CCXNRPkvUyqDr9X9O77MfBpI+ZiLtYWyC+TitgG0bll+V64VicUTxuJbcVhZHCeg1wTU3ztuidXwK16J186OCJXMfSn5KuMLZNehQEQl5VbnBzFrXgO48yej7wH6mu80qfke5QOxEh/Dbf64x7gNn0s3B6RK6i3mA5jBoO1l1sxcGvC3cttzND3ve+lOfWYIDAXMQDycE0mwCmMmKDsCdLPpzYjV/SaIDDpi5t8HbQ6hRETRJOOrLQsmYteExRujSXyCLdTZmjEBOEx9fZzyWgqr4db9dQX5an/iPtjb7j58sqfeXqfCZIsYgme0E1SyOtp7DkTFPOTOzMTqthbTRA8/MRdN1Z0pozO1OEPsd7/8U9tglbunAmq+SI5g+ARJkh5+HTXkUeBdWP0HJZMUPKVK07xZXCtHe0P3vOp7/vp3fdDqHQglrrvHaSjLYfBjtjpas+E4lpcyxWvOabadQRiph+Il3yVt7TvYglpJ3GSr7hyPYJb7U8j8t7LbVZAaUmudCVfsfdyGx3gVtyMCXu5zQ2LmHg4gttWB+HW61u5TR8zvrwc3IpFC/L0MzrYwm3VAW6zKrSXW/uFftdbPnF59W2fekRmEhN3DZmojW8mYHm51sGcVGwxQeC6mAscKqvOVaMmiLnBo3zzGEd7t+Zi1ATJEcRpzUXNd9QEqa8ywu2U0XTOqAkK5J18vVfNkHJGTBAeQB5vuPPuy5f/5Me3maDa2euyNPEjr6ex0zBBnVCRWe8i95qg5HvTXT95+afv+suX//Gdr/404+OPr77ufX/r8r7H3/HCVZ+CcuXlCOrg1OarrD0mSDnhV92dJ7Zytpogr9V8U6afMUFT3/fzW9599VrmR9vXIUy8dllennjYM6nMaUtcr8tfzJFJpdZdR0hOYhsEaJa+RnN1vpxwUHP1uny3TCpz/cDA1U4qo6i6qqspLbdy6IW6aTO5Vg5xkQl7C7dzOhBHPIPfKLdzOjiCW32g1QFEB+KP5BpD0eoA9nJbdUD/yTWcyzXc9mJOB3u5rTr4y7d+6PLLf/rpG4/IfvQt7xg2QUHMhcc4Ysdc+LnFBAWuZ0zaLy/UdqMmKKAB+nF9u9Ky1QQF1VzQb8zFFhMUtEYzXO4xQYF8cS7f7BfaaoLAnqBXjP4B1Xc/8/xfSJ/q7LDVBOlAuXvIhFqx1QSJs5SvmF5fg2s0jKO926mDU6DM5LAEcasJmhv4QRnKGzVBS2YNlPlXbn348pU3PTf5fT9vvm6Aau3ETjwdtq07iJmBz9Ez8Imz1FaB/J0jvlyWJpW1uoMyMqmMGDfnqZtcxZ3KNe2p/J5JpfaDqVxBruFW7B5ul3RVEW57PplVdVANRcUWbr3fowM8hVv1W+K2RwewhVvnOFd/m9OBsryHp+hgjVt1kuvUeAhbuK06cJ2JaU4H4VbMJW57dAAtt3JZgxxx0OaaR2R/9M0fufH/JUxN1CDn1lw4Z48JCvBXzQUdbzVBQTUX2S+01wQFXq+P9PaYoCBGU77yxMleEwQMoHyzX8gN/B4TNLQn6Ne//dnbf/Ku9y0O+gYm5PWaIBXwU4MS+lwH2mKCECmXpXzF9P4aXCueBszgtJQvokdMkBUV14g7N/Ary/sjJkiuS5Nqu+/nlTdfvvYVN1+95k/d+9zDP/HYJycffa1NJBXqQagZ+ObO72mrCnGcNzep9BjVFsrMIL10x+p1dTGRZJVuDcp3TSaV9ppMJGv9oCIToHznrvGach1zumrhGvWSyxS3W3Rg4OrldkQHEB2E29ZceG1EB9DDrZjRgXx7JnVxooNwWxEdeH/JUFT0cJtycaA+c+anBb5cI/4ROoBwK585g5c+hgNj7lyuc/uFKpYmamBm5B9zcYQJCmIuxGUAjPNrmDNBAT6yXyibh9egnfA5Z4Ig5kKdmCBz85pG1rhVbsyQmGLTyxq0/5wJCpTpHDFxOzemBOqy3wT5A6rv+eCLS3FTMDDojGsmSIfSaTQmAbpuCSMmiIDF7ZmkxDSArUFjiovEnsEpHXwNcsujo7WBX5m46jFBxKn+zp8bxOf2/fzww49fe/277r/c//7nB74MdqMTSaA+GfjaO9YMdiOGoiJ3tjpWJhVHj1Gdg1wzqYidzpWyMun1GIoWmVSy0oJXRyaStX7QYo3bGIosHY8gk7zc1F3cPTqAOW736kAe4TY6ME7JV3/dooM5bqMDxx4dhFsxk2t0cAS3mXCjA/VYMhRzCLd4xK3/+5TeHh3IgSbbx+bRHB3ItydX+4Ve/Y7nXrJfqGJtog5w47t0GAuT69r5PSYItK06ZXVFPkv1WjNBQCvyVb58zU1L87Lz5bBkggL1FpNxkYt859DLLd2E2+S7BHpYM0GBeonpEaTr5vLF+W4T9Ko7r26/Z0WURKyh50xQJlTJ6kAS6ulAPSYog1Pi9gxOYi6ZoOSrfHGd35Ov8tdMEA6cZwmS2NZyVa4clkxQJlYicy5OWvTs+1GWwS2Tklh+9tR9DuqXQZpJVfc9hqJCru5ctI8jjwL3IBNg8o1R3ZurvLR3BnrcGtD25GsAnOJ2i6FogVt8Jlc/j+JWPPlqu6O4jQ4MeHN9YART3Mp1i7Fsod3lmFz36gCmuO0ZX9aAx3CbnPfmKmaMX/qY+CbV0Xy/732fnPx+od6JGnDHrPjYt9UFbT1nLnpNEOhDYprYM97PmSHvrZmgwHlyEFfec2ZoxARBOEi+c+ZihFvnyNXKlbiOOTM0YoLE8DjMeCe+fKf6pv/vNkFr3xMESybIBJ27BwYhpqUHSyZIRxRHXOeI3bMKA86fMkFTj1N0Vo3TA/nM5ZB6azSN4mfPQK2ecpkyQe3StJ8GrDpIzX3fz9K+HwIzOPmZO+w9kI+BzkGsyXUPat3lmnzl2j4aGYWYydVP/9878MsrG8rpQK7afy+3YshR3KO4rTpIH9Mn9nJb++xR3NYbLBoIt2Lu5VbMcKtfid07FsxBTtpMTOOQsSB9bA+3GV/keRS30YE4YjsScy+3xkkcOBJ7T64ekX39mz71/UIjEzUDYSI1h2mPul+oNRejJij7VhiRmAt1b83FqAmyYhMzPWcutB1eR0wQDiCPyOTbmotRE5Q9QY66X6jldosJwq048s1+Ifkl38+qCUoHkqzOHoGnYXowZ4KQpTxGhtC8L4c9JqgdnOQrrrJ6Bz71anMQx+vi5q43jaa8Nbjeta0J8no1l/6vDlkNGfk7X62ZwqkYfsp9z8DXthUjQKheq7roxZRRFSP57plUxFRfBjVtpe5yNan06qAi/UAc9U59k2u41QYjcE2rK9zidCu3czpwiOf1rdy2OqD9I7htdQB+95r4W3KNoag6qNymv42g6kC75/qUVbkdgTjRgfxMOlW3jlFu53QAe7mVi3yNUyZFY6F85c7AeX8Lt3j86Tvec/mWWz56Y2Xonz7w8WETFBNh0ldHE7KJtZqLrSYoMO5P/SX1LSYomDMX2hDXW0wQzJmLrSYI5JR8W6OJjy0mKFCW63Fb8/2Mm6Da2QnJexVpmB60JigdyOBUl/x1WuVsMUFzgxOIr0xHD+RWc3AdXjLwJ18/t5qg5CtX9aj5es/g8p+965mu7/uZMxQttgx8c20Ffs/AlwmwZ+BTNs7k0tY92DKp5Jo66dV866TivB49LE0kFeFWG4xwO6Ur2MJtrw68H25x1sPtkg5gC7fKlW97g1XhNfXQT6KDNW5dIwfHlA62cDuig3Dr/V5u8SYfE8sUt7nhELt3vFnTgddGuY126EC+mfgCuYsp115uowOc1bHbfqFXvemZy2/7qYcvt35gfVNya4ICnFpdNLE6nLfXBEHMhTiZrOltqwkCPLTmQvvjfKsJClpz4Ws2tpqgACc0Jm7y1eb+34MpExSob/LVBn7iIXjZTBBxE4iKLHUgjVUTWkJMECLTgaYGpy0myLE2OClDfRw9kKMcnJ98pwZ+/x81QfKr+apvi7/wwHOXr7r56iV/5+u3vGv++36ULxYu1gYc78thbeBbMxQVBgP1qQPfFOYGuyXIVR6ucf5cDtoLB2u5gvdxlYlnKo9eQ1HhffF07CVu13RVMcLtiA4gOhD/CB1AD7dVB3N9oEXycE24nQJ+lC3Xdvm/RQ+3W3QAznP+ErdVByalpVwh3FppofclbrVrrw56uM05yhbXWL6Ur/PDrWOK215jObdfqIX2nDJBoJxqLpS31wQFys1kzVTsMUGBsuQYc2EVZ68JCmIulO0nM7SGORMUeD354tXPHiyZoEC+Yjr00+juZTFBVilURGPOdbKAqHSKHhjoOXGxlwbSERNkUMmAIO7S4KQsnXCqI05BvZC9NvB7rdcE6SjytMIzl+/Uvp+vePvVa/7o7U88/D/d9v5r77+ef66pE0mvoaiYG/jE8fpaW03BuRn4xAjfvYPdElzj2vY7cDKR4NU5vbk6L5NKJsDKLX6Ut9YPpkDD4VaccBvOew1FxRy3e3Xg/HAbHYRb3GzRwRy30YH/79FBuHVtuI0Oeoxli5bbfDKr6kBdtnKrXSq3VQfirhmKCueJSe+V26oD+SpjFEvcxlSZI0a5zSpWOMSBXEeNpf1C/kr93N8jWzJBgXKVaULv+WQWyG9togZzgbgMC86sDC1hyQQFzIX5OMZiqW7BmgkKtEc+mbV2w7BmggLv25QtrvqtcdtjgoCe8VAf6X3o2eeOM0HpQISuY601Hjhfh1lDBidx1/5mUK8JqoOTY60DKVMejiWII9dszFwb+L3XY4LEVba4zm/zXdv38/D1xr7//R+4IWxCMEhlsOsdQOZQBz7towyTnteX6r6ETIBi0dToYDcH15rgdJzoyiHfLYM+6KTq3nK7xVC0UF9x0laOUUPRItyqd419BLfRgcPvytmjgylu5brFWLaQl1iJGR0cwa0bKxoT+wgd0Ga4lauxUDkj5qeFmOKJm3yP0AGE28RM7ltzdV24rTrw/9FcPSLL9wu1q0I9JihgIv0Fdcai3S/UAh89EzWYoBkAeajrkrnoMUFgrnUuEyLfNXPRa4LM81autG+7X6hFrwkC7SuHrLrhdi5f7/VwKyd9Uf0duH3bfQ9dvvL11/aZoPbugSiR19PYayYok5S7nSyhrnWiNRNU80WI+Aa+NSh3zQR5T93FM0j1rEaJu2SCkq+GVn8ctxuje//Ol7uncMpMOXpy7IG4iYkD3yOS1YCtUG9xcRk+9w7OkAlFTHzSwtKA0AO6k6t4R3PLtIUDGpDrHm6zkkB3BoIjudX31D3cmrhoeA9cH24d2i4rLXugvmIlbnSwh1s6wG1M25Hc1r4gX+UcwW10gAvHkX0sq+xHcCtXccULDzjZCmaofUQmx14TlD1BJnWaz+Q6NZaMmqCYFG2zZC5GTJD2YNzku2YuRk0Qg+OIuUi+FSMmSLuKhS/t7ffk22LUBOEBcPvat952ecVPPbnNBM0tSxsE95qgdKC65C/hPSYo+casJV8x95ogryXfLKP7f88k6Fx1U+cKHb7mq07y9XtM0Ojf+coAos7i+amt/Nw68LVtZWDISgsNKHd04GvrLqbf5bp34HOtjpBc6cD/xccBnYxA3eSKz+jqKG5bXT355JM3/i/XcDuKVgcGqiO4neqzuFCO+Ft0MNVnw2361x5u1Vmu4sp3D7dzOgi3jq3cVh2YXIwZe7l1jXz1U3zSVlZaooMt3LpGrrlpNfHt5XZOB+FW7D3c/pGbPnz50n/+5A0z9K7Hnho2QSC/JXMh51ETFCyZi1ETZK4BeeByzlxsMUGBMpIvfpPvFhMUuCb5Omq+ft9igsCeoC8f/dthJlciTmdvByKvI6+nsdMwQTqQuBlIJQ4mAZ0q/59Da4KmBqear5jKWoNyNUztbFMDf/Lz+hYTlA6vnDZfP732t+752PD3/RgwCKDWXdlbBz7nzbUV4Nv7ylW3noFvqe6gjK0Dn3PTVu0jVWUoS5nylmvPpOK8aiiO4nZJVyDXcCtmD7dLOoA93NL5nA7CrTIzAa5xu9ZnxTcBtXtaelB1kBuWiq3czukAcGLyCrfp62uoOhDXJLKX26qD6L1C/Ohg1BQ713Vyndr3M8rtmg4gfSzltu/PoeogxjL7hX7f6x8cNkHBnLmQ+1YTFEyZi60mKJgzF3tMUKAs/MgXV46tJiiI0fSeujOae03Q0J6g33z71e23fOyZGyLWUFOCI1jk9TR2GgbSgQykBNN2oC0maG1wAq8rcw3KlaNDHHmLOzXwg/dHTZB80+Fd2+b70x955vLKm555cd/PK267fO11A/Sa73q4//t+pkBIIwPfWltVeB8XGfjkNYVa96VcYWTgqxPJXFsF4oinUy1NKl4Pt1OGomKEW3HWdFWBJ+WLP5friA5ghFt1kW/PhvK0gzzC7RS8nj471QcqnBduHUvcjugA1EcOS9yO6EBZ4dYqiVyXznee8v1szU+LHm7XbjBayDXcir3EbXRQDcUSermNDtZ0WLldM8VVB1PcZr8QM7T0KTKYMkFBay5sHN5rgoJqLsTcY4KC1lwcYYLA+KdMj/SUL++eT5JpwykTBOqSfOXpvM+YCfp1tzx7+2tuf+9iBxo1QZ6lRpRTd2bBiAmSn4msZ3AS06C4BuVqGOer35oBUKdeEySmPQ5y9vtUvnXfj7b4VTdffc/vfMezd3//3Y9du/ORJy9PvjDw9dw9zWFt4KuD3VJbTSEDn7zqwJeJZKnuU1D20sDnd7kqs2fSq5Cja3Fh0MykMmooKnq47dFVC+U7n84zAYZb723RwRq34SeGAke9kEe4FTPcRgdeX+uzLVpuaz7ieG2LDlw7xe0eHSjb+XOrWP4vX2Ua6HtzhSVujS9yXTOWLfBlUsZt2z/XDMUSxJnido8Olm44xIkOenJ93SOfvl+oxZIJCjJZv+Utb7lxrk+mrmHNBEHMhQ3UYjMjS/XBqfrPmSBwTvIVl8lSzhLWTFDgfWYFB9rAdUvQdnMmKKAbsdRfvvrUEvBDU3gIhk3Qq+64uv2ua8siN0AS4ZoJSgci1p7BqccEGZw829YpmauewUlM5a+BOBDu6DEA6rZmgjI4uTOUL+5avLjvp3n09cNPXD3u0eRDH3rkRlk6P6HpmOnoIwNIRSbADHx1sBudSCrkIx7Do67qnolkqu49mBr4HP4vV3xsyRUySIvvdznKtUdXc2i5zaS3xVhWpI3kqs64lbsytuY6xa0yHHt0ADjEpfgenfh5FLf6k75XdSDuEdw6TGR7cxUz3DrkGx2ow9rks4RwS0/hdm7lvgd4C7dVB8rw2oj5adFyK88jdBBuxcat3+U6aizzKbKpj9T3mCBgLvRFnyTLI7Kl9u0xQUFWbRgW182Zix4TFJi75VrznUOvCQLniJd86WguX++tmaBA24rJDLlmLl/tvtsE9XxP0JoJIux0IB3e7z2iXDJB7eoHEtYMSCDmkgmqBsDgSmg9+bpmLod2aVpc5VR82vf93Hz1O+pH3uvZzJROH04ZwawGbIU6GkzEzGrd1HP+Uai7SURMsXVK+e6FXOlO3OS7N1fQLnIUUzsdxa32MqEcyW10EG4ZIa/tReVW3D1mLcAhbt29iRsdHMFtJutwe4S+8BgdOOR+BLdVB37qG3u51cfkl5uro7g1cdc+Zqw5QgfGwuggY+HeuFB1QLd7dDBlhnpNEDB19sPIxUS9ZC5GTZCVG20s7py5GDFBID+PsPAm7py5GDVB2RMkD9zJd+pGdcQEycvjMDHrI73WaCrjs26CVMx7uTMj9prQEuZMkIFIHI3l/ZihvSaomjXvi2nAUoceuHYqB/nGrHlfx9R46gBz3/fzze+7eqBn3w+eiAL/yto68KmnOmgvwvHTgNJb/ynIpy7Ly1ds+eN7a67RkUFZngZUP7Xt1rtJuYZbOaYM/w+3W1B1Fe3t5bY11Xh1+F2+R+gAtwZnOfu/9tvDbe2z+sMR3LY6CLeOrdy2OlDno7jFoTjiiomL6GALtzEUGV/EPIrbqgN5Gmfw6rU93FYdVG7bLzQdQdVBuPVzD7dyeffHr934e2TZLzRqgrJvJU8V5szFFhMUzJkLusDJiAnSvpBHZFPmYqsJAnHkM/UVANpp1AThVj2Tb4xm8v2smqDagepdZBqmB60JIsp2cAITghymDMgUxGxNkHzVwevEq0yH1x09UK+aQ/LVKOnwIG5MkEdfv/btn9r349HXlr/zVQc+cZXdi1yrrdQ/AmqXmHt5gNpWxF5z9XsGvgzSvQOfa+XiWrnKMW3ldzyPDnxTxrJe6//h1usj3E7pClpuGcVeKH9OB373mv4xym2dSFpuDa5ze1qWUHVQ+2ywlVvnTukA/E5z4bY31zUd+H0rtziTCw4N2MnVz+hg1BQrP4ZiyqC23KbMNVQd6E8mssqt1+Rbx7Q1rOnA/7fezMkDB22uxrEt3E7dYLz2g8/cWBX6ttsev/zwm9Y3JYPr2s27c+ZijwmCKXPhZls7bjFBgIMpc7HHBAVex0F9pIfvLSYo8Lv2EiP50gK94SF42U3Q3EAaILYmtISYIB1kaXDaY4IyOLVmDfzu/d7OI44caoeXr9wqxP0zdz5+41Nf7b6f733s6hF81yGiDnZrA08G6Qx8uJlD2sox1VbByMC3NpFUeF3Zzs3AtwTtIAe5ijuV68jAt2YsW3jfeeKvDdJLuqoIt9HOUvnRVWuqp5C27eE27aBuSzoQM9w6lrgd0QGMcrumA6+F2x7j5r1eHYxwK2Z0IBfnT0Gu4db5S9xGB86fMhQtwu3aSos40YFcq6GoGOF2VAfhy/l4XuJWuc7FQTWWLUa5rSvXba5L+4VaqGs7UQM+WnOhDntMUFDNhZi33377ZhMUyB8fMRd+32uCArklX49F95igQFnJ15FPqQUvmwlSiA6h8KWBlABqQksweTh3bVPiFhPkjkzsObMG/q/DLHWaCvHEdv5cvlP7fn7lzVev+aa3P/bwP3rvR69VuzQ62AXOy8CHl6mBD1drbVXh/aWBb9RQVDgXd3MDn7LSVkuGomJt4FOGsuSqTqPcao9MgJXbTJBLumrh/aWVlqqDtGkvKrdiTnEbQzH1nH4K6lRXWtQ52KODNW636MA50UG4rQi3yhzRASxxGx0Y2MWdMxQt0sfk2+YzaigqnIczk8cctylzyVBULN1w7NEBRAfhVt0DMaMD+WY1ZQ1L3EYHyqPttVx7zJA6zE3U4HXcmKhtSD7CBAUxFx6T4cpKyxrmTFAQc5G/8SXuGtZMUCBfuTq3ZxxaMkGBMvEkJs6ik5fFBOlcNn8RrYZfqgCh9ZBHlMQobivYFiMmSBzli7s2SXldx24HzinIl0A42qk7iKV9Pz/6kaeuvfG+91/uuOfeG3XF0dbBrsI14tWBT13U34S71lZTmBr4xI2hmKp7L+rAl5hyHTEULdqBzxJxuFXW1lyTmzjhVnwcbM1VzJZbufq5RwfgWjHCbXQwYigqnB9uTfTaHbfRgdeP4tYAfoQOwq3DAFn7mDK3YorbmKotm98rt9GB/LYaiooYCLmKKVa4Nd6O5gqVW7Fwe4QOXBdu5V11IG6vsayY4zY6GOF27fuFxFqbqAFfVisYC8bFeL2EHhME9G3FZmkzcsWaCQrkJ6ZPZlVzMYVeEwTGEBxM7Rdq0WOCwJikndXN4bqHn752nAnKQEo8jh63qWFcMweDSB2ciHVN6L0mSL4aWVw5rMX1vmscc0i+yGWspnKY2vfze+6/er19P87W5ZSlc+rg4sjR5LR1AKnATWI6DNB7Bn2QqzqbABP3iFzFiKnOku6Wwa7CtZa4tfnR3BroElPb0e2eXCHc6rxi75lIKsQQK/kexa0600Hi7tVWEB049Nvelaol0EEmQHGP0oEYVV/GAWPDHphc6EC88HBErhAd4IFujRF7udU+Yum3Yh+lA3VO/XGsnL3c+juHDHV0IO5Wbue+X6jXBIFJn7FgbhihJXMxYoLUy2GlZc1c9Jog1zNXNCSPmIupfEdMkHlW3V3jJx0l3xbK6+FWPY1z8tSPxP2xN9x8eeXPPL3PBBE3YgmekAwkyOtp7DkTNLXUi2THWudcM0Exa8lXrn6uQblzJqg1a8pXRs1h7vt+fOT9bdcNUO1yiafB5OfQQZcMWA/SVo7EJSAdvi6Hj6C2FaHiVVxttXeQVl+x8rhSrnS1ddBrl+XleBS3afPUX3ycyHUrt1VXNCrfrLTs4da1cpXjUdy2fTbcOvZyGx3gwEB4FLfRgVhzjx9HUcfDo7itOhA3Y6zYe7itOtBeaTu8bOW21cGR3LpevuLhwO/i43wPt66XK3NwFLd/6o6nLr/stU+8+Ihs1AQxN3hkGJbMxagJUkdYMxejJkg8dcOjuMm3YosJCvJIT77eq/kqZ8QE4QHk8YY77758+U9+fJsJqh3I4OSOVSE6EPJ6GjsNE7STFOGk0xCnjrrVBLVmLfmKudUEpcN7rc1XWXJo9/3k0Ve+76d+6qsOduLJGeTqtT2d0zUEoK65i5arnJWVQbp34JtrK3Hli9etA59r0lbaPW2uDK/jQsyRga8OdnJLTi23I5/MgujKUXUVbnE+ym07kVRu/b5nUnGNuspVrL3cLvVZXBhgw+2WXF3X6kAc5Wzh1rnyNXBWHZhcooMtplgcuUZfBvw5bvP6GuZ0AOlj8q316EV04FqTQeXWa9W49XLr2ikd7OVWzOhAbnVuiQ7C7agOXOf6yt8ebp1bdfBt73zixsrQf/7WR4dNUOAa8abMxVYTFMyZiy0mKKCn5OtIvntMUCDf9pHeVhME9gS9YssfUE0HagdSIFjv9TR2GgaIcmqSCraaoCrKOkkFYnp9Da5R73Rg+abDT92Z/4N3vf/ylTc99+K+n1fecfUlzM/UR96XzFTFls4ppvobQNo/HBqEIwOCdlO3Jay1FWwZ+GIoWqPaAj/KFl8uSwOf9+cGu4pwq/zelRbnzekqSJ16uF0yFBVihltHD7dVB9VQtBjldk0Hygm3vcatVwcj3FYdyBfHU1BWuBW7l9v0yaV9P+F27ZNZvTrYwm3Vgcl2Lldlh1s893Crf83pAEa5TfuubShXXriNDua4XTKWFVu5jQ6qscx+oV/9049d3vnh9W0irQkKpszFXhMUtOZijwkK5Cs3ucoT13tNEJhb5JtHevSxxwQN7Qn69W9/9vYff9d7FwdSnQd5awmBhlGBiHJpktpigtLhXacBpq713ogJ0oDyJUDXTuXb7vv5Vbdc/f7f/I5PvvYnHvvktYeud856hQ6bwa5n8pVHT+fsnUgqcOQabSFmO/BlsFtrq4p24JtaaRHHezjozdU18pXH1MDXO9hVKNMAsLbSEl05b05XLXq41Wa9OgA8ra20bNGBOEvcbtGBMqODcDsFuh7RAbTc1mt6bzBaKFsu8p3r59HBmqGoEMdYZvyY4zY6mCu3Rc8NR9WBuHOGokV0EG7ndCBfZfSgl1vler93Q7k40UG4DeQt1zVj2aKH214d9Pw9MpgzQUE1F9k8vAZ1l+OcCYJqLpggc/Ma70smCJSbfMVktPC5BpzOmaBAmc4Rk7maapsKdaEpPATjJuiWZ29/7Xs+uDg49ZoggxMh2ojWI8oRE2SAETcDv8adg5jOWYPcxEVi8m0xt+/nL3zo6uG/e+cHrt3//k91TjkRyJKZWsJc58xAIMeRiaRC3Vwvvlzbwa53AKnIwCe3OsnLWx3kKu5orhnc5RZuxR4d7CrEDLeOcCumsqKr3kG/ouU2OvD/XkNRga9wW42bY68OWm5rrnt0EG7FDrd++r96bNEBhNustMh36Xte1jDHbXgZNRQV0RIuxMPvHh3AFLdVB1tzFSPcRgc2E4u/VQdz3EYHuFWXrToIt2LKGcfhYDRXaLmlq606WPtI/ZoJAlphLhgARsg8ol3m4Hy5LpmgQD3EZFzkUvfftFgzQYE28D1F4ibfJdDBmgkK1EtMf6nfdXP5apvdJuhVd17dfs9KI6+ZoNaRS6hHlD0mKKJMXMJdE6WYSyYod5IEN9eJevf96JxZ2nWIh4c9aDunQ33yvHQr1FGd5UuwcvX/LQNIIB/5WkHJpzDEn1tVHEHlVq5bJ5IKuRoExItZ32ooKuTl0aR8Y6qP4DY6CLe4wMtebqOD5JrJZQ9wmLaSr/i4XRrIeyAvejUxydegr//ugZzUGadydch9i6FoQQfaTL5H6ABabvEg7t5c5XW0DsJtcmWIjuI2cXHr2KsDCLfRAS625jpnhnpMUOA8RohhaPcLVYyYIBDLdwCJO7UZOeg1QeAcuVppEtcxl++ICRLD4zBtLL6fU23i/9oLD8HL8j1BSybI3Vl15DEtPVgzQen0frrrc/TA+XMmSL4xa8rXqTRO0H7fT+++H51HvTWeMuoS8xaIafAg1nCwd3CqbZVctanX96AaVfnKG697ICfcioNbsf1+BLfiyFee4m5ZUaiYugk4itvoQFyHflj1ugVVB+ljR3Ar5j33vPN6rL96fcD6bdf//2uv8/Ibr8f8+uvvvur68buuH//L9eOp60cf0sfk93JwG14ZAbH3cNvqgK789P+93MpLfg4xacJre3QrJ/nikw7ExrN23MOtnJKnI3nv4bbVAW5NftHBXm5jWulgL7f2C337Xc+85PuFRk2QFRsmV13nzAU+8DpigtQTXMNc1M3IwagJyp4gR90v1N784HTUBGlfcdTTqlBWsZLvZ9UEpQMRpSQimDRMD+ZMELLE8F7ueuWwxwS1HV6+4irLAVPf9/Nb3n31WuYHR7VLiNcuyzvku6dzxlDokOqgDIect3bOubaSq7K87jXnjcA1rsdBVlPkKh69eE99RlCNpbhyVI5jL7fRFW7dretcYu75ZJY8qqHI9Xu5bXUQbg0CuK1l9WJOB37u5fYDH3jX5ZFHft/16/731//3L6wc/4frxx+4fswbZeXLNYYiOoCWW5oZQdUBPo0DWQ3Yw+2UDvz0/2rcRritOhDHpOO19LHodgRVB/LFcRAdeG+LDuQSDrPvZw+3SzoIN3INtyOY0sFR3OLwf73j4cuveN21G6tCb3zP+4dNUDBnLpQj/y0mCMRxbfv9QltNEMgp+WYVK/nicosJCrS96xm3mi+u8RC87CaodeRVlJCG6UFrgqooDfwhT5lbTVDb4Wu+ylXmt9/1xOz3/bz5ugGqXbbG0xBTHXpL5xTHNXLMpBdeABejnXOtrQKve995cu0Z+JQvF7m6vuYKGfjcWcUkrkHZGezmrtnCba6phqLmWwc+Rw+3VQfVULQY5XZNB34Pt73GrVcHW7hV/vvf/93X8/o/Xf/flOFZOr74+vHfXz9eCuXKZUkHEG5ppofbqgP8GcD3cturAzmGW3n0cCsP9ZvKFeQqHs2Kvabb6MB5SzrwmvfUJzpY41bMcBtDUbGV2+jAdXPnyzXcOmeN2zUdQMuta5ZQdSDfen4ekX3LzabndbQmCMRuzYUc5bbVBAXqX82FG8StJiigGzyIm3y1+R4TFKhv8s0YgIfgZTNBBGPZLJPUXAfSWDWhJcQEITKinBr4t5ggx1qH/3sf/OTlq26+etH8vOLmy9f+yluuXvMd73v2077vp3ciqejtnHIkzjlDUdF2TqsDLZbunubgfeetDXx1sNN+S7l6T8y1lZYMIIS/NNhV9HDrdefgYEpXLbxvEAi3U3ls0YH3e7nt1UGvKVb2iA6g5XYqDzGd8+EP/+nr/5syOCPHH7t+9BuKCufQDO3Mceuc6CDjzV5ut+gAooNwu9THnGdyWcoV6Fa95DvXf/BirJBr701JzIJcw22LHkNR0cPtFh0AbtXPdUfoAMLt3M1cr7GEtc3TwZQJCrSDcmIurOLsNUFBzEVWnZihNcyZoMDryTf7nHqwZIIC+YppnxMtpS1fFhPE/KgI5zXXyQKCILQemEQlL/bSJLXFBBGtuFPCndr38xW3Xr3m37vjubu/584PXXvd7fdd3v9C59SR1Gl0IqmY65wZ7HoMRYt0TtfXOopvYFLeWltNYW7gq4Ndj6GocG0GPkcGvjrYyRfHo1jiVllyHdlQ7rxwm0Eah0foYI7bvToIt2K03JpEtugAwm39DpzUwfHYY3/y+llTpmb8+OQnf9+LOtjCbUyZGHKs3OIGBz2GomKK2yN04PxwGx2ImzrEUGQlvAdzuo0O1GNu5XoNcg23iemn19RBmT2GoqLllkHbaiwrnO86uq/c7tGBc8Vsb+bEHtXB2t8jgyUTFKiD+TjGgmlYw5oJCnCUT2atjZ1rJijwfv3DrGva7jFBoK9btaqP9D707HPHmaB0IAlpfAWswfkquQZCcp64HOcS0b0mKPkSK2FOiXJt38+HPvbSzpkOSRijHbKids4Mdo5RQ1HhGiJVXx1Cro6Ru6c5yDX1F0877ckVXEuo4uKUBrYOdhWVW/mG21FDUeE6segg3B6hA6jcismwH8Gt3MQND2IbJPZAXfFoDAgfyvn4x3/k+rvThmbr8fjj33kIt+ovX/XHB81t5RXCrXYS+ygduL7VgbijhqIiKy3i0m142NvHQAyxxEyuo4aiRbhN3KNyjVlPTPnu1YGYuBXLIfZWHSx9v1CPCQJznXOZEEbI70vmotcEZU+QeFObkSt6TRDgTg7MjZ/4m8vXez0mSE76pPo7aP62937w8pWvv7bPBLWOXEMjby0hWDNBMT/udghJBdaEuWaCYn6Sr08TmVQqlv7O19S+n0zQJv+p1aQtyKAnptjyHbnbmwJuslKn3sn3COAgMcX3F3vdVe2BdrKMSaxHcptB70huWx2I7/97ER0kLq36jpY93NIBDsQ6mtv02XD7sY8Z8P7P149pM7P1eH5T9b5PFUYHxhb5Rgd7uKUDcY2BaTOcHMGtNkpM8ZWjvK1Qz9rHcOGYemw+iugAt3IWU657uWWE5Hokt60OjuDWtbgVS75+KmNPrlOPyEZMkPLdBDMhrlkyF6MmiMFhSGMuYoYqRkyQdhUr85Xfk2+LUROEB6D71739jssrfurJbSYoHahd4vN/5O0xQRFlfZwiYQZrqwmKWUNuzVfMmKCRv/OVeDFT4il3bU9LD1yLQ3mJ68CHssTc0jnbtvI7oaZz4nwLxGnbSnxio4EtA18GEPWVI0Pld7nu4dY1csVBzXUPt3M6yM3A1rs/aHWABz91+j3cRgf6iIGq5XYLpvqsXB955NuvvzttZPYeH/vY792tA+1jcMZtdLCF2ykdHMWt6+SWCcwYKL5yxN+qA20WHeBEm+FDWVtNcdVBuBW35XYEzg+3xhV5KSfcOrZyK8eqg73cTs0ztBVu94xf0cEfuenDL5qhURNkHgXtIL85c7HFBAXKiBmSs/rDFhMUuCb5Omp5W00QPPTUtcuXb/nbYbUDadjaoAZY5K0lBGmYiogyA2lMj2V2720xQfKd2+gn5j9+9we6v+9Hh5B3JhIir/Fq5xwd+CJyA8jU45ktnXOprcRP53QXNDLwZbBztG0FeV+uvQPf1ERS81FGuB0d+JzrmhiKvdyu6aByOzrwrelAmaPcOke+BoxWB1C5FbuXW3Gcj4NP14Hv+PGprmkTs/ewGnTPPT8/zK064iCGokI7hlsa7uFW2XM6gK3cpp1jKNoxVTnKG7nhiA7kE0NREd2O3sw5JzqQawxFReXW+Wvcro0HINctN3Pq5XwcTOlAOVu4XdpQrozoYITbjKXVWN7ziWdvrAx9zT/7yOXHbr79hTPngUcxYoKC1lyoM+wxQYGy6pcXWtXZaoJAHVzL9ImjPlax9pig4Y3Rv/n2q9tv+dgzsx0IdFzkrSUEaRiIKDWyhmhFucUE1Q6vo0zl++3veuLyf33T0/dn34+/8/VvvOOTs9/3Q5Dp6EsCbge+pc5ZRT5lKCqU2dM5a93n2ipQlpi9Ax9ucbCWK4irbvIQU14t1gxFizrwrbVDdDVnKCrE6eW2Vwc6aXSwZopHdAAtt7TfoupAvjhegjLVqZdb58l1elPk664f0wbmqOOjH/1rXdxWHdDOEq8QHeBtSQe4dd4aV9DLbXTgxsR5U4aiIufLNbpt0WMoKsR0bi+3qdOUoWihbDnMcTs6Higv3K7dzIkZHTh/7TF4D7fRgXPm5pkKuYZbxxy34ig748yUDnr/Hpn8xGpNUBBz8Za3vOXGeUeYIMCvePYL+ckU9XySDCetCQrS57JfyHmfMRP062559vbX3P7eRVESGfLWEgKVybcnZ+CfE+WICZIfd0hoc51oat/Pv3rL1Wv+0Nsfe/gH7nnk2sef/lTnrCJH4prIK5Y6ZxV5z6RXMdc5Rwe7ijrwTXVO/1cmsyRub67gfPmIXwc+vys3Hb03V2WH2ynjFn56DUXFHLd7dRBuxW65VY8tOoBwq++F2+hAOaM6WOM2OsDtsrH0cfZp83Lc8e8sclt1oD5rhqJCnfGmraMD3FYd4FYZvejhVnne7/3DoYFco1sxk69cew1Fi5bbWteqgx5jWbHErTLkioORXJUv5tTNXHTQayxbTHG7Z6wF3M7dzMk9r/cYy7WP1MtT/nMmCJwjH4bCJ7M8zloziWsmKMANs8IE4cp1S1D/ORMUZL8Q48YMafcl4JDe8BAMm6BX3XF1+13Xlhuj1wRFlMTaM/D3mCCi9PwRGczVlCjX9v2873r9HvrQIzfIkpPlza0iD+SswWrnjMjVXdw1kc/BtemcBk0fUd6TK9TOKXa9e5LvyKBfIR954RYf4db/t+Y6tdIiVxxsMRQVlVu/4+QIbuk4A1zy9bu4W3OVjxjMP26jg6W74jXMcdtvLP35iynjcuTx5deP59FyGx34fXTSq8hYhYsce3XQcqudwq3Xt+YK8pKfMTO/42BrrhBuczOXXI/iVq7qrY/tGQ9AzHDrkO8ROoDK5xE6kEu4bXWAi9FcY4a+730vva7HBAXGjze+8Y03DubCmDKHXhMEzhGPacl+IXlNwXtrJijQxonrmrlccLnbBPV8T1CPCdLgxKOhJdTT0GsmiDPP81gVJaaKB64b2hfMz4sfeX/lLVffM7fvRyxGSjzCyeauPdA5cSNuVsBGRT4FddchE1c56rAH8hJTx0yuo3emU2BUXw5uDSThNto6gludNKaaruR6BLf0XLlduzPqAR0wP+EAz17bC+2eXMVd6ocvxSuvH1PG5cjDn9X4FOSVCUW+dHCEvvAYHTAC+tgR3NY+5idd7NWtvOQnT3Gjg726xWNydeB5L7dZTUmuR3IbHZhw/TxKBxm/5HoUt4xHy+1WHfh+oVe/47nLq2/71COyERMETIXv09HfGQsHs9di1ATZyyMHh1UhY6rX27qOmCAmzblitvuFKpTxWTdB7V0vsdeEljBngghQAxtMOGe/y6GaII++/vVbrl7c97P2d77klcFennIUn9vf2jlTV4MyftxJ++m1rXcRte7yVW/5aui6xLwF2kocHDjkqpN6fQvkkbaRqzxbbrd2+ugKtzVfP/dwW3XgdxrU4fZwGx04xI0O9nA7tSwfHYTbPTqIXtMH+7k9/qPx08fzqDowIMp3L7fpY9o9dcYtnnG7VQfiyDX6EtNPrxm7tuh2Sgf6m5hei263IDqQo/zCrWMrt+pYx4OjuE2d6UAfYDDkHR1s4TY6kJeYYqQv7+FWnFYH4dbrW7iNDv7a7Y9eftlrn7jxiOyujz6/N2fEBMkB2v1C1VxsMUHigThz3y+k3iMmKHuC1BuXrs0qVvL9rJogFVIwURpMk5SEa0JLyAAckqooayciADnoqKPf99OKvGJP51RH19ZHCI66DDrSOSNy19S6B3s6Z22r+sWUchVvS+dUfjUUR3GbekZXR3C7poM6qSh/hFuabHUAW7nFk1zbiSTwe7iNDnq5rTrQ95LrGLceVU2ZlmOPqgN51TvLllt37j2oOsAfjivCLY1s4VY+cq2rq36asOtj83luP4U1HYDXolvv9eq26qB9PINbr4Xbnlwh3OJuajzw/y3cRgdWaFod+BkdhNseTBnLNW4rR0uoOmj3/aSP5f0ebud0kEdk3/SmD2wyQZD2ymbkmIs9JiiQJ9Nixc4YKSZutpigQBk4EMOKlnPwqw7aKnjZTdDcJBUgtia0hJggjeo6JE2Jkmhf896PXV550zMvmp9XDn7fz5zgvO793s4Zkau766Y6h9e857yegU+ZEfnaHaO4tXMuDXxrbRWMdM4MdsrH2dK53pMvsa5x61y54mApV51U2ZXbOYzoALyvTuHW9XNQrnxNbq6byhVGudVmcl07N3zJdY3bXh30cfvy7wl69tkvfZGDOum1qNwu9ZvoQH16dBC+KrdziA6mDEWFmOHWsaTbER2A+jhX/F4dLHHrtXC7Nn4pr/YxZSxhlFv9UR5Lj+3lGm7FnuN2zlAsIdzWPx0zhV4djHK7poO5/UJTaE1QwKQrI+bC73tNUMCg3XrrrTfMECO7xwQFyvJ4USwH3h3By2qCNDCCDKSIm2poIqsJLYEJEjONMDWQTe37+VU3X33Hv3XL03f/wwc/eu2h6+fnii0iD9Y6ZxV5vYteQu2cUwNfBhANPifyOSwNfOLINW0lj7V81zrnqKGo0B5r3OJHruKOcit2y63ctujAeeHW9S23qQsdyHdt0Ic1bqMD9Vkzli3kGm7lUrkVZ1QHsMTt1dV/eP3fafNy1PHUU7/+0+6i5xBu51Za8GGlCAdrNxgtKreuq9xmvKAD7bpk1irkWldaqn726MC58nVd+lh0673oYCRX50QHLbejxrLFErdihlvv9+QK6WPy9bPmIz6uw8FIrs6V79TN3FYdLN1wjOrAfqFXvemZl+wXmsKcCQpiLvI3vtR5DWsmCNSVGbJfyLn1EdkclkwQ4EeZHunZ7F3/ZMjLYoJM+shBIGKWKiA5oliDhjYYZICeauipfT9Wf/7hxz75+M+//7HLu97zqUnFBrmtIq9oO6cGi8hHJpKKOvDJzZ9IiMjla2LdgnTOOvDhQjkjhqJiqnPKdYuhaNFym//jttdYtmgHPjqQL0726MB1rs/AFx04tupgjtvoYC+36izWETqAllv964kn/rvr70ybl6OOZ5/9zus/xyC3yq0BMtzqe1t5BfxpH7HoiwYyzvROehXOD7fujpmz5L9XB5mUxaJbsdJ+vcayhVzDrUOcI8YDqNwqJ+PBEdxGB+G2x1AsITdAYuX3PTqAym1iO7Zw+33v++Ti9wutmSDQZ4x5DIvz5RRzMYUeExTQeT6mr08umaE1ExToj3mc53Ddw09fO84EGUjT0ARlSXINSHTNHKrLFZfg24b+tH0/N1/9jvroK/dOxK3SBhKxHHtEXkGA2dWv82wVeeBaMXAjplxN/Efki4fEdHDde3IFnRO34oWHo7g1aCTfo7i1mli57d0nsgaDXWLSKl3s5VZ9mRN9Smx5H8GtGJUDOtDf9iDc6mPPx33z9Venzctxx53Xj23Q7rg10Mr3qD5WufXTgL6XW9fnRjBx9eUjkFxpTH9bmsh6QQfpu46jcs34FQ6Us5dbk2PVgbhHjV/hVrsdpa98/UVy3cOtR2T+Sn37/UI9JgiYE4/D5BKDYS6Y0tCICeInPL4yLvlZ9wu16DVBxidziBUh/In72rfeennlzzy9zwRpAA2R1Q8Njby1hGDOBE0tn+pQjkwqP/ex6e/7+eb3XT2wtO8HmeLETe8VZcyfJXaDFJLVXcesj0ZG4Nosy4snVwOUsvagtlXqT0A42DpZyzXc5q5MbD/3cOta+eFALJ1Brnu4bXWVXI/gNjrAQXSAE/XYowNtllyP4rbqgG6jg3C7BVUH6p5x4NFHv+H6u1PmZf9xdfU7N3HrGrlmhULOOM1Kyx5uqw6Mh34Xfy+3VQfh1rFHt1UH4sozfChzC7dVB2K5GRY7fWwvt9G/+Hu5ndJBuBV7D7dVB8aDrGIpay+3+hcOxDqC2zsefeLyh9/8oRsrQ6975Pm9jaMmiMHJVhXmIpuRK7aYoMD4n/1C3qvz1agJ0i4gj5++5fbLl//kx7ebIA2g0jo7AhSiYZC3lhBo0CQUaOip5/LEqbx7n3ju0/b9ePT1e+6/ej3z44PxVQquj8izZCjPugy6RUBiRuTqH+ebgWVL54zIXavjJKd2GVS+IxDHdWkr8SKidM61zXwt5vb9HMGta9RVruIm13CuTDyPchsdVF3t5bZOJJVb8cNtdNDLbdWBTptc93Lr3CUdhFvn9XI7pwMQ/4MfvPV6vf3F92kjs+d46KHXbOK2GorKrTFs9JNZQWso6orlVm7ndAC4NUZEtyO5ghzDQc1VHPkqb4TbqRvX5DT1aHcEzg+36pxcoeW2vreEOR1A+ph82/fWsKQDccxjozdzVQfyVUZwBLcxVbc8/Ojl69947cZ+oR96w9tuxFxDNUEBc2FliIlxZG7cY4JAHGbI4zc6yCOyrSYIPnDtmcsrtvwB1Yhy6tMuW01QbehqAALi+ZO3Pnr5qpueecnf+bL6872PXT0ir3rFksgDeY8KKCJ3tBNJxcjAtzSRVGzpnOrk/NZQVIjT2zm9LtfWWLbY0jmjKwOIfKZyBWUSc7hdGkiiK3Vb4myUW+/LFQdLOsh5cg23c+jVwVZu13QA3lO2+Es6ALmt6QCefvq/vv7vtJHZfrz6xb7Yw2104NzWUFSIGW4da9ymfXFAN3XSa9HLba8OlBPdRgdz9QrSx3BgMprLdZTbng3lcg23Yq9xmxymDEWLcLt2M9erg1Fuvderg96buSVj2WKU2+gAt66ruWa/0B+/5WOLm6dhygSBvOnLo6c8IpP/HhMUGP+8Z1WIV7CCu9UEDW+M/vVvf/b2H3/Xe28QZzDVgC1GTZAKrHX4dt/PK266+h2vuPnqNd9697WHf+KxT16rW4V7RV7RK6CIUd2z8rWGdE7x287pd7n2TCRBb+esIl8yFBVrndP/vS5X5R/FbR3slgxFhbLDbQbpym3VgXPUbQ0j3KrPmqGocF64FbNyu0UH0MPtFh2EW/1niVvv9+rAo6tpM7Pl+PXXD3+h/nkscdtrKFrgdm2lJTrAwZKhqFjjdosOlBsdzJni9G06kG/uztfQclvrGB14b+rGdQ7pY+Guvc7/lYkD7y8ZigrXzd3MbdVBzw3HFh1AdBBu2z42qgNY47aOtWvczu0XqpgzQQHO1YFpYYas4qjvGnA6Z4KC7BfKJ8mm2qZCPfGt/sG4Cbrl2dtf+54P3iB6jjgNpwHWTBBRatxsGptq6HbfzyvvuPqS7Pv54Ycfv/Zzdz14uf/9zwuIWLeIvGJOQMhF3NTKVw/EcV3tnPIdNRQVc51zi6FoIdfaOSu3Xh/NFea49TsOtuYqjhhyw63/+0QdPrbqYI7b6GDEULSQj7zEP0IHULnNnfgROkiMcJtP0/m/fL3fD6bl37l+TJmakYMBmja0lVu80sGWiSTAV7itprjqwOS/RQctt44jdCAeHYgtz5TjZlPcXkPRonKLV0d0cDS3GSNGDEVFDJ/8TNJWqfboAKa4PUIHcgm30QFu11aulzDFbXQQffXqwEfq8/1CU6tCayYo0Ja33377jU98MS7qtwQ5r5mgQL0YLN88vbQ44fXdJsgfUL1nhbgeE2Twz/IpE9Q29NT3/czt+4mAVM5PZG8RTlAFlN33BhATydig/+lwfQYj+TJVe3KFdE55ytexddJr4RujcaqTv1zc4kEb7s1VjHAr15E70zmEW/Hka0A5glt5iSvf6IC52INwK1Z0gIujdCDX6EDu27nd85flf9f141MrQFOo3MoVv0dwm3EmOhB3q6GoSK64dTCae1H7mOOoXGOAqw72cpsbjsrtVkPRQlxzUXSgrL2ofexIHTA+tY95rFdXhrag5Vb8pS+SXAIzNPWR+l4TBM6xauO7hRic+n09LUZMEEMlJu5syKYfebX19H/ttcsE9XxP0JIJYn7SkSQTd1ox930/PvL+tusGqA69iSdWjIVyvb5HQNU1e+5I7HLeg7ocS5DiazyDtvf2gGDkKk9Cx8VeA+D63D0l1yO4zV1a5Vb+e1B1FR34fW+uOEiu8vT7Xm7bZfmW2z3AYwZ9OjiK2+hA3f3cz+0br/Pwa6//nDI6U4c/xPrj149lVB1ksPP7Xm6rDtJmeN7DbasDK3jHcPvSFcuqgz26lZNxUY50cBS3GWvDb37fw22rgxhYOt7LbfqA9pfnXm6jAzHEpQNx5Y6bPdxGBzmS8x5uv/2uZy6/4nXXXjRDoybIYyvjnRvqul+oNUNyHDFB2ROkDNdlv5D8gs+qCaqi1NBESTReS0Ltvp985H3qT1208YgF0qH2dE7kI8odv6U1K1bibRWQDifXTCSpO6Rzjn4yK4jIDXYezxBS7gK3dk551MEu18e8bO2caRtHVlP2cttOJOHW4XftGB1s4VZechVrL7drOgi3XhvlttWBzi7Xyi2uRyAH+Rpgqg72cut6+eDgAx/4X6+X8XuvX/8vXX+nNT7++OofuH687vqxjDkdwBHc4hAHeTyDWwNsXk9ZvXD+lA783MNt+igdyEuMrAbIdYspjg7EkFeta8utduiF86MDuZq8wq3/b+F2SQd+ildvOEa4TR/DQXRwBLd5ItJuKI8OxB/NNWNtdHAEt60OmCH7hb7ttnEThD/QDurOtMQMBbjcYoKC+v1CYmVlSO64CV52ExRRTnV48N4/eNf7J/f9/Mf3Xt09930/KjUVL2g7p8qvISInnPqHQ4MtAiKcKUNR4bW5zXxzqCKfejyzpXO2Ip+rX+2czunpnGmvGMu93CpzSVeB16KDcLuGqoOpfT9buV3TAaiHc8Q/QgcQbp239MmdoOpALjieQsoe5TZtPLUsL2a4daxx26sDGOW26mDq8Yz/h9teUxxu9Z8lHYxym/OzCpxJr0Ku4da5a9wuGYoW4bb3Zq7qIIaiYgu3vTpwTrjF2xq3OZ8O5KP/txjlNjpwDW3N5ep1daGXnrnB+crHwZwORrld0kH2C33NP/vI5dYPrN9ktSYo8H+xmRaHuVBee0xQkI/UxwyljYKX1QQhmsjSIC3Rk3/n65ar3/91t1x7LfMz9ZH3Odc8h57OmQFkaSIJegVURb5kKCp6Oqc4EflaruD9tc45MtgF3g+3S51Tecrt2VA+wu2Srqag7HDr/CluR3QALbdTKy1bdBBu1wY+de/VgffWvgOn9wajRQ+30cGcoWihPllpcd1UHlt04Jw1bqsOxJ2aSCq8Fx2E2xZVB/JVRg9abqfyUJ76yLVnv0f6mHyneMOHXHsMRYVz1m7mRnXQc8OxRQcQHYTbOR0sGcsWa9xuGWshubgu3LbATcqdMpYt1rgd0cHrHpneL9RizgQFXveIjPmxt+cIEwTqygzZNyS++oafl8UEGWwjyLmBf2rfz1e8/eo1f/T2Jx7+O3d+8Npd9z/44nV1AJkS1hqcP9U5vU5Ycu2ZSCrmBLRV5BVznTMil6tzenOFuc6Ji9HBriIcyrV2zhi6GIreQR/muK06mNPVGtRRXcU4QgcQbsWIOT9CB3MDHz68rsxRHYgZbh2V29EbjBZT3KYOvYaiwnnhNjqQ1xE6mOJWHK+pw2iuINdwK458txrLFuG23sxFB7hV7kiuS9ziJhxsyXXqZm6PDmCK2yN04JpwW+cGfWCrDqa4ladjz1gLrgu3aa+qgx5j2aLl1jiwVQf5FNncR+rXTBDgyftvectbbnySzLxtTljCmgkKUn7dPH2oCUqHl5CNv1OD6dq+n4effe7yoY89LyDLVxrHoTEIaA9q5/S4KxM0YY0KJ4iAxJJjct0q8sC16Zz4lLdj6vFML2rnDLcGjxGRz6F2Tjm7e9piKCrCrbjh4UhuYzQzMHttD7dZaQm3R+QK4Tb1D7drA8MScGsQEEtM+fr/3lwrt+KaBHA7OpFUuC46wO1ROoDKLS7k3XMXvYT0scST61ZjWeH63MxFB3u5zQ2HWOFWzntzhaN1AJVbcY/SgevbPrZXBy234sr9KG5T/yN0ALhNe/m5RwdzZigmZMkEBbRun5DVoHa/UAvv9Zgg/KiXmA7tcvvDj1y+8vXX9pkgzrm6XA3CVdaE5r7vZ2rfj3gaRKx8DNEgcgS45sQUn9tl3vaAayb2o4Weu6fkqgwdCz9bIdeWW5wcAXHEFVP7+6jvnlyjK8uYuMXFUdzm7inc5u5nD1xvcIoOcHAEt9HBkdzSvLhiyVfcIyZqUGdxj+J2SgeOI7iNDkwk8jWYynVvH8tddNpMOXu5dX2rA5PKHm5z4xodHM2tuG4y5Bsd7OEWB1bDkutR3OYGOTqQt5h7uHVtuNVmfh7BbdUBbh17ua0LGEdxm/1CNk/nEdmICVI2o+JcdY1xmTJDoyZI/cCY8hNvevvlFT/15HYThPh0+ExQBKXBJTT3fT+/5d1XXft+xDL57xVQJhKCyQpF3LQytggoIpcfYk1MuVPZK6CIPLl61u81ZamLskcQkctJXHU/ilvXhVsrbHgQHyc0sJXbqqujuJ3TQbgVc5TbVgdiiFu5Ve4WpL3kaqVpL7fOlau2jw4SU657uK06yLL8EdxWHYRbv8s3r42i6kAMg/NebqsO5IvjrAZUbrfAdalv9v0k13A7cjM3pYOjuJ3SgTjiyXUPt+qbvI7gNjpoV1PwgRfxR3PNWOvaOW633nBUHWSlKnWo3I5gSgdihlvHFm7FlNfff8f7Ll/6z5+8sSpk8/SoCQpck/1C7fcLbTVB8NBT1y5fvuVvh9UOL2htUJVH3Hfc8/Ts9/28+boBqhKo8aaW5bd2TuepsAbOpIeIwPviIbG3c86JPNjTOSNyuYpbcwWvZeDr7ZzOq8byKG7rRDLF7ZbOWXXQ6gq2civOkg4At97v5XZNBxBuDbIjA596yXduQ/lWbl0n16l23jrwVR2Im4mkYpTbNR2IH25HjZtrwsFUrqPcTt1gTOkg3Irdy210UA1Fi3Br3O3ldkkHW7nt1UG4df4at1UH8nVNiz3c0pZcpzaUq7N8ndMzN3hPrq2hqNjKba8Owq2YPdwu6QDkqrxwO8V/i+igNZZ5RPb7Xv/gJhME+I0Zqt8vtMcEDe8J+jeum6BbPvb8N7LONfR33vvM5ZU3PfPio69X3Hb52usG6DXf9fCnf99Pz0QSjArI+xpvzlBUxLXKY65z9oi8YqRzVpGv7ftRprLlsNQ5vS5fApkTeTDCrdflqvw5Q1Eh13Dr2iluR3QALbdM3hxGdKBM56wNfF7v1YHynLP0yawgOqQD+a4NOuKucRsdOGfKULTAbQa+Jd14PTqog90cnL/G7agORkxx+pjycxe9hJbbqfPVYekGo0X62Bq3mUiWDEWFOM5bupkb1UEvt+KM6ACiA/GXdKDMHh1AL7fRAW6Vv5Zr2sK54baF15wXDo7idlQHgCt5zHE7qgMIt2s3c95b08Ha5ukAJ60JCrSDcryffUOfMRP0m267uv01tz//12BbIqb2/XzFrVev+Xdvf/bu73/3Y9fufOTJy5MvNIpDQ/ROJBVrAqoiH91IXDunfCKgUZFXLHXOKvIeQ1EhzlTnrCKXL4570cOt93oMRYupzrlHBxBu8dB2zj06mBv4wi2NjOpAzHDrqNymPMeoDmCK21FDUaHscBsdtNxGzz2GomKOW/H36CDcil25rcZSvjQ+gnBbP5kVHShzauV6CUvc+ilX5Xm/Z9KrSF3lhWd57tEBLHG7RwdykIu+FB2E2+hgZPUUlriN7kYMRYVcw62Y8qw66DUUFS23uZkTx/+36sD1Lbc11y06UL5rpm7m/C5f7/XoYGq/UAsx50xQoCx18UkyZkj5S5AXTuQaDJugX3fLs7ffde2lFezZ9/Oh0jntbagfox8VTjDVOf3cYigqIiD5yZMwt4o8kEfbOeOa9+QKtXP6favIK1pu5RpuRw1FRbjF5VE6kIs4tXMeoQMIt+rsdxOefA2oWyGfusQsX3zIVT2O4FbbmbT36kAu0QFuqw7UYWuuULnNYLZHB5A+Jl8/xW+X5bdATvK00oKP6GAPt+0NB26T96ihaBEdiCXvvblC5RavR+lATtEBPnpWrtfQcit+9LVHB4DHxHIcya08/TxKBzF+OHUckauY4VZsBx3Il+EawdL3C/WYoEAuTBAztPT3yHCpX8g52P0R+aW/8zW17wd5GsKBTHcpe+F5LqH7tJO4PV8YtgZ5yS8x7SK3cXIvNI4GE9dBPHtzBdwyAWIa9OXurmovtFe4JZwjuJUrYxlu/e61vVDnqgOd8ggduHs6mlt5ya9ye4S+8KiNxHQcxW3VgZ9HcCsv3OJUXGV47Shuw4Hf93IrJ7kaB8SU81HcVh34iYe9kFf6mCO57uWWgUiujiO4bXXgp0n6SG7zCUh9Yw+iAzcYyfUobmsfc/j/HrMC4VY8YwwjdAS3GWsrt3t0MPWIbMQEqZdz9c+lv0dmbDjMBI38na+p5di4acueewSEqLhmdxIqqEG8vlVArqvL8g6kRZRbBVSX5eXcrgZsQUQuN/GIU754qEvMo1BPecVMiC/XPdzO6eAIbqMDqyl0ULnFyRbIxQAnV3fpR3ErTnSAWzlXbreg6kB+uDyC21YHYvopXz+P0gFOstKyh1v8yZdpFV/MI7iVXzgIt3gOt0fo4Ahup3TgiA7C7RbIKRwwAXu5jQ5cGx2EW/+X714d4NZYoB/L22v68lZuWx2kDfdw2+pA7uHWsYXbqgP5KgOO4pa2ooNwu3VukINczY/f9KYPvmiGxBoxQdkT5FBH18YMBceYoLsub33lwPf9pHKSisgDvyNvy8CHoAiHYHJX2i6Djggowqkir5B/Br6RXCNyR/t4pl2+7xXQ1ERSr93TOXEmH7mKm1zF3MLtmg7Aa94b5XZOB36GW3drzuvlNjqgy6k22cqtOK5TzykdhFvn9HK7pgPYw210WZflK7ejA5/yl3SQGwW54rmX21yXiUS7BFu5jQ5cG0NR4f/hVvm93LouOpBrfTyzldteHYRb7/VyKwfX4aB9PLOH23qD0ebq//JV5sjckL4ZHbTcto/Ne7hd0wFs4dZ5rpnSAeC23sz15DpnLCv8fwu30QFu1bPm6vfoYGRuULY2Cwdyy36hr/v5Jy4/+pZ3vHDmMqoJCvKInRlyOEee6q0ewbAJ+lduu/pLefTl73wtfd9PW7k5jAx8VeTtRFIx0jmVtybyYFRAynWuXOf2e3itd+BTllyXJpKKkc5ZRV4NRYuWW20yhxEdjHDbqwOvidkz8FUdyBfHSxjlFl+tsWyhHhn4lvga1cEIt1UHcpnLdeSGI9wqf00H0HJrcJ9CdMDoiru03yN9bI3bHkNR4T3xnN/Dbcpf2u8xwq3ye3UAznGu+Eu5ZlymA/m2jxYqermNDpRNW2u5pn0rt1MQx3nqpfwlHYgZbh1z3I7qAHq57dWB18Pt2s2c8qKDntWuXm7rWLvGrVzDrWvmuK06MCZM5dr798hgygQF+M33C91666038nIEwyYI7Pv5lTdfveYPvf1jD//wex+b/b6fucrNgYBc41rXVQH5v8Q18NKk12Kpc24RebAmII3vfZOvuD25rg18ylCuXNu6rGGpc1aRb+FW52w73R4drHGrzFEdiBluHZVbXMjVa6M6gCVuowPcLhnLCueE2ynjtkcHS9xWHYi7NNhVyDXcur5yW3UgX2WMINwa3Ke4janq3au2xG10MGIoKmIa1FU9K7dVB0vGssUat1t14Fz1w190EG6jgx5jWbHE7Z6xFpwfbl3Xcosf5S4ZihYtt9HmXh0scbtVB84TU64tt+LLd27leg1z3Prd69FXrw4gOki7JKctOuj5SP2SCQJlxgy98Y1vfMnm6SETVPf9/OhHnrr2lvd9+HLHPffeIEqj7BF54BrXihEBReRrd9FzcH7bOW3i2iryCtdWAVnticjlOzroQ9s5xQy3o4aiItymcz711FMvinzEUFSkc9aVFnXeqwNouc3/taPfR3MFdcxKi1h0sLQs34uWW3+YT/zoYAu3rSnWiY/QAbTc+h0Ho4NdRfpYBj46oIe9OnCdeAY63CZ33Mp/S65T3Mo3HOzlVvuIj5PkejS3R+hAnOgg3IaDrR+CaLn1+xFjLSQ/MX07fbgdMRQtwi3T50Yl44HXjuI2BnmvDtLuuI3+HfJVxh603EZrW3XgmnB7hA6WzNCaCQqMy86zVyj7hbpN0CtvufqeqX0/GlNjqKQd6ES0RziBGOIhzGHX91aRBzqnShN7duAfkSuot3h4MDBtFXmFzohbu++P5FZHCrfppHtzFVMbRQfiHsWtTlS5Zd72QF0ZS9yGB/kfAZ1czHAw9wh0BHTASEUHR3IrVjhgAusd9haEW/GS61Hc1j52FLdiVG5xcATSx8KBcvZyq81jKo/mNjrALZ5zl7wH6py+65D7EUgfqzrYy62bC0Yq49eeG6IWyVW74WAvt1ZTXi4dtPOYXOvq6xbIrY7he/rY3PcL9Zog44V6WRHCn0dkr33rrZdX/szTyyboK+68vOpfu+XqiW9536fMDxCeCgqmkqMbzuYgpoY1SXGjfldJMbeK3XW5izbg1dUAk8weqC9icSCu3zWGMrcIqF2OVffcVe3l1vXhVr5+x8kR3EYHyVfsI3TgEFeee7ltl2PFrdzugevFMqnSQeV2y2Td6kCs5OvnUTrQXgY/P/dwGx2IIz8xj+BWPeWa9ooOwu0ROjia28QRNzoIt1vguqqDo7gVMzqQb10N2KsDMbSTMsRWzt7V1qoDue7ldkoH4daxh9v0MRxYaTyK27pyHW73zg11zj2K2ykd+B2vYm/lVh3/3m3vvfyy1z7x4n4hY86ICVI+aJefvuX2y6/4iY9/9AW7Mw+boX0i7Le/83K59xPPvaRyIb5dBt1SSQ2ggdtHCFsFFJHLxfXiJN8s1SFkS+eMyAnH8mFyjaDkOiog51ZjmZy8Fm63dM4q8qO4bUWeXMWty6By3cKtmHKtd/xbuVUnuWYiaXUQbsUe5bbqwACaXCHc1m8b7sGcDvZyW3UgRl2xzISIC+f1clt1IF9xgiO4da1cDVjJVZ3DbXTQw+2SDvZyW3XQPp5RTrgVc5RbfaHqAFpuR27mooOpfT/hVpkj3LaGouVWP956ozynA9jKrXOndAC4rTfKI7mmH6WP1ZUfcbZwGx2oo7xqPriIDkbnXXHkioNWB9ByW9+bw5IOIH0s7VnfW0Orgz/77mdvPCL7Q7/w8CYTBB+49szlV/7UJ577VTdf/f6vuPnqX37B8szji95yedUXv+Hqvm+77dHLW9/70soFWwa+VM6kh7QpspU1IiDvV9c8latyRjtnnUhaQ1HRCmipc1aRq99cDm3nlMsSxHEeDpZydV4vt2siD5QTHfR2TufId21D+Si3eEpHX+J2pHP26kCc3pWWXh1sueFQp3Cw9Lg2Ogi32nsK6iBXZS/pAEa5jQ6mDEWFONFBuJ1Drw5Gua066OFW+eL36sD5S/083Mqh52ZOfbSva5b2e6Rea9xGB3OGokLMcOtY47ZXBzDCbY8OlBVue+aG8NWzobyX296xFuQabsXu4Tb9sTWWLcLt0s3ciA5GuV3TgUdk//I/+8TlT92x/IWNrqN9sQJ7gn71Lzxz+VMfuHr4le+4+uf/+ruu/q0X7M4yrAoxQ740cQ49A1+tXHsXPYc1Afl/hDNXbovaOecGPnGUq4GXJr0WS51zRORBFZAONzfwReRLxrJFD7c9Iq+ondMxxW29e5KvPHqwxG3VwZKhqKjcznVO/9+ig9RxitstOoDKrdhT3HrNezhYG+wCZYdbeU9xu3aD0aKH2+ivx1BUyDXcilm53aID6OHW6zgYyTXcyiU6CLfRgbJGdKDctZu56AC36tWTK6xxq83CwQi3SzdzW3WwxO1WHSg3OpibG9Jech3ZSDzHrZzlOjrWQvqYfKfapOpgzVhWiDN3M7dVB2s3HCM66Pl7ZK7V9mIGTNCvecOzl6+99erRL33L1bd+5YNX/8cXbE4fmKH/29ue/wbpKSh0auCrlRuZSCpaAfmkT51ICGgU7cCXzilvr40Yigr51c7p/zb4bhF5IAfXtQNfFXmvsWzRcitn3Mp/ROQVdeBLDIdyHFt1IEblVsfCbXSwhdu5zrlXB9ByS2N7dADpY5VbMaMDr6nTKMRxbQY+R7jVlltyneJWHLlmEO2d9FpEB+IbD/bqAKa4jQ78v9dYtsgYKL9wO2osW4jZclvH2r3cyk18n7IJt/jekqscwq2buZrrXh1UbpWBV7/v1UG4FVu+Dr8bg7fqAFpulRUO9nJ7tA4yrsiV8Q63W3UAU9zKcYsOlr5fSAx5KiNggv4vP/vMM//yO66+7AVbM466X8gfU51CHfjsEndsnfRaEB+yNK6f/r+1MYIISDy56qRbDUUFIWa5VOw9wgnExG1yJfqjuLXXqXKrrD2QT7iVKzH6ve772QqTCG5xKlecHKGDltsjdACJ65Azk7kH4VZbJVdxtw52FdoHt9HBy8Gt+HsmkiA3QuIl16O4FTPcHvGJVUiuuNVezNteyJVO5eowSR+hg4zj0e1R3MYERAcjKxRLkJ+YyfUobts+ZuzZizqOiy/Xuvq6Bdqr6gC3R+jAimXL7ZabrBa1j4m7RwdTH6kXS3u1Jmj4yxLnkP1CVoWmzBB3RzQqp6IS4SL3oF2GiyDrUt0WiCk/cfMH4jT0noFfThmgxXYkpvf2IKbKkdh7cm2X5d2ZHsVt7p7EpQPcem0PWh1Ubvd0+OjAIU8/xT9KBzgVr2e/UA/wKOZR3MpFrlmpig7C7RE6cMg1Kyt7uZ3SQbjdiqoDsf3cy23VgZh1NeAIHeAzd9b43bq6BFM6OIrbqgNH8j6C2/Svo7iNDqJXv0cHW7ltH4UfzW34xEVy3sNt1QFew63X9nCbFSYGMDnv5VY+f+Zd1140Qy+7CQra/UK1clYoOEaOL4PUls4ZkRNKXZaPSLcKSBzXa9SspjjES8OMCmhpv8fezhmR5/FM5XargOQxtSy/l9tcHx3IM0up6uC9UW6rDoi71jXcjn4yC6Z0sJfbJR2kj3gPT6PcysX1dVm+6nYrt3KRqzonVz/DbXQwwm3VgbjuTPdyu6aDcOv1UW7lFA5yF91yO3Izhyu5qmOrg3CrDlu4jQ5wm7toh5hL+4WWMKcD2MPtlA7CrdzD7WiutY8pIziCW9fKNft+6DY6CLe9iA6qoVjiVnm9mNIBpI/Jt23LNSzpwO9e23IzFx0wlmJEB3u4bcfamx76yOUbbn36k7/pDU9dfvauB26UF7wsJihghl550zOXP/H2R16cSGpD+n30k1lLE0nFls6pfITHULSiG+2cayIPvOa9kc5ZRT71eMb/RwWk3HC71EFabtuyWzjH+TiY0gGMds5eHXgNPyOdc00HWzqnctd0ANFBuF3Ltd5g4E0dW4xyW3Ugl7nzvR4dhNsl5HwcyGNqWX6U214dgPec49xeHcgXB3OP6cKt83pu5pQ7dYPRIhNDL7dzhqLCOeHWscZtrw5glNs1Hfh/uO2ZG6ID563pYJTb6AC3rpnTQbh1bg+38ggHPdz23Mz16GCU2xEdjN7M6QPhYG5D+Qi3uJFrxtqHr3P3xPV8/+r7r574rXdc/cj/7qee+w/+hR+7dt+33Pzoi/uFXlYTBD37hXo6Z1u5JZFX9HTOKvK1/R69AhoReRABy3Wuc1aRzxmKih4BVZHLF8c96OmcylP2nKGo6OF2qw56OueIDmCEW4NHrw6cE26jg5Zb5yizvXuaQw+3I4aiwnnh1vlz3OJJ+T37flpup1ZalDWqA+c4V3vMcRutZCJhzJagLms3c9GBOtWV6zWsces17+OgRweA26Wbua06cM4at6M68H50EG5bKKfHWLZouW1zqWPtCLfOTR3bXKoO1gxFhfOWbua8P6qDtRuOrTqA6CDcTulAvnXleg093GbOve/6+zE/X/fCp75esvH5x6/9OWbII7KX3QQFa/uFoO2cKgS1clOVX4PzpzpnFXmPoahwXisg5WwVeUXbOcWEuObRXGFKQDiQq9xHRR44f6pzRuS9hqJirnPu1QG0nVNH36MDmOK26kC+0fIIxIkOwi3gQx2UNfp3faa4jQ5GDUUL17le/Ckd1GX5XoRbMTLBhds9OkibV27zWq+xbOH6cOtQ9z0TScUct9Fc70QSODfcRgfyPEIHU9weoYNwK4540YGxZ6sOINzmZk5MZURfozpY4navDqZu5vboAOa43asD14Tb6KC9wfD6CKa4rZ8Kv/f6uMj8/OCHr56eND8trpuhL/uZZy5f9fPPPPjCKy8/2v1CLWolDUYErnJbDUVF7ZwaBolbJr2KCEjc5LtHOBURUGLixGtbc63c2uwdHkbunuZQO6eYuDiKW7HCwxE6qJ1TPDrAyZ5cw607G9werQPcJiY+8LI1V2i5deDgKG7xmlzFHZ1IKlxnpQUH4fYIHUDl1k9xR41lC9ya6Cu3R+gg3Cam+PLek6trowPcinuEDkCu+ZSP+LjdowPArfwqt8aevVBfN2tyTK71rwBsgRsOY6t44eEIHcDROgDcpv7y1R+OyFWM1N9xhA5wq70qtx593f2Ja88xP19209Xf6P7I++ue+vIv+olrf+GF/33mwAz5fqEf+PTVzRfvzjnTfDLriIkaOEfxHIiLm94Defm4rFwJ56hBJMbCIVcTgVzdBW6F64k9gsQDTvZCfZOnmNoOt9pyK3IXHR0cyW3unnQiOVtOP4Jbd2KZTI7iNuY9ucp778dn5RpuE/MIbqd0EG63IjqQX3RwFLdiiOfOVEyTyRE60MeiA+12xPhVdXAUt1M6cBzBrfYS8yhuXSdX5qTVwV5uo4NwK9e6+roFrtVmcg2vytjLbXSA13C75cMfFdGBeiffI7llfOQqb2WIuZXb6MD8KNc77nvw8oZ3P3j51nd87InfdNvV23d9389nGvYLffEbrr7vG+95/hFZrZzOw+363Z3K3s4ZkWuIPJ6JmxZ/i4AiHA2sw5uYcqeyR0ARuSOrKQ7/l+uWzjm1LF+5FXsPt2LIVdzKrTJGuZ3SwVHcTulAOeEW96PcRgeul5+85LqXW3FciwNx3T3hAR80Fx2McDulgyO5VV9xsiwvfrgVcwu3VQdT3GqzUaTN6UC+uBR7D7dVB2KIFw62fjILnN/qYC+3UzoQA7fZkqCs0VwhfQwH0YE4e7lt9/2s7WnpQTUUS9ziqxdTOoD0sT3cTulAHP+vxq2X2+gAd1UHR3AbHeBWLLlCdOC1LTrQZnKt+35+9VufefRL37Ty6OtzGb/0jZdXe0T2Xfc9d3n9u6Y3kNbOidheAVWRTz2eEWe0c86JPNgjIOeKKVcrPzVXaDtn+34LdZFrO5FUbO2cVeRT+37EGe2cVeRTuWzldk0HUDunckd0IF8ct9jDba6Zes6f+ig73C6hRwdbua06mNvvoTzlit+rA/lqjznewu3ISotz5Ooa104ty49yO2coKsQMt44Rbpd0AKPcym1JB8oIt9FBD7etsaSnFqPcRgfOp62pPOQabsXu4VYc5+JgTgcQbtVtjdseHWzltkcH4V/5eO7hdm1D+RZu08bRwRS3ysJP77xbdZB9Pz//+NUzXft+Pp8wsl9oTUBej8jnJr2Kns7ZI/KKEQF5L8IRdylXSOdcWgb1uno5D2dLuY5wW0Xew21P56winzKWLUa41cF7daDccDvXOf1frsrs0cEIt1UHc4aiQtnhVsw5bnt1AC23BsopVB2IOzeRBOF2aeCrOpCvMpagPDF7Vlq8F1PVs+9njdvoYMlQtMBtz83cqA5GuO3VQa8pjg6WjGWLltv2/NGxFtLH5LtUP/XIOXOGokIc587dzG3RQS+3ozqA6CDczulAfZZ4qujh1mtyjb56dBDtyHVq3m11UPf9/PK3XP3wLxrz0yL7hX7uYy8w0QCxSwKKyE16BNEjnGCuc2qcEZFXLAkoBiGGYm3QrxDHCkzbOSNydegxFBVLnVOciLzHULSY6pxbBruKJW4zgHh9VAepq7xq5/Rz7e5pDkvcjhqKFup3Y5C4Hv8IHUC4lVdbV68rb0uuUwNfdICTLToQM9w6KrfRAW6dM5IrzHGrzHAwkqvyw210kOv36mCK2yN0EG7FbrkNB1s2lIfb3MxFB1vH2iVuqw56DUVFxmpc4DncbtUBzHG7VwfyCLfRAV6jA6+rzwjWuFUH7/UYyxZyDbdiOqoO6vf9fP07P8/2/WyF/UK/5E1Xr8t+oSm0AjJQRzhTj2dGUAc+k96Ia57ClIDk6thiKCpq57RpUAeX++gAUjHFrd+3GMsK+YRbuRr89ubaclt1IN+pZfleyEssevI7bh1bc4WWWwcO5D862FWE2xjNI3Qgl/odONHB1sGuonIrX7m2ZmsUuFXvyu3WiaQi3IoVbrcYigq5RAe4PUoHINeszDj26gDSxyq3I9/zMgc50YDYfoaDPbnWG4580ukIHQAe1Vssx14dQOVWvvRwRK7yUvfkeoQO5rjVJ/bkCnJL+/t5930r3/fzhYDsF1r6fiENQjT5qNzej7hCHL6BRFymxWvt0uIoCCjicWjsvbnKiWvWMcWUs9zdVe2F/Cq3NtHuRbgNB0zmEdyarJOr4whuc2caHYTbvblCuPUJB3H3chsd6A/JNdzuhZuAcOunMvZCXpVbZRyhAzy2OtjLbXQgx6O5rTo4kls3R+FAzCO4ddPScrvXAEQHGb9wrI/t5VZecj2S21YHjqPGL7m1uR7BrfzkyazIW8y93Gqfllvz7h5EB3J89/Vc33TPey//5OFnfvHt+9kKj8i+5m2fvl9IJ4xz5CK5cg1Sl+pGEJG7XlwxHQRElPXRyCiy+hPX7K4nd1Xe2wK5EGQ48HvctEHQ+1s6pzjJ9ShuI3I85u6pcrtn4JOTmFZ+xNrLbQxFlmPlGW6VEx1s4bbVgUEqKy17uK06aLn1/y3cTumgrrR4fxRVB9Fp8j2CW7nJtepgK7dTOjiK2ykdyDv5j+YK4RaPieHAg8llK7diyJX5E5cZarkdRcba6KByK/9w67xRVB1YqTqCW9e0OnBEB1vnBjGjA7nVleKt3EYH4tBW6itv+Xt9jw7EkKuVqnDr9S0rua0Osu/nN1w3P1/ypl/E+362IH+Cw36h2z740Rukt49nlvZdrIEoNKiGmGpM5UTw3uvtnHUiaR991WXQkc5ZRW7AaK/zf/FGBz7XReRtrlu5nRvsKryWgW+kc8oh3FYdwB5uW0NRkfaU68jA1xqKutTtvS3crukA8HJjcBnkVh8IBzVXP8OtSbF34FOuXNVtTgdbua06MOi3Ogi3jhFul3QAW7hd0kHlNjro4bbqQD7KaJHJdgu3MVXtKnvlVuwebqOD1lBU+H+4dV4vt0s62Mvtmg7CLe57uI0OYizbR19buO0Za8OtNh2ZG5QvF7m2j0D9Xh+b93Db6uALct/PVrzw/UL3fds7H7vc+4lPNUTFiIAicudX1zyH3s4pjrKd2xqKipHO2SPyijrwrXXOiLw1li1GuV0a7Cq819s5Uy+DnXynBn0Y4bbqYM5QVMg13Dp3jlvvRQdTg11Fy+1cvUZ14L1ebnGkbOcu7ffwupg9A5/ylm4wWvRym4lkylC0wK3+nYF8KdcRHXi/l1vl9uig94YjOvB+jw6g5VaMKUQHuHXuXK6QPtbDrTYLBz3cOm/tZm5EB73cjuoAogPXLOkg7SXXte0bPdwqR669Yy2EM7mG2ylUHbTGsoWYvdxGB6t/5+vEPOpH6pc2T88JqIpcYxBQL8RZWmLW+MpcMxQVS51zi8graud0XZtrRK5OPblCD7f4meu4c1jqnOJ4z7FkLFsscTtqKFo433Wun9MBDkY2kIbbqZUWv2/VwRK31VgqG2c9qAOfo3IbHXi/5wajxRy34sjVe3JdmvQqnBNuo4PktFcHS9zu0UG4FbvldsRYtgi32r1ym3r0GIqKJW6rDnoNRUW06Xr5hVtxtugA5rjdqwPnumbKFCtDWW4cRnSwxi1OwsEot3INt64Nt1t1AC23YkHVwS/q7/v5TGNuv1AwJSCN4ucWkVe0nTOCGjUUFa2AdJY9Ig9cJz9xdM7HH3/8xVxHDEVFy21ylb9yIv4taDun/xtY5Dr1RZI9aLm1t2Groaio+eE2ueN27e5pDq6pS8zhVhl7dACVW4Ob3+eW5XuB26y0iFd1cDS3ypDryERS0Zpivx+hA6jc+gTkXh1A+ljqHW736sC1YrhZyViGA69t1UHl1qZZvzuO4pYOwu1eHUDL7VE60EbRQcxPDAUdb8EctzjZkyuor3qL5+deHUC4NbbQWGJ/wXzfz2cS2S/02985vypEQBpCI2S3/F7hBBpaTAMqge4RTmAC1GmIXew9hqJCncULB1sNRYVP3zAn6n80t2KFW3e8uVPZA3VOXMdR3BpIkutR3NISbqMDHByFcKBPmEj2cuv63FyIK/5R3LqpCLcG/d6VqiVon/TdI7lV58TEhXL2cqs/tdwePX6J7fe93Fr5yMQfHo7iNjpwRAd19XULrE7Il7YyzhzBbcZaMXGrjL3cWqmqOnD4/xHAbXKNDvZya25wI2f8eusd91zueOiD576flxNf9JbLq6YekdVlOBOKxmZWdNI9AiJyMSKaON12GXQE7XKsnyMbzpbgevniwJ2p38UXc+sg7bosy/tDspVbr29F7qRy9yTPrAZs5bbqQCwrQUdwO6WDvdxO6YCJD7dH6AC34uYOey+32iwcRAfhdiumdFC53WIyWx24+xdbvn7u4dYEGg6YHzxot63cOl+uOIwOjuK26sB4UFdacHCEDo7ittVBbmTkGm5HUXUgXzH9fhS3uJSrfT91pWWPDupKVbjFwx7j1urACs4R3EYH9v08+OjHL996+8ef+Oqbnv78/jtfny+o+4WqyAknQmmXQUcFRDiuZSjEzWAsTiugHsFPiTw5ceR7OmcVuQG0ThxbO6dzw62OU/mr3I52zvAnJ9yKlXwzEFZue7D0nF/McOvYwq3r1Lddlt/D7ZQOxA63W4ybmNGBGDgMtnJbdWDQr/nINdyKPcJt1YFc29XVcMvI9nK7pIO93DpfvjhodRDelYvnEW7n9v3s4TZtHR1UbpURbkfGryUd7OXWdUs6CLdi9nAbHcij1QG03I7czEUHuBWj5hpu8TPKrTYLBy23zNuWm7klHcAWbqsOzn0/nwNghl550zMXnySbEsaWzllF3hqKiiqgtYFvSeQVowNfFXlrKCqU19s5q8jla4CfQrgd6ZzOUbfWWLbo7ZzqINcpQ9FCrsxcuMXdEqoOXDeX6xZurRws6UBZ0UEPt96Ta8++n15ulwxFi/Qx+S7VK4gOnLu030Mc5fastDi3RwejNxytsVx63BEdhFscTiE6cF57g9FihFvvyTXjzJIOcq4clrgd0cEot706AOUqX/wlHXivd0N5uMXD2rlrhqIi51Zup1B10BrLFmKGW8cSt2nbHh1AD7etDs59P59D6N0vFAHNdc5eQ9GiDnytgEZEXtEz8Om0xDiS61LnlLdccSPu0mBX0cOt18LtkrFssdQ5/V99vD/HUQvlhtupT2ZB1UHPABIscVt1IF/n9kCu4XZu4PMabcl15NvU57iNDnoMRUXlds64VR0sGcsWMSJL3I7oACq3Yrfcpj1HN5QrP9zKu3I7YigqernNeLFmKCrkEG7VOdxu1QGscbtVB+GW3lvjFh0od0QH4XbuZs7vco2+enUAlVtxwu1WHYBcl27mtupA+UvcRgfn9/18DmNuv1DFVOesIh8xFBWtgBiDp556apPIg3TOduDLAOJ1cUdzBdfVzilnnUmua3dEc2i5FS8TyaixrGi5dYRbr23JVQ5itgMfTnEwOthVVG7V312p+Ft1AHjLwCc3MaID3CprS65T3CorHGzJdcoUVx0cxa0YPgG5RweQPtZyK6b/jxjLCnFcbxVLGXSwxVBUTHFbdTBiKFpEB+Ljda8OoOX2KB0kjlxxilu/y9f/t0DMKW6T+4ihaIFbuYlPT3t1II9wm5u5o3RQufUYDrd0cX7fz+cR6n6hOURAhGj3vd8JcqtwAgIiSqKJ6LcOIEEGvuSqgzIUXt+LxM2g5O5kL8JtPtngd6/t5dbAjFu5HsVtBr5wK/6ewa4icR0Gpb3cZuBT/+iAzrZOJBXihlvH3r/FBWJa9YsOxD8iV3fRlVu/H8WtHMPtnomkwqQnrlz9PIrb2seO4rb2h+ggqwFbEW7FTK72ee3NVV5yFTM6OIpbxifcGmuP0AFufbAkHBzFLZNNr0dya+WncnvvRz5++eePPnfu+/l8AzPkT3BMmaG4ZodGjvPfM6lmOTZ3kHHTYmYZdAvizAlcrsmbQ9+KdjnWnYS8rQTUZdAtyN2TQVTOe7mVi1xz9yTXo7itOnDI288jdCA/E2nusPdyKye54SA6CLdbMaUDccPtnsE0OginfuoXe7mtd9FM1p5PZgViyjH8ynUvt1UH2j86CLdH6ECeVjP3crukg3C7FeljclT/o7g1/iVX3Ppdvnt0kLHW2BVujWHK2Mptq4No7QhutXl0wKz56djKbXTg+ht8Xuf13g89evmtNz350evm59z38/mIdr9QFXkez+TuZ2vnrCInnNpZ9nZOueg4crU0aVLKXaB6jHZO5ct1ajk23GztnHINt9n3U7nd0jnlIIZc20F+D7dVB+K6i7ayFm63GLdWBzgOjuAWf3LLSpVcw63YI9wu6QDC7cgns4Kqg6ymVN3u4XZqQ3mdVPA8wq04rjXRRQd7uW0NReXWz3C7xbhN6WAvt85d0kG49foIt2mX9LGsXLfcjtzMRQeup62aq9/la7wc5da1csFB1YFj6yezlnQAe7id0gHgFi/htjdXUH6M5Xuvzyv10dcvf8vV170wpZ74fEX2C33LLR+6vPHeh26IJcIJRge+NZEHXhvtnMqWgwHEN6e2uW7pnMqdMxQVo52zGooYyyluRzqnMsMt3ubO9/oot4xjO9hV+H90EG6XoDy5Om9JB9By25bdouoghqIFbtUlg2IPtz068PrISkvVwRy3U3tallB1IF9lzCE6CLc9fcz5cp3b9zPCbXQwZygqvB4dhNsl9OhgK7drOgB1cZ74vTpojWWLcOvctZu53rEWUv4It2nfuUfhYoZbxxK3IzqAEW57dOC1cNszN0QHys++nx/88NXT56OvX6QY2S9E7HOdk3B6RR70dM5698RQLA360NM5XyLyBUPRYq1ziiNX58yZn4qezjky2FX0cJsBBAc9+37kGm5dN8etsuU6siq3xm3qs2QoKnq43aqDaNJ18priVrnq05MrrHEbHXh9RAfOCbdzxi06wK0c1nLt5TY6cF4vt3INt65puR3VAbTctistW3UQbl2zxK335dqzodz7Szdz4st1dKyFNW6rDuYMRQvcLt3MbdWB85a43aID70cH4bai6kC+H77O8fl9P19AWNovBAQ0NfBFOFPL8r2Y6px+es3RYyhatJ1Tp9lqKCqcP9U58aEsuXp/JFfnuqZ2TuU4tgx2Fa5rua3GUpuNbiiPDuSbNq8DCN635Ooa+daVFjHlmkG0Z7CrmFoNOEIH4Do6CLfiii9fufYYyxZz3Nb9Hlu5jQ7C7ZaJpGKK26oD3GzJFXCrvuIcoQOo3OJRzCN0EB4rt9EBM7NFB2KGW0e49Xo4OIrbvTpwbriNDmxyPkIHU9xqu706CLdiy1euft7g5To/Vn++5d6rx8/v+/kCw8j3CxGPv41iwiIcYt2LdE4xs3ScfT9bUTtnct062FWkcyamfEe+72cK6ZxiOQwect+bK4Tb5Lp1AAky8Bnkqw6O5jY8bJlIKuRq8BQvPByRq+tbbuW9J9dwa5AOt3smkgq54lauYou7RwcgV9p/ObmNDqYehY8g3IqXT/rI/ShuEzP5mrj3QK4+QRVuj9KBGOot3+iA0d7LbXTwcnJLv/rynlwBt+ptbhD7nvsfeOlH3m+++l0vTI0nvtCw9P1CuYu24qHzEKRjZDPfHHL3lEFaTM6/XWIegeuJXa5i5k5lb8fMRO0Q04TlNeVthWtxm8nPz6NMkDrr8O72HHu5zbK8SSk6CLd7ER0YTGNecUB7W6Gu2ic6OIrb6ACn4h7BbXSg3tHBkdyKJ08/lXGEDqwuyjVxj+B2SgdZDdiKcCs/eR7FrbomVxwk3z3cZqyNDsQVf+tqYEV04CZG3kdwK6fooPK7l9u6cu3Qz9ws7uE2OlDv+6/PZW98z3sv33nLB5/+DW8/H32dKGj3CxGOAZ4I0xEZDIIn0q2ds04kefTl8FpdBh1BRO763D0px//3dE5x5IWD+pgud6xbOufU4xnLyeE2g/QWbl0XbsWXa/j2/63ciiHXTHZyDbdib+G26kDcrFCE2y2fzJrSgZhHcEvv4SC5ZsBWnvqMcBtDIZ/o4Chuqw6y30NsZeAlOhjlttXBEdwu6SDcijnCbdWBfJUBLbd5fQTqiEO5Zt/PHm6jA1qqOggHIx/+aDGlAziC26oDwG22JNTXexEdMH5VB+Js5bYdaz36ev0j1575jbdePfrL3nj1N07zc2ISzNBX3fzJy5+7+6nJ/R6EueVjk84hcmKc2/cz2jmnDEWbS+2cYvfkCurlmrl9P+KMdk7ntINdhTIySIfbHtS7JwOIfFq03Lb1aZHBzvnqOMVbJsCRgc850UEd7CqcY2m93rEucdujg9FPDwWZSHAw95guOgi3PTqIoZi7mdjC7ZyhqMg5cg23S+jRwVZu5bikA8Ctc8Tv1YHy53QA4RYPvTdz0QFu5TKV6xZuo4O5NvZ+uHX0cNujAxjhtkcHygi3I3OD88R03dyG8hFu1UOuGWvrn7r4rXdc/chpfk6some/0Ejn9J5z5gxFi7XO2Yp8brALRjqn9zKAmIjXcu3pnBlAbizHzgx2FXINt2LPcSuO99u7pyWE27mVlh5DUTHKrTo5t2ffT8ydXPA8xa2yenUAvdy2xtJEvwTlhts54xYdKH/qBqNFL7dek6uyR3QQbl3fcjuqA2i5nXtsrh7e79WBcpVvolzitl25XoIye27meg1FxRq3VQdzhqIFbtdu5rzmvREduGaJ2y066DXF0YE26N0H2HLbXiN/bSbX809dnNiN3r9HNtc5I/JeQ1Ex1zmryHX0tQ5Zofy5zlkHu7mVqiVMDXyOOoAoYwSZAOXb1lXueb3n47gV4rQrLRnsRgxFxdLAV3VAKyO5QnQQbqMD+Xp9VAcwx210MGIsK8SJDlpuo4OjuU0dtmwol4ucxD9CBxBu8fDg+x++/Pxjz12++wOXy5+/75nLn737yRvHn3vP05f/7uGryxs/fp2zl/qZWaRtKrfRgdd6jGULMcOtI9ymHXGwRQfQcltz3cKt8sNta9z26mCO2706CLdih9v2BkN5owi3uZnTR8LtvdfHBObn/Mj7icPQ7hdqUTunyYPYI/IthqIindOkTeAGut67pzm0nVPeOtTeXCGdU0w5bx1Agnbgc5cbbtVhT64ZjMJt8j6S2+Qq7paJJJBTuI0O/L4n1yluM5GMGssWco22jtABzHG7xVhWhFuxkutuHTzz3OXvvO+py++9++ryu+++LB7/6T2Xy/d/6HL5aGcV5BqT6pAvLe8BbvEYbqODLYaiAodiyNdNh1z9f69uowOfdDpKB1C53XqD0SJ9TJ751Jf/7xkPQF7qrO5yFfe9H/jg5e5PXHuO+fmym859PycOBjPk+4V+4FM3oi+BDb4mE0J3EPreP+qXO1MdU0w/GSPufy/kJ998imhvriAvdyfJde+nhwJL9y23ewc8eVVuDdIGFpzvgRjJNZ90OUoHcjyaWxNK8vXT//dCXnQqZrg9Ilcxo1mHRwl7uY0Owq2fWQ3Ygrc+frn84XunDc/S8Qfec7n81MoHT/EnVzdaR3MbHeBVXP/fawCiA+MLE7CX2yA6SL5H6DY6EEf95ez3o7jVZ2uue7iNDrJSddu777u85b6HL995/3NPfP07r95+mp8TLxvsF/riN1x93zdev3urj8iyHGs1hcDdUfq/I8ugI2hFnrtoP/d2zrpS5U7CZBpD5L0tnbMOIGKKYaBSjte2DnziiKHOclT/cOv1LdzOPZ4Jtzjfw63c5Cr+UdxO6SDc4nkLt2JGB3JkNMXbw23VQVYsk6//Rwej3IpRdSD3vdwu6SDc+v8Itz/x2LTBGTn+/gzt8oihyL6f5LuH2/TT6AC3VmvoYCu3UzqAPdwGcowOrKZEB+l3o7lGB+pZdeDwezVuo9yKGW7VGdd+Vm5HUXVQ9/189VuffvRL33Q++jrxGcIvfePl1R6Rfed9z1x+9q77b4jc5FxXJ+oS80jnrCKfui6dc3Tgq4Nd++irdzNfi6mJpEU78PWu4Mgh3LXL8lliHuEWR3JtDUWF/4s3OvDVwa5dlt/KrbLlK5e5OkYH4vfmKo5c3ZmK2y7Lb+F2zlBURH/OCbc9WNLBVm7ltqQD8Lr3e7n9p49Om5oth8djQXQgj9xgtNjCrTiuUcc5HYRbRw+3PTqAUW4hfWxKB36PbkeMm7KZKLnMbSjfwm0da9e4dV4Pt1UH576fE58zuPGR+rc8e9+3v+uJl4g8GOmcVeT17mkOI51TB9fR1/b99HbOGArvLw12FRn41r4DR8wMIK2hqBjlFl/Kd/5arlklwYXr5rhdG+wqermtOpCvMpagLrjtMcXKVL5cl/b99HIbHawZigrnhFvnznHbqwNouTWxTSHc4qpHB73cvv2xpyfNzJ7jxx99ntvo4Ghuo4PWULTA7drN3BYd9HI7ooNeUxwdOHfOWLZouWX4WnjdORlnlsYDSB9b4rY1lj7ynn0/55+6OPE5g+wX+rmPvaDcBjrCXOfsvXuaQ9s5a6fLAGLvhPOWOmTFUuc0gMRQzN09zcG5VsymVlpGDEXF0sBXB7seY9kig3S4rYO0HHsHu4o5bqMD+W/RgXOjg9YURwe49X5vrmvcRge1Hr1QP9eKf4QOINy6vmpzrw6S0xS3D3/4I5dvvPu5SSOz57Cp+m3vfs+wDmCO26qDNUNR4bxw25rivTqY43avDsSjWzGi26oD+TJtowi37c2cMtKn14xlxRy34so1xrJ+38+57+fE5yTsF/olb7p6XbtfqKLtnP4Uw8jd0xJq57S/IwOI1R+T2SjazqljG5jk33v3NAd1zsBncPO73EcHu4qWW7879nLrunBrkPa7+CbTkcGuYorbtWX5XiS/yu2WiaSi5ZbG/H+LoagIt+JEE3t14Jp8B46NqEfpACq3+q7f/97dH540MUccf/eD2zfpT3Hr2MttdFC53asDqNy6SdqrA0gfo385MhhH6MC1uZmTb7gdMZYt6g1HuJXr+X0/Jz7vkP1CS98vZJDWMfMJD+biCBjsxDOx6pTKyZ3VVvj0DSOlY4ot7t4BLxArn8QwqOzN1d1TBrrkehS38gu3BtQtxrKF3MKtuAzQEdA+cg23uWvdAytVLze3Ypu0juCWqYy+juQ2fcxx+13vvvz+e9Y/Br/18PH53o/OT4EOcKD+uDWx7uW21YHjKG7FTXsxsU899dSLKy1bkZWf2seOGL9o/2hu9dFw+84777q86d33X370/U+e+35OfH7CI7KvedtLv1+IyOtyLJNi0NeRiH9P53S9ydmkalLRQZWjs26ZAD9tOfZ6LHGzGqC8rXCtGIyguyl3ZspQlly3DHyuU1dxcCrWEdxmsMtqCh7CrZhbuP205/zXfzqO4lac5JrVgPbxYy9aHYjHVJmk9nJbdeAuuq4GbOXWNfLNhnJ5ix1utxo3+bg+G8r13Te+/7FJ83Lk8bMzj9jXUHVgpfEIbl1XdZA+lnK26kCc6EAcKzjGmqnH5r2IDtRX+z/++OMv9rHodguig4wzVqrSx8LtaK6fNh5cj/fmD37sua95yzOPfsmbzn0/Jz6PkT/BYb/QPY8/86LIdZoMGHUZdEvnrBOJJfq6HNsOfDpbDwwg1VDUwS1LzFsGvtZQ1KVucbwm15GBrw52BqKaz15u3TXWwa7l9saAdT1+b64xFPJodQB7uK06aJflw3vltgdLOvB6uHWMcLukA9jCbdWBa5URiB1umRi5jnKbNqkbyn2cfcq4HHn8hXs+McTtkg5gD7f6V6uDyu2oKY4O5j6pGHMkV+fKYw2toZjqY97TnmKPchsdtI/ClRFu5d3DbcaDGMtz38+JX7R44fuF7vu2dz52wwxNYbRz1runfOprDr2dM4OdPFpDUTE68HlPrnKYGuwqege+tcGuYpRb7zvPasfSvp8MfD0rLd5TH7kuLcmPcpuJZM5QVMg13Io5x22vDqDlVj5LkGOPDnq5jQ7wtKYDZXlfrj3cRge4Vcc217/4vmnjcuTxR+559sWJdynXER30cjuig9EbDu+LKde1byhPruLLYepmrjUUSzqA9LEebqsOpoxlhTjiyXWN24wH576fE18wsCq09Cc4YK1z+r8O6Yj5WeqUQTrn1BLziKGo6Bn4vJa6jGwkrgNfO5DIrXewq1jjthpL7/c+488EVAe+wO/h1gDam+sat+IoEwdyXZr0WuDMdS23W3UA4dZd/ZTJy0SiTUd0sMbtlg3lYoZbR8ttr6H4kw9MG5cjD/uCwu2Ucdujgzlu9+og3Irdchsd4HZEBxDdtjdzfleXcNCbq7KXuO3VwRTkGm7FCbd+htvz+35OfMEij8h6/h5Z7Zx+GlyYH3sSRgaQoK60eE5uEtliKCqmBr462K3dPc1BLhn4DNIOmyVzB7kl1yluM9jNLcv3oh34cOv3I7kVMzqQ6+hEEoRbXCrjCB3Iw7V1v9AROoDKrfYJtyPGsoV6uz5cRgeZTNd0sOXPY2w5YMoUH6EDqNzSgD1fe3QA6WPJL+NODIW+vAXycb2bOWNgdEDHW3Od4nZEB0vAYW7mrHj5Ke75fT8nvuCR/UK//Z3znyJL59Rp8qmJdt/PVqTTi62TujvZCwOfCTC5irtnAAkYHwbFACrfI/7OWcut+Hv/cCi4O01ch9+P4laO4fbBBx88RAeJK1c/j+CWmTB5yDXcHqEDKxQtt3WFcAvkVLn1s9es/ef3T5uWo48Kueq3ldsjdGCFItxGB0dwq0/Ra3JlsI7QgThiyldfOEK3lVs5G2+O4FZ/yLh4+/3vuzz0iafOfT8nTgRf9JbLq+Y+Up8709yV5Hd3KltRl2OZFHcqYmc5fOvA5y4seRpI/G4gkevWO7R2Wd4jD3H9X8wsMW9B7vYceEjO7iy3Qj7aTK5MQO4C93IbHRiUHX7fy+2UDsQ9gttsKMepVctwuzVXvMlVfcWV61HcRgfhVa7hdg2fiT1BjFZQdSBPE6uftHaEDnBrxWbvJ7MCHGojhxxHuJ1CdFBXLKOD6PYIHcg1+R7B7Q0Orsd55Hr7/bG3PfLEr37b1fl3vk6caFH3C+l0OqSOXvf9+Lm1cy4950953svANwIDSHLKsvzanpY1yGHu8Yz/e1380UG6XZa3QgHh1nsj+0sgg518DHj12kxcW7hNu6hrcsWtmOHWMcLt2n6PPdxmIqkbyqtutxg3OcRYtu2yh9tqKCq3cg233l/i9rs/MG1cjjwYLZBjq4M93EYHrpnSQfoJLnA1wm10gFvXyxNGuG1RdaC+NVe/R7ejxm1OB3u4VX762Lnv58SJQTBDr7zpmYtPkunYGUCC0c45dfc0d773MvA5Z23gq4Pd3COE0YEvA0i+52UuV6/Ll+noGficr3xL8nWwq/B/+wzqnpa58mHNUFRs4RZncp3b74Hb7GkR24C+BOX26MDrI9y2xpIBbiH/6CDcLiE6cM3avp8Rbr3v3EymUzqA9LG0wVT5vsNnyrgcefyv7/3EjXy1xZwORm848GPFEwdrhj86CLc0P4c5Q9Gih9ug6qC9wWjhvehgzRTn3DUdjHDbjgfnvp8TJzZiZL/QUuc0CMzdPS2hDnxitBNg72BXsTbw1cFOvibWHiQX180NfNVQ9Oz7EXOJ2xFj2cK5NwbIGW6VFW579qZ4P9wyeK6f41abTnE/hzVu8/6SsWwh13Dr2pbbEWPZoofb6KBnI3HlNjqouXziuZfv26JzvOnuB7r3KK1xGx04Z81YVjgv3NJ8y633lef9Xh2scbtXB9Gta1rdjuoAerjNeHB+38+JEwdhab9QMNU562C3dvc0B9cYTFxfVwMMHCODXcXUwCdPh99HB7uKqYFPTK8xFF4fyRVabk364voZDo7iNoZixFhWOFfMuoplQ3mdSLbkCnPcxlRt2VCO26xiiREdbDGWFVPcVh30GoqKqRuOtNnffPejk+bliOMvvueJYR1A+ljLbXSAny3ArXjiVG5TTq+hqJji9ggdgGvFEP8IHUDLrQ3Z8rVyfX7fz4kTLxPqfqE5pHO6K9fx9w4gQSZnnVxMA8iWwa4iA59c8wmP0X04c8jA5xhZoVgCbk2qBmk/HUfkGm7l6m8bibs3VzFtbD1aB9Byqw335Opa3JpQ1F9cfBzFbbTlOIJbueoHldsPP/XMje/ymTIxe4/7ntz+B1TVU33xGR7o4ghuGZTK7RGfVAy34ontOCJXMYwByZcOPArcq1uPzSu3H/jox859PydOvNxghqa+XyiPZ3xs1GSic+auau9AYsATz8AvpoFKTHdWW+Fa+Zr88gkXZez5ZBbISxyDErPmEFN57aORXmRZXr2P5jZ30fIU9yhutZlcc8cq9lE6CK+OukK4BdFBJj+5hts9aHVQud06+dXHM7gVV744fs1Hnps0MXuO//6hZ3dzywhm4j+K2xj3aEBc3B6hA9yKGd36uVe3YuDAOBMdRLdbEB3gUdw77nvw8oZ3P3j5rTc9+dHr5ufc93PixMuNdr9QHewyaIxs5ptDHezEzV10u8Q8MvDNPefPKpbytq4IxVCIk5Wq1EF5owOfesm1XZYXM9w6tnDrmnBbl+X3cOt8+RrkowNxw+1W4+Z8ubaranu4XdJBuBV7K7etDiDculEY5VZurQ5abv/SA9cmzcyW49vve/Zy593PP8LF8wi30YFr676fvdxGBzioOvB6uB01xXM6OEK3rpEvA9jqILoVc5TbbCh/7/VxKo++fvVbn3n0S95w9XUvDNEnTpz4TCD7hf7c3U9d3vCeTw12Fe3A17vSwoi0g11FBj4DTM/AF0NhYKqDXYUyRj6ZFWSwaw1FxejA532TTziY41Z54bYn1xiH1lhWiDPCrffrRGKybqGM6GDEFDsvhmJu30/L7dQ5QXTQGooWmQBTdg+3PToQZ+Q7cMKttpjLIzccd73n3st/dffjk6Zm5PiO917XyQtPwaKDcLuU65yhaLGV25w/9yhcnOhgzRT36mDLzVyPDkCZyhZ/pI89eD0m8/ODH756+nz0deLE5wBG9gsZHJZWWjKAMCI9+356VgO8FkPRs8rj3Ax8jrmBr8dQtFgb+OpgZ/JZy1V54XbNuDlH2b25rnHbLsvPTSQVcg23Ys9xGx3g1vlruUK4nVtpqTrAwVHcbtGByTfcur7ltupAvmu5Qrj97ns+Omlueg7fO/RMMxcrO9xOGbdeQ1HRy23VwZKhqFB+uBVzitsRHUCr26mbuS06CLdzNxytsfSpr+z7+bKbrv7GaX5OnPgcwtx+ocCAMLfSkkkhA4g7sBFMDXyOEUPRwsBXV1oMciCO/2cQ7RnsKqYGvppr70RSofwM0u0dayYS5fUYyxZz3GZZfsvjw0yA8q0T0ZaJpEKcdqWFlvboYG41QJw9OoDoINw69ugAcPvz9z18+VP3PD1pdKYOf4j11uWveHqxvnKruh01FBVz3O7VAeBOXuIfoQOIbuVWdb+2cr2G1DfciitXfNyow/W6WP35lnuvHj+/7+fEic9h9Hy/kA6fgc8nG3T+dr/HVmTgE8vh9y0TSSCXDHzJMRP3FkNRkYFPLJP23lxBruFWbEcmkj25QsutnPfkWrk1AcrVT//fqwOmOu1lwnu5uBV/rw7kVLn1U8wjuP2Z+z5w+at3PXr5xrs/feO0P776/R+6XO4c/JNXcg23Djc1e3KFcIvTfDJL7L06kJe/dSjf6OAIbnMzl/FLH9urA6jcyvWeB59/9PXiR95vvvpdLwy1J06c+FxGz/cLpaP7pIvJz4C3B1mWzx82NJjs/WRWYICWYwZo/9878OcuOgNpTIXX90BMuTryKaK9f9wxy/JyfLm4jQ78fw/q45mWW/XYA3fmyTWm5QgdyNcknVynHo2MQl7iHcltfTxTuT1CB1n1kGeMwF5uXZ/HdC23e5CV68ptVrG2IjrAre/7+fk777/81bs/8fSvveXc93PixOctpvYLGSwMICZnHd5kasAz8G15tAIGEJN/nZiy0qKMrQNfYmQ1Re4et1gNcGwZ+F4y2JVl+awGeN05WyaVuixvoA63GaRHuY2hcK24WU05gtuqA48d5SpeVlq2ctvqAMItTrZw2+rgCG6rDpIbZIL1unK3cotH+dlQvpfb6EBuVQcOv9PxVuPW6sBjq7pCuIdbebU6CLdeG+U2OohJc+PWcuucEUzt+3n9I9ee+Y32/bz53Pdz4sQvCmS/kL9HlomkrvxYRjZAjX4yq04k1VBUbBn4nOeaTKbtsrxBuu4X6sm1HewykVT4/5ZJJRPJ1IbyuX0Xa1B2DMWcOW257Xkc0BqKKW69nkm8h9seHXhNvNGVFtfM6WALt9GBc+d0ANFBuB3RAW5d17bHVm6jg7lr0qbK7DXFazrYwm3VgXzn6odb7zuvVwfKj6ma+qRiuO29mVOmXGMs65+6+K13XP3IaX5OnPhFhuwX+n/e+tzl3k+8dAAJDIwZ+BxzA1+PoWjRO/ApM5PE0nN+r/fesXq9vYteQu+kklWDTCQmjjnINdy6Zo7bOpHMGYoW4XbpO3DEUa7z5NpOehW93G7RQe9KizKdh4O1/R4j3Fo5kGvPROn9cLtk3NYMRUUvt1t1EG6dP8Wt153TowNoucVfiy068L7z1G2J2+hgzlhWeE/MtZs5ZWkzuZ5/6uLEiS8w9P49sqmVlvbuqWewq1ga+Opgp+ylwa7CeRmk2zvWTCTKM+CP5ApylVMmleSUSa8uy/fmmwlQvjWnLRNJhXPnvgMHJylvZAPp3GrAXh1AdBBuk2trLHtzhTluowNl0dZors6PDqopzus4UN6IDua43asDcI1rxThCBxBu1bcaSPH36GDuhqPVgfd6IWa4dYTbqoN7r2uP+Tn/1MWJE1+gmNovVGGAzMBnkDZo5i7aa6ODXUUd+NrBbmQiqZBrBr7EdshXeXuQScVKi0+7uNOU65Y/HAott+Fh60RSET7FlGu4HTGWLaa4PUIHrg23yduxRweVW5tm5Zp893Lr+sptNDtqKCrCrVhyPCrXcBujGW736MB1+WRWuGW69+oAKrfqv+UGowVu1Vfcyq1HX3d/4tpzzM/5kfcTJ77Akf1CPzD9BOHGndMDDzxwY9DziZSexwg9EEM8JsDA5G5t6XFSD9xFiyNePj2z1wAFVlmSr4lFrrnD3gq5GegTF7dHQNyW271t5i463Ip7xMQXiJVcTVR7daBdTIDRwZHc4kBMh/g++bdXB7hV73zS6ag+lpuNI7mVKyMUbutKy16II1eHuHu5dS0O/IFX3L71jnsudzz0wRuPvr7+nVdvP83PiRMnbsB+oS9+w9X3feM9n3pE1i7L+7n3k1mBa8Uw+bmLdheYMgyyWwY+19XVFL9nclXe1kklE0nu+rO6Ite6fD8C14RbhkqufseJ2Fu5VUfX40CuJqtwq4wt3E49njmKW9fKNxvK62oA3rdy61q5MhNHcdvqINxqv/bxYy9aHZj0s9Kyl1s5RgdWUyq3Yo5yGx3IqerASku4xdEWRAe4lR8ejuA2OrDv59Enn7p86+0ff+Krb3r60S990/no68SJExP4pW+8vNojsu+677nLnY88P4AYjOpAnCXmmJiRQboOdu2yvDhbBr5MJFPL8nP7LnogjlznluXbScUksYYpQ1HzzWOcrdzmuvbxjDheH/1klutMdFO57uFWzOhAXu3qRHQg/qgOXOPalrut3DpPrjhwXauDmCPl9priNR2IuZXb9DEcTD2mU5YyR7md21Aufrjt/WRW0BrLI7itOjj3/Zw4cWITPCL71266dt933jc9mNWBr+eOdW2wq+gd+OpgZ3A2sc5Brs4zqYi9Nql4P5Pl2r6fTCrKl9PUpOI1uc4ZiopRbjPpTRnLFjEfuMDzGrcmUnkslT/Cbdq2Z7+HMmOGlozbmqGo2MJtdLC270e54VbMKW5HdAAtt/ibQ9o2fWwp115uowM50NZSrsoTs2cVy+tyxcGaDqCH21YH576fEydO7EI+Um+/0M/NfJl0z2qAQa53sKtoB75cl8FOWT0TSUUmwExs7XViZiJZMxQV4og3tdLid5NXOOjNdY3bGIoeY9kiE2C4rbnWiWRp0m3Rw21M1ciG8tRTTtUUjxqKijVut+oA5CEf8Y/QAYTbqZWWPTqY43bEWLYQM9w6priNRtaMZYspblsd1O/7Off9nDhxYjeYoV/ypqvX1f1CLdo7VgNdJhIT3+hgV5GBzyezDNQj3/MyBXlkUskEuGciqagrLfZ2yNXvONiSK0xx6ycO9uQqn3CrjOTq/yOTXsUUt8kXt+Lv0UG4VedszlXW0dzu1UG41e5H6UAeYtaVFn1grw6gcut3P/foAHDLQE5xO2osK1puo4Pz+35OnDjxsiL7hda+X8ggl0/kGKja/R5bwKT4hIc7YfGP+ESOvPKJL4fYeyaSwF10JhGH392p7gVu5ZhPJe2ZSCpwm5g4xu1e4NbE3HK7F+7+K7dy36sDsDJFr8mV4T5CB8zP0dyqM2MRbvWHI3SAWzmGgyO4lZf2OppbuYbb29911+WOD3388s8ffe7c93PixImXHx6Rfc3bPv37hQyaudPL3V/uWLfeTbbL8u58c8eqvCzfb4G85Olg1uod6xa0y/LuVh1+X9p30YN6F81cyHcvt/KRbzaUyzXcirmVW9eKY8LDqa9XCLcmri2YejyT1YAjuI0Gkutebl3X6uAIbrPSmD6m7cLt1lyjA7nhQL86gtvoAAdT3G5BqwOPvn7hvY88d+MTX+e+nxMnTnymUPcLWRWaWpZf23exhClDUQf5DNKZVAyOvZBHJpK6mpLHOPL1c2RSMVGYPMJBvTaTgVxHJ5VqLI/itk568sVxBW5vTDDX3x+dAOUR/uq+n3CrLiOPMdd0EH4qt72Y04GY4daxhVvanNLQVm5TT8ay6sARbkeN25SxPJLb6KA+CpdruBW7l9tWB+e+nxMnTnxO4IXvF7rvT7z9kctbHpze9zM68BlsDcAGu6UJ0+uZVAyOa5NKBvXWUFSMTiqZ9NTPxLd0rlwzqchlbVKRg7rN5Qoj3GbSc87UpFcRbntXA8QMt/KZyjXc9n4HTtUBDnq5dd4Stz06ALnWPS2um0PVgXyXzt3CbUzV3IZyr0UHa9y2hmJJBzDCbdXB0uPa9DH5rrVt1cG57+fEiROfk7AqtPQnOGBt4KsTyZqhqHCeeHPfgeN9A3Mm07lJr2JtpWXtLnoJmQBdOzUBZiJxTu+G8h5uPYqS68hKTAyDXKdWA3oNRYVrlrjdqgPArTpOcbtFB94Pt1ZhWu726GCN22oonNOrA+fi1jHFbQzFlE6WsMTtFh1UbqeMW9XB+X0/J06c+LxAHpH1/j0yA5+BbutEUuHONpOKQdkgKn6MwZZPqNVJRezk23sXPQfXuNYknwkw+WciYcRGMMWtjbjh1p35llxBruFWjKeeeurG/zOZ9kx6LVpu8XCEDqa43asD54tZV7Fwu1cH0HL7+OOPv0QHuB0FbrOKJUbVwaixrGi5PUIHUzccVQfn9/2cOHHi8wrZL/Tb3zn/KTIDn7tqd9c+4bF3IqkQRzyH+FaIRgfmFiYVA7+Y8jXwH5Ers5b6O5SxZSKpwK1Pvb3c3DIE/oTIXm7V14Sfv00n95eDW5982purmPSEWzHFPyJXqH+bDrdW7vbk61oxaDU8vBzciq8v7+VWH9NG6i/2re++99z3c+LEic9ffNFbLq+a+0i9u3MDqYnPHWBWA9wF7oGY4phUHQZUE4Hy2sdOvXCtO1OTn5i9e1p6YPIwkYgrb2WIqcwtUEe5WqHArbvzcLv1k1mB+oZbZi2rAXu51WY4iA6O4LbVwRHcRgdWKHBbP/W2VwfqKxZO5bmX26oD3EYH4XYPWh34PatYW41QuL2hq+u53vSehy7f/PZHn/jqN9/41Nf56OvEiROfv6j7hepEYsDL5JHHOAZqP0cnFecbjDPgZzUlrysvk0ov5vZ7rO0X6kEmEoaqPp7JSov4oxOg82Mo6t6VcKu8dk9LD6qhqNzm9S3czulAzHDr2MKtHFsdwFZu5zaUixtutxq36AC38kque7mNDuRWdRBuxR7ldk4HEG59B9AIt1UHrn/sehkv7vs5/8jpiRMnfjGBGfqqmz95+bbbnv/r2+2EsXVScV7M09x+D+VlUhFzbVJxztp+j3ZS6Vlpaff9mOBaKEuZvasBdSKphqICJ75Zd2QVy/tyzWRaJ72KEW57NxLjtn4yay1XiKHAwZwOxBnlVrvKdc5AKic66DXFS4aiouV26pygRweQPpY+s8at9+WwpgPnedxmJWuN21YH576fEydOfEGgd79Qz6SSSc9EsvRx3AqTyo1B93r8qUE6E4lJpGeCgDqpzE2UmfTsJVmaSCrWVgO2fDJJzHDrWOI2k2TvRuIlbv0u15GNxMrsMcWtsaSfNaxxGx14v3dDeWuKp7gVx3s46NUBhNuplZYtOujldosO0h7ywfMUt9HB+X0/J06c+ILE0n6hYG5SyQS2dhc9B4O9iaKuBphE6kSijBFkUplaafF7TNXIHw4N5JpJRUzHqKFoIde60pL6yjXc9hrLiilumRLx5YqD0VzlIKZcK7d7dQAtt3IdNRQtYi5iHnK9vEcNRYU48slKi//7dNYeHczdcOzVAciHDlpub+x5us7B+X0/J06c+IJH3S80h0wqBuV8embrpFdhEs3KjGPrRFJRJxW5ZiLx2p5cQW4xElsNRYV8wq148h1ZqVpC5dZEyBzuyRXkGm6jhSNyBaYEB3L10/+P4jY6wMdWQ1HB9ITb5HwUt9HBUX1MXj5BKK5+4OfDjz52ft/PiRMnTlQwQ0vfL5QB2qdyDND+v3fgz7J8Jqm9nx4KGAA5OpKvyWQPslolR7nWlZa5fRc9UF/xaq57ua2PZ47m1gpFuI0ROEIHdaXqKG6zUtVyuwfRgThiO9JeeN+DmCp5iruX2+hAm4l727vvu7zlvocvv/Odz3303Pdz4sSJEw2m9gu1y/ImFoN+u3w/gkwkJuY60GelRfwtE6A4cq2rKTbV+t3rWz6ZNbffIxOs1zNhjwJ39fFMXWlxbOFWblOPZ/ZyK2Z0IF9fKJiVluhglNtqKOpqyl5uxXG9+lYdhFvvjXK7tO8n3OJoC7dykRMO6MBq5hHcZkP5e6/rPo++fsPbrx79kjdcfd0LXf7EiRMnTrTIfqFve+djl5991/OPqtpl+TphG8B7PplVJ71MGi0M9iaV0dUAE0UMRbvvx++jn8xSplynDEWF1zNhe79nws6kN7ffA7deD7c9E2C4xRsOpq7x2ii3MSTVWNZ85/a0LGHJUFS03LY8TaHqYGrfT8xFzlnjtlcHXuv9ZFbQGktcVmzhNjpw3YNuWq7n9YMfvnr6fPR14sSJE4PIfqHvum9+8smkYjCfW2lpl+XnJpKK3tWANUNRUVexHHOTirKcK9eeiRLUyfniz02AqVMmvdZQVHi9ZzWgTnrKV8YaRriNqVrbUN6a4iluew1Fi3C79B04IzoY4XZUBzE2uHDtFLcjOoAebltj6VNfr3/k2o19P19209XfOM3PiRMnTmzE2n4hA/jcSotJYO17XpZgAsyk4tpMKqMTSYVJZWqlRexMJCb/0VydL992pcXryslkOpKr8zIB1tWALcayRcttchIz3HqvN1eIuZBvNQ64GDUUFc6fWmnZo4O5lZa9OoDoINzGuOkDW3QAU9zGWEYH9SPv576fEydOnDgIPd8vZELKpJIJ1MFwbJlIKkwqNwb56/H83DqRBK7JpOJRT3IVd4uhqMjEnJiZoKcez/SiXQ04KldouRX/KG5tSA4PWw1FRV1pkSvzsidXCLfiisloHcGtayu34mu/PTqY4vZGzmXfz41HXzdf/a4Xuu6JEydOnDgKa98vZIUid6U+meTo2S/UAysBJj2xTQLu5KcejfQiKwlWsPKx5C2rVVPAQWLKVzlWGPbA9eJWDo7IVYwYAIeJdS+3dGCyFq9yewQqBw7cKm8PcOCPhzIWMYFHcBvTlnyZoqxibYXrw+0777zr8rN33Hv52w984tz3c+LEiROfKWS/UB6RZVm+7vfwu8nESssec2HSM5FYUbGqZALwf5P10p6WJbjG5ClXOcpVPHfqDmVuQVaB6uOZuhqwZQJ0TR7PiCPXrAaYXOW6h1v1Fcu+n73czukg3Iq9ldtWB08++eSL3CpjD7dWqXAg5hHcRgd1Q7lcw+0WUzy17+efPPixZ77mrc88+sveeO77OXHixInPOLJfyOZpA3NrdizfG/xHPpkVTBmK+hihTipi9kwqmfRcM/V4xgSY/ULKHJkAnY+DqVzFka8y656WJazt+9ny6aGgNRTt45mW256VFnWqxnKKW6+PcrumA3G8PvLJrKoD+SqjYi+3MVVTG8qjA/F7cm2NZd3381vvuPqR0/ycOHHixGcR2S/0jff07RdyLE0qJjWT3pyhaGFSuTE5LEwq7V10aygqlDWyGhBDYWJb2++RCV0eSystXu/dUC7XcCv2ErdrhqJFuF36ZJbXl4xlxQi3Xh/RAZMQbtVzits1Y9lihNvoALeuWcpVmTFDS8bN6+oi1/NPXZw4ceLE5zB6/x5ZVlpMGO0EZCLxnklvZAPp3KTS3kWvTXoVys4EOLUakEk3hsLqQS/kkQlbPqlnNRR46s0VYi7CX73W78rrNRQVrp36ZNaIsWyxttKyVQcQHYTbmAt5b9EBLHE7aiwr5kxx1cG91+vC/Jx/6uLEiRMnPg/Q7hdqYYJoVwMcmUimHs/0ok4qPrbvyMQ/MulVTK0G+Dn3BYIjMBnLz0Rv5Uc5WybpYI7brYaioq60+HtUVof25Aott1a9/NyrA/mEWxrALRO3RwdT3B6pg3Drd3WXu0dfd3/i2nPMz/mR9xMnTpz4PEL2C/3AzBMEE4bJI58iM5nsmUgCd9EmEzFNJHOPRkZhAhQvcZmAvblapZBfPqHmE0o252b1YiustDAWldu9uQIe5Zi4ct+bK2gvxkLMo7iVq/wSUxlH6KDlloaP0IGVn+jgbXe95/LAx5+68ejr69959fbT/Jw4ceLE5yHsF/riN1x9X7tfyN24O1+TkwnlgQceeHE1wB32Fkw9nslqQCbArRN27vpNUh4NedyS1YCtKwuZpOVnBaSuBuwxbq4Vx2rKUdzKJdyquzLCrRWiPdwyEeKIK+Zebqf2/VRuxdzKbXSQR1+0cAS30YF9P49c//3bbv/YE1/95qcf/dI3nY++Tpw4ceLzHr/0jZdX5xHZbR/86I2JwyRSH89Yacl+Ie+NTIDOndvv4fdMrkubUKfQ7vtxPez59FBrKNp6JtdM2Cb1HjhXrjiQa11Vy2OcUW7X9v34XTzvj3IbQ6GuVQd7uV3aUC5/74k/kms1lkvcrm1ir6g6OPf9nDhx4sQXADwi+9duunbft73j0clHCF5r910sTSqZSEyka5N7JrI6Yc8h567t95BrJmznL03YoxuJM2H3rLQoNwZnbt/PCLfKkuucsWzh/XCLuyVuW2PJ9ExhhNtqKNY2lHtPvj2m2LnKxsGSDka4bXVw7vs5ceLEiS8g5CP19gv93MdemBkarK0G1EnPRGLi7UWdsE1U7aSmrJiqtT8cGmQCjBGpE+Cooahwnnhz34Ej1xiK3o3EPdziMxN/b64QcyF+m2uM5dRqyhKWuB01lhXJx7VTphgvKbN3Q/kSt60O6vf9nPt+Tpw4ceILDMzQL3nT1evWPlKfScWEZVIxkfg5Oum1cK0Y+Q4cMTNJK7Nn0qtwfrsaYJPzVkNRkdUTeYn3+OOPbzIUFS23JvoYCkZma66uixmKufCYKBxsyXWKWzxsMZYtXBtuk3u43foJtZZbn1CLDs7v+zlx4sSJEy+ifqR+yQzlW6d9esaG1K2TXoUYJtZ8gsjEbU/JlokvsBpg5cajtMQ9IldQbzEdJum9uYIYYvm7WUdzm/o7GKG9uYZb8cRmMI7iNjqgMVo7glvmJ9y+4447L4984olz38+JEydOnPh0MENf87ZP/34hKwlWKExSjpghqwF7JkDXmkRNqCYqv5tg3bG3j0Z6UR/PmPjkW1ex9sD1YjFqMQJre1rWgIMXH89cz/kobrNyhddwm5WWrdxGB+KIWT+ZxbBsRdVBHuXVVawt3LaP6e558KHLP33XQ8999U1PMz/nvp8TJ06cOPHpyH6h3/7Oy+XeJ557yURiYoW1PS09iKFgUuq+nzzGEd/kaDLrQbvfoz6eyWOclDdqLuQaQ1Efz2TyluvUnpYlxFCoa81pL7cMpJymNpTjJGZrxFws7fsJt8oc+WRWUHVQ9/2kHqPcLu37+c23nft+Tpw4ceJEB174fqH7vu22Ry9vfe/0fo9230XPhD1nKCqUlQnbZLY2YXs/+z3mTI5yMmH3rrRkIpZraygq5JoJW8ylCdt71VAoYwpbuY2pmttQHm57VlqWjGWFcjx2GlnF6tEBjHIbHZz7fk6cOHHixG7U/UJz6Flp6TUUFeI41wQ4NWFXQ2FSX5t4oWelRRy5xlT1biSOuRC/zTWrKcpbMhQterithkLZPbmmPSq3FdVQzJXbwvnh1jHF7RYdAL7kMsVt1cH5fT8nTpw4ceJw5CP1c2bIRDa10rLVUFRYiciEbRJlZOpqSq+hqJhbafEzhqP3Y9kV8ogZirmQ79pqyhLmuN1qKCrkE27FlPOosWzRcitPcfy+RwdiVG7x+tRTT72og/P7fk6cOHHixMuGul9o7lNkdaUlnx7aaihaiCGuSdCk5/9bJumKmAvx5GsvzdaPZVeY+LMvh0nZaigqwi1O5erYaiha+IOsOJDry8UtDo7QQbiNDt7z0AfP7/s5ceLEiROfGXzRWy6vWvpIvZUKKxYOk5RJOystW9E+nvFz6hHZKLKa4vBpMjkzGnsMQH08EyOYmN7bAzyqu4MREHvPJ7PafT82N2elZS+3cpVfdFBXsbYi3MrRvp83vfv+y5++66knfu3bzkdfJ06cOHHiM4h2v1AMRX08Y4L2ex4xjU6A1VDU1RQ/Yy4yYY8iZiq5yl88uWbCHsHSvh+/e038LeYihgK3WanKSovXt3wySx7VWOb6tONWbqd0UB+ROUa5rTqQ72PXy3hx38/5R05PnDhx4sRnC8zQK2965vItt3zoxUmvPvKoE3bvasDSx7Ir2j0tPRN2DMXc45k6YTuvZ6VFuc6T65wh8Vrd0+KaNTM0ZShabkc/mVUNRTWWLUa5dY7zY6raXAG3TFy4Xcu1NZb5yPt/dNflo+e+nxMnTpw48TmB0f1Ccyst7eOZOfPTwnk3Jsnr8efMRTZYx1DIZwk9Ky3VUJjce3LtWWnpMRQVYobbuZWWXmPZoodb5SlXrmv7frzXY4qVFR2cf+frxIkTJ058zmNtvxC0Ky2ZsE16JvNM/D0TdIXzTdjtSktMx9QXCK7BeVMrLVsNRYVrYoZcGzM0YihatCst6r7VWFbMcStX5dTHdL1wbnRQTbHY8vWt3Of3/Zw4ceLEic87tPuFppDVgHzSx4S49HimF3WlxURqgh01Py2y0mKyt4Ha71sNRQsxxMqf4pD7qKGocF3lNnH9/0huxdxiLFvEFItb8/3wddN2ft/PiRMnTpz4vAUzNPf9QlZTTKpWAvLJrC0bfKdgVcEns8Q0oSonKy1b4XqTtVxjVsTdixgLBkBcZXhUN/XYqRdyDbdi1lWsvWB6ElP8vdxmVe2BBx64we3b7rr3cst9D12+5d6rx899PydOnDhx4vMaU/uFTMb18czjjz9+Y/JvH42Mot3349FNVlrEN1mPmgvX5NFXVqrqSstW4+Yaucotqyniek1Zc/uFljD1mA4n4daxlVvXyQ0HeUx3BLfZUP7e6zw++uRTl2+/68knvuYtzzz6JW+4+roXJHTixIkTJ058fiP7hb7rvucub3jP+25M/K15yKMRk7UJt/c7cOpqSgxFfTyjHBN2u6dlCWv7fmICtvzld+eqo1yn9v2IGzMk5poZUhe5Lu37we3IJ7OC1li2G8rFGeXWOeH2wes52ffzgx++evp89HXixIkTJ35RY2S/kMl3baWFoTABO3/uD4cGMUsm37mVlh5DUSFmjNvaSktWU3o3Eit7baXF63JwHg6WclVeuF0zbmvGskUPt62x9Kmv1z9y7ca+ny+76epvnObnxIkTJ058QWBpvxCYcJe+A6caCpPqmqGomFtpGTEULZZWWmIQspoyspFYnKmVFj9jKLw3kquyXSfXqcePjGc4GN303HLr2tZY1o+8/9Y7rn7kND8nTpw4ceILDj3fL8RAZMLOSstWQ9EiKy0PPfTQjVWkLYaiQh7tSotctxqKirrS4mC4xFWHrfnKNdyKzfz4yXiOfjy/RbgVn5n1u30/7UfeX5DCiRMnTpw48YWJnu8XYlIYi3zqa+8kDfmEmkc+4j744IOXJ598cnVPyxrkxViI6WDYxN0LZodBEVPOcp967DQKJjDcMitMy15kVU2e77jjzssdH/r45X/+wHPnvp8TJ06cOHFiCnP7hayoMBVWaawsWFUxuW79ZNbUvp9sABZ/bk9LD9qVKgajrmJtQR59Ze+TOteVFu9vMW5ZXcKl2GL6mVWsLdxO7fv5hfc+8txX3/T0o1/25nPfz4kTJ06cOLGI7Bf6H+//1F6aupHYTxP2lk9mZYXCBB1DUSFuzJD3es1QDMXUY7q6X2iqzDnE/MRQKKNCnBiX3k9mBTiLqaobynv+vMkUzn0/J06cOHHixEGwX+iL33D1fd9w6ycu7/jQ9F4apiAT9tpKSzUUJv81I9K70iIO8xNTNbfvx2u9n8zKaopzxJXLUr4xYHJdW8USM2bN+VO5QrtfaI3bGMvzT12cOHHixIkTB+GXvvHy6rX9QnWlxYRdDcPa9/0swXlLKy2MgTIZm949SmsrLcrIasro4z65xgy5ruaztFK1hBi31LPmI9dwe+91jpif809dnDhx4sSJEwdjbr9QMLXSYuKv+35GDEVFu9ISs9E+phtBu9LCRDEU/nZWazZGIT91/shHPnJ56qmnbsT3/xHzUzHHrfzF9ejr7k9ce475Of/UxYkTJ06cOPEyIfuFfu5jL8zQDUzY+SOc+XTWHkNRwQSIxwgwQD5FtcUAVYghlr+bJTYDcwTUmfkR009xlx6T9YCh8je+1F/cW99974uPvr7+nVdvP83PiRMnTpw48TLDfqFf8qar133jPS99RFYfzzAW+WQWE7C0p6UHDFBWU7ICYqWlfUTWi3bfj5hbNnpPwfXqjAOP8vwuvtWbrUbIda6Xq30/tz74gcs3v/3RJ776zU+fj75OnDhx4sSJzzTqfqF7Hn/mRXNSH30t7WnpQQwFM1H3/YijHKtOo5/Mcm7+cGjd97P1k1lBHtsxP+paH33JVR3EVx4T1gO5zu77edNpfk6cOHHixInPKjwi+9duunbft73zsUmTM7WnZc0M5XuDYijaPxwajHy/UDUU9hLN5dDuF1ozQ+I4j6lqzU+F85gh58l7ybhNfd/Pue/nxIkTJ06c+BxE/gSH/UJznyLrWWnJaoovEFwyFC2Yi5ghZqOutGz9hFrPKpY65P3eT6iJ4/ypVSw/5ZoN5fX7fs59PydOnDhx4sTnMF74fqHVj9RPrbTs+cOhQV1pYSZsJo6h6DU/FXOrWH7K3UrV1k+o1VUs5o8hqvt+zu/7OXHixIkTJz4PUT9Sv2SGmAuTvk87MRRH/E2yrLSId8NQ3HffDUO0B1nFSq4M0R6zVhFDeCPfu99z+djT187v+zlx4sSJEyc+38EMfc3bpr9fKCshDh9R790vtIS67+eoT2aBnMRighzJO6tYW9A+prv/oYcvP3LHe5/7NW879/2cOHHixIkTvyiQ/UK//Z3PrwpN7fvxWlZE5vYLLWFp34/f6yezRj9SL5d230/PfqElyPXc93PixIkTJ058geCL3nJ5lUdkPkX2hve87yV/ODSY2y80h3Yj8dy+H69lv1DvR+qVLYe5fT/VDPWuYin33Pdz4sSJEydOfIGi7heaQ89KSzUUvasxzmFsGK05M5SVKuZH3LV9Pz2felNOVqrOv/N14sSJEydOfIEjH6mfM0NzKy3VUHjM1WN+WlgVihliesSMQYqpGt30PLWKdX7fz4kTJ06cOHFiEu1+oSlkpYWxsIE6f5ts7tHXCLJfSMzsUdr7CbUYN/HEjvk59/2cOHHixIkTJz4N2S809ZH67Pt58MEHb5ggZigrLXshhlgMC7Piz2lMPSIbgeutLlm9ese77r787B33Xv7Cfc888XVvPx99nThx4sSJEydm0O4XiqHIIyorPz37hdYwte9HXK9ZdVr7ExxT+P+3dze7DIRRGMfdARdAXIEFWws714CVa2BjI5G4BBcglrYWYsuCEBWJz0aMz1ZCdAiqGt7RZ9Ijo5nWVGiq/r+kadOPabs7ec9z3lfvj7a+/NJ3LF0Xin2bRc75AgAAyagY6km9BVNHz7G5n+9MZhkVOlZUxeV+onkhXfOrYshyP/oN0dbXcDq4I/cDAADqVk9eqNZkltFrtnqUJPdjI/W6vgqhuBaZnrcT6S+y2U8j76UCqL/8VwAAAOpXKy9k4iazjB5b66vec760EmTh6ehIvbW+FKhmvx8AAPCrKvNCcaJ5IR3IasVPtdZXUpYhymQyYbGlYkqrPze+z34/AACgMVQMfbW/kAoUHXSqmwqgfD5ffvV7bELN87zwmlvp48Dzn4Nxzz2Q+wEAAA1TLS9krS+1r7Rio5WbJHmhWuJyPxN790+964VcZ8oNlX8SAABA41heaPqkGKykTz9aXwpMm8q8kFpbSVjuR589v7wMi5/5G1eg9QUAAJqG5YUmDx+r5n4sL6RCSHmhaiP1cUddLN++hLmfrg03Q/EDAACaTpK8UC6XC7M9lfsLWe7HTqSPHnUxuO8WKH4AAEBTS7K/kFpi1iLTTfsG2c7UjLwDAIA/Lcn+QloVUotMZ5Lt7B8Et49P5H4AAEBrsLxQtEVWmfs5K90vHl299m4UyP0AAIDWYnmhuexrbO5nYNdtU/wAAICWpLxQx6qbHUn5wcEDuR8AAPDPtK8Fo91bbqkr5cYofgAAAAAAAAAAP62t7R25hiHM61RJzQAAAABJRU5ErkJggg==;" vertex="1" parent="1">
          <mxGeometry x="370" y="338.23" width="87" height="83.53" as="geometry" />
        </mxCell>
        <mxCell id="ASAxYl7nAv3bSKNFPmja-54" style="edgeStyle=orthogonalEdgeStyle;rounded=0;orthogonalLoop=1;jettySize=auto;html=1;entryX=0;entryY=0.5;entryDx=0;entryDy=0;" edge="1" parent="1" source="ASAxYl7nAv3bSKNFPmja-7" target="ASAxYl7nAv3bSKNFPmja-50">
          <mxGeometry relative="1" as="geometry" />
        </mxCell>
        <mxCell id="ASAxYl7nAv3bSKNFPmja-7" value="AI Search&lt;div&gt;with Hybrid Search Capabilties&lt;/div&gt;" style="image;aspect=fixed;html=1;points=[];align=center;fontSize=12;image=img/lib/azure2/app_services/Search_Services.svg;" vertex="1" parent="1">
          <mxGeometry x="590" y="348" width="72" height="52" as="geometry" />
        </mxCell>
        <mxCell id="ASAxYl7nAv3bSKNFPmja-14" style="edgeStyle=orthogonalEdgeStyle;rounded=0;orthogonalLoop=1;jettySize=auto;html=1;entryX=0.042;entryY=0.615;entryDx=0;entryDy=0;entryPerimeter=0;" edge="1" parent="1" source="ASAxYl7nAv3bSKNFPmja-6" target="ASAxYl7nAv3bSKNFPmja-7">
          <mxGeometry relative="1" as="geometry" />
        </mxCell>
        <mxCell id="ASAxYl7nAv3bSKNFPmja-48" value="Highly Relevant Articles" style="swimlane;fontStyle=0;childLayout=stackLayout;horizontal=1;startSize=30;horizontalStack=0;resizeParent=1;resizeParentMax=0;resizeLast=0;collapsible=1;marginBottom=0;whiteSpace=wrap;html=1;" vertex="1" parent="1">
          <mxGeometry x="800" y="300" width="140" height="120" as="geometry" />
        </mxCell>
        <mxCell id="ASAxYl7nAv3bSKNFPmja-49" value="Item 1" style="text;strokeColor=none;fillColor=none;align=left;verticalAlign=middle;spacingLeft=4;spacingRight=4;overflow=hidden;points=[[0,0.5],[1,0.5]];portConstraint=eastwest;rotatable=0;whiteSpace=wrap;html=1;" vertex="1" parent="ASAxYl7nAv3bSKNFPmja-48">
          <mxGeometry y="30" width="140" height="30" as="geometry" />
        </mxCell>
        <mxCell id="ASAxYl7nAv3bSKNFPmja-50" value="Item 2" style="text;strokeColor=none;fillColor=none;align=left;verticalAlign=middle;spacingLeft=4;spacingRight=4;overflow=hidden;points=[[0,0.5],[1,0.5]];portConstraint=eastwest;rotatable=0;whiteSpace=wrap;html=1;" vertex="1" parent="ASAxYl7nAv3bSKNFPmja-48">
          <mxGeometry y="60" width="140" height="30" as="geometry" />
        </mxCell>
        <mxCell id="ASAxYl7nAv3bSKNFPmja-51" value="Item 3" style="text;strokeColor=none;fillColor=none;align=left;verticalAlign=middle;spacingLeft=4;spacingRight=4;overflow=hidden;points=[[0,0.5],[1,0.5]];portConstraint=eastwest;rotatable=0;whiteSpace=wrap;html=1;" vertex="1" parent="ASAxYl7nAv3bSKNFPmja-48">
          <mxGeometry y="90" width="140" height="30" as="geometry" />
        </mxCell>
      </root>
    </mxGraphModel>
  </diagram>
</mxfile>
